<svg xmlns="http://www.w3.org/2000/svg" xmlns:xlink="http://www.w3.org/1999/xlink" width="500" zoomAndPan="magnify" viewBox="0 0 375 374.999991" height="500" preserveAspectRatio="xMidYMid meet" version="1.0"><defs><g/><clipPath id="31168726f6"><path d="M 291.234375 174.011719 L 303.738281 174.011719 L 303.738281 186.519531 L 291.234375 186.519531 Z M 291.234375 174.011719 " clip-rule="nonzero"/></clipPath><clipPath id="81a4e7f483"><path d="M 239.746094 154.914062 L 252 154.914062 L 252 167 L 239.746094 167 Z M 239.746094 154.914062 " clip-rule="nonzero"/></clipPath><clipPath id="b987c7b9c0"><path d="M 255.933594 180.035156 L 274 180.035156 L 274 198 L 255.933594 198 Z M 255.933594 180.035156 " clip-rule="nonzero"/></clipPath><clipPath id="ad8710c8bf"><path d="M 275.15625 140.179688 L 289.9375 140.179688 L 289.9375 154.960938 L 275.15625 154.960938 Z M 275.15625 140.179688 " clip-rule="nonzero"/></clipPath><clipPath id="10e209af35"><path d="M 313.410156 142.867188 L 337.289062 142.867188 L 337.289062 166.746094 L 313.410156 166.746094 Z M 313.410156 142.867188 " clip-rule="nonzero"/></clipPath><clipPath id="07ba6965c0"><path d="M 302.105469 123.085938 L 313 123.085938 L 313 134 L 302.105469 134 Z M 302.105469 123.085938 " clip-rule="nonzero"/></clipPath><clipPath id="16cb38c090"><path d="M 302.105469 97.253906 L 313 97.253906 L 313 108 L 302.105469 108 Z M 302.105469 97.253906 " clip-rule="nonzero"/></clipPath><clipPath id="e7853ee2a4"><path d="M 331.710938 86.511719 L 353.007812 86.511719 L 353.007812 107.808594 L 331.710938 107.808594 Z M 331.710938 86.511719 " clip-rule="nonzero"/></clipPath><clipPath id="3c930a0650"><path d="M 217.175781 92.910156 L 247.601562 92.910156 L 247.601562 123.335938 L 217.175781 123.335938 Z M 217.175781 92.910156 " clip-rule="nonzero"/></clipPath></defs><g fill="#000000" fill-opacity="1"><g transform="translate(29.218063, 157.742187)"><g><path d="M 13.515625 4.265625 C 9.378906 4.265625 6.003906 3.429688 3.390625 1.765625 C 0.785156 0.109375 -1.101562 -2.035156 -2.28125 -4.671875 C -3.46875 -7.316406 -4.0625 -10.03125 -4.0625 -12.8125 C -4.0625 -15.582031 -3.503906 -18.238281 -2.390625 -20.78125 C -1.273438 -23.320312 0.296875 -25.390625 2.328125 -26.984375 C 4.367188 -28.578125 6.742188 -29.375 9.453125 -29.375 C 10.472656 -29.375 10.984375 -28.96875 10.984375 -28.15625 C 10.984375 -25.914062 11.945312 -24.101562 13.875 -22.71875 C 15.800781 -21.332031 18.15625 -20.640625 20.9375 -20.640625 C 24.125 -20.640625 27.507812 -22.007812 31.09375 -24.75 C 34.6875 -27.488281 37.671875 -31.910156 40.046875 -38.015625 C 40.929688 -40.316406 41.828125 -42.703125 42.734375 -45.171875 C 43.648438 -47.648438 44.550781 -49.972656 45.4375 -52.140625 C 46.113281 -53.898438 47.007812 -55.148438 48.125 -55.890625 C 49.238281 -56.640625 50.546875 -57.015625 52.046875 -57.015625 C 54.210938 -57.015625 55.582031 -56.523438 56.15625 -55.546875 C 56.726562 -54.566406 56.847656 -53.226562 56.515625 -51.53125 C 56.171875 -49.90625 55.523438 -47.890625 54.578125 -45.484375 C 53.628906 -43.078125 52.613281 -40.566406 51.53125 -37.953125 C 50.445312 -35.347656 49.515625 -32.875 48.734375 -30.53125 C 47.953125 -28.195312 47.5625 -26.253906 47.5625 -24.703125 C 47.5625 -23.410156 47.953125 -22.304688 48.734375 -21.390625 C 49.515625 -20.472656 50.753906 -20.015625 52.453125 -20.015625 C 54.679688 -20.015625 56.710938 -20.773438 58.546875 -22.296875 C 60.378906 -23.828125 61.988281 -25.847656 63.375 -28.359375 C 64.757812 -30.867188 65.820312 -33.644531 66.5625 -36.6875 C 67.3125 -39.738281 67.6875 -42.753906 67.6875 -45.734375 C 67.6875 -48.648438 67.160156 -51.328125 66.109375 -53.765625 C 65.066406 -56.203125 63.238281 -58.179688 60.625 -59.703125 C 58.019531 -61.234375 54.378906 -62 49.703125 -62 C 46.515625 -62 43.460938 -61.472656 40.546875 -60.421875 C 37.640625 -59.367188 35.269531 -57.757812 33.4375 -55.59375 C 31.613281 -53.425781 30.703125 -50.582031 30.703125 -47.0625 C 30.703125 -45.570312 31.070312 -44.332031 31.8125 -43.34375 C 32.5625 -42.363281 33.476562 -41.875 34.5625 -41.875 C 35.300781 -41.8125 35.484375 -41.097656 35.109375 -39.734375 C 34.742188 -38.378906 33.929688 -36.835938 32.671875 -35.109375 C 31.421875 -33.390625 29.8125 -31.882812 27.84375 -30.59375 C 25.882812 -29.300781 23.6875 -28.65625 21.25 -28.65625 C 18.46875 -28.65625 16.128906 -29.347656 14.234375 -30.734375 C 12.335938 -32.128906 10.910156 -33.960938 9.953125 -36.234375 C 9.003906 -38.503906 8.53125 -40.925781 8.53125 -43.5 C 8.53125 -47.832031 9.492188 -51.929688 11.421875 -55.796875 C 13.359375 -59.660156 16.085938 -63.082031 19.609375 -66.0625 C 23.140625 -69.039062 27.328125 -71.378906 32.171875 -73.078125 C 37.015625 -74.773438 42.347656 -75.625 48.171875 -75.625 C 54.679688 -75.625 60.15625 -74.757812 64.59375 -73.03125 C 69.03125 -71.300781 72.585938 -68.925781 75.265625 -65.90625 C 77.941406 -62.894531 79.875 -59.441406 81.0625 -55.546875 C 82.25 -51.648438 82.84375 -47.535156 82.84375 -43.203125 C 82.84375 -37.773438 82.023438 -32.4375 80.390625 -27.1875 C 78.765625 -21.9375 76.546875 -17.191406 73.734375 -12.953125 C 70.921875 -8.722656 67.6875 -5.335938 64.03125 -2.796875 C 60.375 -0.253906 56.515625 1.015625 52.453125 1.015625 C 48.242188 1.015625 44.921875 -0.253906 42.484375 -2.796875 C 40.046875 -5.335938 38.691406 -8.707031 38.421875 -12.90625 C 35.578125 -7.625 32.019531 -3.441406 27.75 -0.359375 C 23.476562 2.722656 18.734375 4.265625 13.515625 4.265625 Z M 13.515625 4.265625 "/></g></g></g><g fill="#000000" fill-opacity="1"><g transform="translate(111.948549, 157.742187)"><g><path d="M 10.78125 0 C 7.320312 0 4.710938 -1.421875 2.953125 -4.265625 C 1.191406 -7.109375 0.3125 -10.800781 0.3125 -15.34375 C 0.3125 -18.1875 0.664062 -21.21875 1.375 -24.4375 C 2.082031 -27.65625 3.128906 -30.820312 4.515625 -33.9375 C 5.910156 -37.0625 7.65625 -39.894531 9.75 -42.4375 C 11.851562 -44.976562 14.296875 -47.007812 17.078125 -48.53125 C 19.859375 -50.0625 23.007812 -50.828125 26.53125 -50.828125 C 28.5625 -50.828125 30.132812 -50.640625 31.25 -50.265625 C 32.375 -49.890625 33.222656 -49.429688 33.796875 -48.890625 C 34.367188 -48.347656 34.859375 -47.890625 35.265625 -47.515625 C 35.671875 -47.140625 36.210938 -46.953125 36.890625 -46.953125 C 38.046875 -46.953125 38.976562 -47.273438 39.6875 -47.921875 C 40.40625 -48.566406 41.203125 -49.210938 42.078125 -49.859375 C 42.960938 -50.503906 44.179688 -50.828125 45.734375 -50.828125 C 47.085938 -50.828125 48.019531 -50.484375 48.53125 -49.796875 C 49.039062 -49.117188 49.296875 -48.207031 49.296875 -47.0625 C 49.296875 -45.164062 48.769531 -43.285156 47.71875 -41.421875 C 46.664062 -39.554688 45.566406 -37.132812 44.421875 -34.15625 C 42.722656 -30.425781 42.09375 -27.578125 42.53125 -25.609375 C 42.976562 -23.648438 44.316406 -22.671875 46.546875 -22.671875 C 48.304688 -22.671875 49.832031 -23.125 51.125 -24.03125 C 52.414062 -24.945312 53.566406 -26.21875 54.578125 -27.84375 C 55.117188 -28.65625 55.8125 -28.941406 56.65625 -28.703125 C 57.507812 -28.472656 58.222656 -28.019531 58.796875 -27.34375 C 59.367188 -26.664062 59.488281 -25.988281 59.15625 -25.3125 C 57.9375 -22.9375 56.628906 -20.304688 55.234375 -17.421875 C 53.847656 -14.546875 52.304688 -11.785156 50.609375 -9.140625 C 48.921875 -6.503906 46.992188 -4.320312 44.828125 -2.59375 C 42.660156 -0.863281 40.148438 0 37.296875 0 C 33.773438 0 31.285156 -1.421875 29.828125 -4.265625 C 28.367188 -7.109375 27.945312 -10.632812 28.5625 -14.84375 L 28.15625 -14.84375 C 26.125 -10.707031 23.613281 -7.195312 20.625 -4.3125 C 17.644531 -1.4375 14.363281 0 10.78125 0 Z M 20.9375 -21.046875 C 22.695312 -21.046875 24.238281 -21.550781 25.5625 -22.5625 C 26.882812 -23.582031 27.914062 -24.816406 28.65625 -26.265625 C 29.40625 -27.722656 29.78125 -29.164062 29.78125 -30.59375 C 29.78125 -32.289062 29.304688 -33.613281 28.359375 -34.5625 C 27.410156 -35.507812 26.125 -35.984375 24.5 -35.984375 C 22.738281 -35.984375 21.210938 -35.507812 19.921875 -34.5625 C 18.628906 -33.613281 17.628906 -32.410156 16.921875 -30.953125 C 16.210938 -29.492188 15.859375 -28.019531 15.859375 -26.53125 C 15.859375 -24.832031 16.3125 -23.492188 17.21875 -22.515625 C 18.132812 -21.535156 19.375 -21.046875 20.9375 -21.046875 Z M 20.9375 -21.046875 "/></g></g></g><g fill="#000000" fill-opacity="1"><g transform="translate(164.18869, 157.742187)"><g><path d="M 11.890625 0 C 7.890625 0 4.957031 -1.382812 3.09375 -4.15625 C 1.238281 -6.9375 0.3125 -10.363281 0.3125 -14.4375 C 0.3125 -18.226562 0.851562 -22.222656 1.9375 -26.421875 C 3.019531 -30.628906 4.660156 -34.578125 6.859375 -38.265625 C 9.066406 -41.960938 11.8125 -44.976562 15.09375 -47.3125 C 18.375 -49.65625 22.1875 -50.828125 26.53125 -50.828125 C 28.5625 -50.828125 30.132812 -50.585938 31.25 -50.109375 C 32.375 -49.628906 33.222656 -49.066406 33.796875 -48.421875 C 34.367188 -47.785156 34.859375 -47.210938 35.265625 -46.703125 C 35.671875 -46.191406 36.210938 -45.9375 36.890625 -45.9375 C 37.429688 -45.9375 37.867188 -46.546875 38.203125 -47.765625 C 38.546875 -48.984375 39.054688 -50.796875 39.734375 -53.203125 C 40.421875 -55.609375 41.472656 -58.539062 42.890625 -62 C 44.179688 -65.113281 45.453125 -67.46875 46.703125 -69.0625 C 47.953125 -70.65625 49.15625 -71.722656 50.3125 -72.265625 C 51.46875 -72.804688 52.550781 -73.078125 53.5625 -73.078125 C 55.320312 -73.078125 56.488281 -72.210938 57.0625 -70.484375 C 57.644531 -68.753906 57.257812 -66.4375 55.90625 -63.53125 L 44.421875 -34.15625 C 42.722656 -30.425781 42.09375 -27.578125 42.53125 -25.609375 C 42.976562 -23.648438 44.316406 -22.671875 46.546875 -22.671875 C 48.304688 -22.671875 49.832031 -23.125 51.125 -24.03125 C 52.414062 -24.945312 53.566406 -26.21875 54.578125 -27.84375 C 55.117188 -28.65625 55.8125 -28.941406 56.65625 -28.703125 C 57.507812 -28.472656 58.222656 -28.019531 58.796875 -27.34375 C 59.367188 -26.664062 59.488281 -25.988281 59.15625 -25.3125 C 57.9375 -22.9375 56.628906 -20.304688 55.234375 -17.421875 C 53.847656 -14.546875 52.304688 -11.785156 50.609375 -9.140625 C 48.921875 -6.503906 46.992188 -4.320312 44.828125 -2.59375 C 42.660156 -0.863281 40.148438 0 37.296875 0 C 34.046875 0 31.640625 -1.421875 30.078125 -4.265625 C 28.523438 -7.109375 28.019531 -10.632812 28.5625 -14.84375 L 28.15625 -14.84375 C 26.050781 -10.707031 23.59375 -7.195312 20.78125 -4.3125 C 17.96875 -1.4375 15.003906 0 11.890625 0 Z M 21.140625 -21.046875 C 22.835938 -21.046875 24.328125 -21.550781 25.609375 -22.5625 C 26.898438 -23.582031 27.914062 -24.816406 28.65625 -26.265625 C 29.40625 -27.722656 29.78125 -29.164062 29.78125 -30.59375 C 29.78125 -32.082031 29.335938 -33.351562 28.453125 -34.40625 C 27.578125 -35.457031 26.15625 -35.984375 24.1875 -35.984375 C 22.5625 -35.984375 21.117188 -35.507812 19.859375 -34.5625 C 18.609375 -33.613281 17.628906 -32.410156 16.921875 -30.953125 C 16.210938 -29.492188 15.859375 -28.019531 15.859375 -26.53125 C 15.859375 -25.039062 16.265625 -23.753906 17.078125 -22.671875 C 17.890625 -21.585938 19.242188 -21.046875 21.140625 -21.046875 Z M 21.140625 -21.046875 "/></g></g></g><path stroke-linecap="butt" transform="matrix(0.969689, 0, 0, 0.969689, 25.290504, 72.398287)" fill="none" stroke-linejoin="miter" d="M 22.392133 91.165835 C 18.355722 91.165835 15.060529 90.352107 12.506552 88.720624 C 9.972718 87.105254 8.119675 85.014538 6.959509 82.444448 C 5.795314 79.862273 5.215231 77.211616 5.215231 74.496506 C 5.215231 71.785424 5.763088 69.191164 6.862828 66.721783 C 7.942427 64.23226 9.47723 62.214054 11.463209 60.663138 C 13.453215 59.096108 15.769519 58.314608 18.420176 58.314608 C 19.403094 58.314608 19.894553 58.709386 19.894553 59.498944 C 19.894553 61.698425 20.841217 63.474929 22.730515 64.832485 C 24.619813 66.186011 26.924031 66.866803 29.635113 66.866803 C 32.736946 66.866803 36.040196 65.525361 39.544864 62.842478 C 43.049532 60.163622 45.966061 55.841198 48.290421 49.883263 C 49.14846 47.635441 50.022613 45.311081 50.908851 42.902125 C 51.815231 40.481084 52.693412 38.213121 53.551451 36.094207 C 54.212101 34.366043 55.086254 33.141423 56.165853 32.412291 C 57.265594 31.687188 58.542582 31.324636 59.992789 31.324636 C 62.111704 31.324636 63.453145 31.808038 64.017115 32.774843 C 64.581085 33.729563 64.693879 35.030721 64.355497 36.678318 C 64.033228 38.277575 63.404805 40.24744 62.466199 42.587914 C 61.543706 44.932416 60.552731 47.377627 59.485217 49.931603 C 58.437845 52.481551 57.531465 54.898564 56.774135 57.174584 C 56.012776 59.450604 55.63411 61.360043 55.63411 62.890818 C 55.63411 64.135579 56.012776 65.21115 56.774135 66.113501 C 57.531465 67.003767 58.744 67.446886 60.40771 67.446886 C 62.587049 67.446886 64.564971 66.705669 66.341475 65.219206 C 68.134093 63.732744 69.709179 61.770935 71.066735 59.329753 C 72.42429 56.876485 73.467634 54.161375 74.192737 51.188449 C 74.917841 48.203439 75.284421 45.254684 75.284421 42.346212 C 75.284421 39.502194 74.764764 36.895849 73.733505 34.519121 C 72.714331 32.130307 70.929771 30.192668 68.375794 28.706206 C 65.841959 27.20363 62.288951 26.454356 57.716769 26.454356 C 54.598823 26.454356 51.617841 26.969985 48.777852 28.005272 C 45.933834 29.020417 43.61753 30.595504 41.824913 32.726503 C 40.048409 34.845417 39.158142 37.620953 39.158142 41.061167 C 39.158142 42.515403 39.520694 43.719881 40.249826 44.674601 C 40.97493 45.625293 41.873253 46.100638 42.936738 46.100638 C 43.665871 46.181205 43.843118 46.886167 43.47251 48.211496 C 43.113986 49.516683 42.324429 51.019259 41.095781 52.715196 C 39.867133 54.395019 38.292046 55.865368 36.370521 57.126243 C 34.46511 58.387118 32.317997 59.015541 29.925155 59.015541 C 27.214073 59.015541 24.925968 58.338778 23.068896 56.981223 C 21.227939 55.623667 19.838157 53.839106 18.903578 51.62754 C 17.981085 49.411945 17.521853 47.047302 17.521853 44.525552 C 17.521853 40.29578 18.468516 36.299653 20.357814 32.533142 C 22.247112 28.754546 24.909854 25.411012 28.354097 22.50254 C 31.794311 19.581984 35.871006 17.293879 40.588208 15.646282 C 45.321524 13.998685 50.538242 13.176901 56.238363 13.176901 C 62.587049 13.176901 67.924618 14.014799 72.255099 15.694622 C 76.581551 17.374446 80.053992 19.694778 82.672422 22.647561 C 85.290853 25.58826 87.172094 28.96402 88.316146 32.774843 C 89.480341 36.573581 90.060424 40.585822 90.060424 44.819622 C 90.060424 50.116907 89.270866 55.333626 87.687723 60.469777 C 86.10458 65.589815 83.941354 70.218394 81.194017 74.351485 C 78.450707 78.488605 75.284421 81.799912 71.695158 84.285406 C 68.126036 86.758815 64.363553 87.991492 60.40771 87.991492 C 56.302817 87.991492 53.055964 86.758815 50.66715 84.285406 C 48.290421 81.799912 46.969121 78.504718 46.695193 74.399825 C 43.915628 79.55209 40.443187 83.640869 36.273841 86.662135 C 32.108523 89.663259 27.479944 91.165835 22.392133 91.165835 Z M 100.477747 87.000517 C 97.101987 87.000517 94.552038 85.610735 92.823875 82.83117 C 91.111824 80.055634 90.253785 76.454286 90.253785 72.027125 C 90.253785 69.231447 90.604252 66.266579 91.297128 63.136547 C 91.990005 59.986375 93.017236 56.892599 94.374791 53.85522 C 95.732346 50.817841 97.43634 48.058418 99.486772 45.568896 C 101.537204 43.083401 103.917962 41.093394 106.633072 39.61096 C 109.348183 38.124497 112.425845 37.379252 115.86606 37.379252 C 117.852038 37.379252 119.386841 37.564556 120.46644 37.939193 C 121.566181 38.293688 122.40005 38.736807 122.964019 39.26855 C 123.527989 39.804321 124.003335 40.255497 124.394085 40.626105 C 124.79692 40.9806 125.328663 41.157848 125.993342 41.157848 C 127.105167 41.157848 128.011547 40.843636 128.704424 40.215213 C 129.401329 39.58679 130.174773 38.954338 131.032812 38.325915 C 131.902937 37.693463 133.099358 37.379252 134.618048 37.379252 C 135.943376 37.379252 136.853784 37.709577 137.3533 38.374255 C 137.856844 39.034905 138.106602 39.933228 138.106602 41.061167 C 138.106602 42.902125 137.590973 44.739055 136.555686 46.563899 C 135.536512 48.388743 134.46497 50.753387 133.333003 53.661859 C 131.685406 57.295434 131.073096 60.074998 131.492045 61.996523 C 131.927107 63.918048 133.236322 64.880825 135.415662 64.880825 C 137.127712 64.880825 138.614175 64.433677 139.87505 63.54744 C 141.135924 62.64106 142.263863 61.400327 143.266924 59.817184 C 143.782553 59.023598 144.455288 58.741613 145.277072 58.967201 C 146.118998 59.192789 146.811875 59.639936 147.359731 60.300586 C 147.927729 60.961236 148.04858 61.625915 147.726312 62.286565 C 146.52989 64.594812 145.252902 67.164901 143.895347 69.992806 C 142.54182 72.800569 141.031187 75.499566 139.367477 78.085769 C 137.71988 80.651831 135.838639 82.78283 133.719725 84.478767 C 131.604839 86.158591 129.159628 87.000517 126.380064 87.000517 C 122.939849 87.000517 120.506723 85.610735 119.088743 82.83117 C 117.666734 80.055634 117.251813 76.61542 117.852038 72.510527 L 117.465316 72.510527 C 115.475309 76.550966 113.022042 79.975067 110.097457 82.78283 C 107.188985 85.594621 103.986444 87.000517 100.477747 87.000517 Z M 110.411668 66.455911 C 112.123719 66.455911 113.626295 65.960424 114.919396 64.977505 C 116.212498 63.974445 117.219587 62.761911 117.948719 61.34393 C 118.673822 59.921921 119.040403 58.516025 119.040403 57.126243 C 119.040403 55.478646 118.569085 54.193602 117.634507 53.275137 C 116.712014 52.33653 115.459196 51.869241 113.876053 51.869241 C 112.164002 51.869241 110.681568 52.33653 109.420693 53.275137 C 108.159818 54.193602 107.180928 55.365853 106.488051 56.787862 C 105.795175 58.209871 105.444708 59.647993 105.444708 61.0982 C 105.444708 62.745797 105.891855 64.055012 106.778093 65.025845 C 107.684473 65.976537 108.892979 66.455911 110.411668 66.455911 Z M 152.57645 87.000517 C 148.68506 87.000517 145.824928 85.642961 144.000084 82.927851 C 142.17524 80.216768 141.260803 76.873235 141.260803 72.897249 C 141.260803 69.19922 141.784489 65.299774 142.83589 61.194881 C 143.903404 57.094016 145.510717 53.24291 147.657829 49.641562 C 149.821056 46.036185 152.503939 43.099515 155.702452 40.819466 C 158.917079 38.527333 162.639278 37.379252 166.86905 37.379252 C 168.859057 37.379252 170.39386 37.612896 171.473458 38.084214 C 172.573199 38.535389 173.40304 39.075189 173.971038 39.707641 C 174.535007 40.336064 175.010353 40.900033 175.401104 41.403578 C 175.803939 41.903093 176.335682 42.152851 177.00036 42.152851 C 177.532103 42.152851 177.959108 41.556655 178.281377 40.360234 C 178.623787 39.163813 179.115246 37.395365 179.759783 35.054892 C 180.424461 32.694276 181.45572 29.830116 182.861615 26.454356 C 184.106377 23.416977 185.343081 21.120815 186.567701 19.573927 C 187.796349 18.023011 188.9686 16.979667 190.080426 16.447924 C 191.212393 15.912153 192.279907 15.646282 193.278939 15.646282 C 194.990989 15.646282 196.131013 16.496265 196.694983 18.192202 C 197.262981 19.872025 196.880287 22.131932 195.558987 24.97595 L 184.340021 53.661859 C 182.692424 57.295434 182.080115 60.074998 182.499063 61.996523 C 182.934126 63.918048 184.243341 64.880825 186.42268 64.880825 C 188.134731 64.880825 189.621193 64.433677 190.882068 63.54744 C 192.142943 62.64106 193.270882 61.400327 194.273942 59.817184 C 194.789571 59.023598 195.462307 58.741613 196.284091 58.967201 C 197.126017 59.192789 197.818894 59.639936 198.36675 60.300586 C 198.934748 60.961236 199.055598 61.625915 198.73333 62.286565 C 197.536909 64.594812 196.259921 67.164901 194.902365 69.992806 C 193.54481 72.800569 192.038206 75.499566 190.374495 78.085769 C 188.726899 80.651831 186.841629 82.78283 184.726743 84.478767 C 182.611857 86.158591 180.162618 87.000517 177.387082 87.000517 C 174.220796 87.000517 171.868237 85.610735 170.337463 82.83117 C 168.818773 80.055634 168.323286 76.61542 168.859057 72.510527 L 168.468306 72.510527 C 166.417874 76.550966 164.021004 79.975067 161.273666 82.78283 C 158.526329 85.594621 155.629942 87.000517 152.57645 87.000517 Z M 161.612048 66.455911 C 163.259645 66.455911 164.71388 65.960424 165.974755 64.977505 C 167.23563 63.974445 168.226605 62.761911 168.955737 61.34393 C 169.680841 59.921921 170.043393 58.516025 170.043393 57.126243 C 170.043393 55.672007 169.616387 54.435303 168.762376 53.420158 C 167.904337 52.384871 166.514555 51.869241 164.59303 51.869241 C 163.009887 51.869241 161.603991 52.33653 160.379371 53.275137 C 159.150724 54.193602 158.187947 55.365853 157.49507 56.787862 C 156.798165 58.209871 156.451726 59.647993 156.451726 61.0982 C 156.451726 62.552436 156.846505 63.813311 157.640091 64.880825 C 158.429648 65.928197 159.754977 66.455911 161.612048 66.455911 Z M 161.612048 66.455911 " stroke="#000624" stroke-width="3.597707" stroke-opacity="1" stroke-miterlimit="4"/><g fill="#38b6ff" fill-opacity="1"><g transform="translate(34.199521, 156.761218)"><g><path d="M 12.796875 4.046875 C 8.878906 4.046875 5.6875 3.257812 3.21875 1.6875 C 0.75 0.113281 -1.039062 -1.921875 -2.15625 -4.421875 C -3.28125 -6.929688 -3.84375 -9.5 -3.84375 -12.125 C -3.84375 -14.757812 -3.3125 -17.273438 -2.25 -19.671875 C -1.195312 -22.078125 0.285156 -24.035156 2.203125 -25.546875 C 4.128906 -27.054688 6.378906 -27.8125 8.953125 -27.8125 C 9.910156 -27.8125 10.390625 -27.425781 10.390625 -26.65625 C 10.390625 -24.539062 11.300781 -22.820312 13.125 -21.5 C 14.957031 -20.1875 17.191406 -19.53125 19.828125 -19.53125 C 22.835938 -19.53125 26.039062 -20.828125 29.4375 -23.421875 C 32.84375 -26.023438 35.671875 -30.210938 37.921875 -35.984375 C 38.753906 -38.171875 39.601562 -40.429688 40.46875 -42.765625 C 41.332031 -45.109375 42.179688 -47.3125 43.015625 -49.375 C 43.660156 -51.039062 44.507812 -52.222656 45.5625 -52.921875 C 46.625 -53.628906 47.859375 -53.984375 49.265625 -53.984375 C 51.316406 -53.984375 52.613281 -53.519531 53.15625 -52.59375 C 53.707031 -51.664062 53.820312 -50.398438 53.5 -48.796875 C 53.1875 -47.253906 52.578125 -45.34375 51.671875 -43.0625 C 50.773438 -40.789062 49.8125 -38.414062 48.78125 -35.9375 C 47.757812 -33.46875 46.878906 -31.125 46.140625 -28.90625 C 45.398438 -26.695312 45.03125 -24.859375 45.03125 -23.390625 C 45.03125 -22.171875 45.398438 -21.125 46.140625 -20.25 C 46.878906 -19.382812 48.050781 -18.953125 49.65625 -18.953125 C 51.769531 -18.953125 53.691406 -19.671875 55.421875 -21.109375 C 57.160156 -22.554688 58.6875 -24.46875 60 -26.84375 C 61.3125 -29.21875 62.320312 -31.847656 63.03125 -34.734375 C 63.738281 -37.628906 64.09375 -40.488281 64.09375 -43.3125 C 64.09375 -46.0625 63.59375 -48.59375 62.59375 -50.90625 C 61.601562 -53.21875 59.875 -55.09375 57.40625 -56.53125 C 54.9375 -57.976562 51.488281 -58.703125 47.0625 -58.703125 C 44.039062 -58.703125 41.148438 -58.203125 38.390625 -57.203125 C 35.640625 -56.210938 33.394531 -54.691406 31.65625 -52.640625 C 29.925781 -50.585938 29.0625 -47.894531 29.0625 -44.5625 C 29.0625 -43.144531 29.414062 -41.972656 30.125 -41.046875 C 30.832031 -40.117188 31.695312 -39.65625 32.71875 -39.65625 C 33.425781 -39.582031 33.601562 -38.90625 33.25 -37.625 C 32.894531 -36.34375 32.125 -34.882812 30.9375 -33.25 C 29.75 -31.613281 28.222656 -30.1875 26.359375 -28.96875 C 24.503906 -27.75 22.421875 -27.140625 20.109375 -27.140625 C 17.484375 -27.140625 15.269531 -27.796875 13.46875 -29.109375 C 11.675781 -30.421875 10.328125 -32.148438 9.421875 -34.296875 C 8.523438 -36.453125 8.078125 -38.75 8.078125 -41.1875 C 8.078125 -45.289062 8.988281 -49.171875 10.8125 -52.828125 C 12.644531 -56.484375 15.226562 -59.722656 18.5625 -62.546875 C 21.90625 -65.367188 25.867188 -67.582031 30.453125 -69.1875 C 35.046875 -70.789062 40.097656 -71.59375 45.609375 -71.59375 C 51.773438 -71.59375 56.957031 -70.773438 61.15625 -69.140625 C 65.351562 -67.503906 68.71875 -65.257812 71.25 -62.40625 C 73.789062 -59.550781 75.625 -56.28125 76.75 -52.59375 C 77.875 -48.90625 78.4375 -45.007812 78.4375 -40.90625 C 78.4375 -35.769531 77.664062 -30.710938 76.125 -25.734375 C 74.582031 -20.765625 72.476562 -16.273438 69.8125 -12.265625 C 67.15625 -8.253906 64.09375 -5.046875 60.625 -2.640625 C 57.164062 -0.234375 53.507812 0.96875 49.65625 0.96875 C 45.675781 0.96875 42.53125 -0.234375 40.21875 -2.640625 C 37.914062 -5.046875 36.632812 -8.238281 36.375 -12.21875 C 33.675781 -7.21875 30.304688 -3.253906 26.265625 -0.328125 C 22.222656 2.585938 17.734375 4.046875 12.796875 4.046875 Z M 12.796875 4.046875 "/></g></g></g><g fill="#38b6ff" fill-opacity="1"><g transform="translate(112.527834, 156.761218)"><g><path d="M 10.203125 0 C 6.929688 0 4.457031 -1.34375 2.78125 -4.03125 C 1.113281 -6.726562 0.28125 -10.226562 0.28125 -14.53125 C 0.28125 -17.226562 0.617188 -20.097656 1.296875 -23.140625 C 1.972656 -26.191406 2.96875 -29.191406 4.28125 -32.140625 C 5.59375 -35.085938 7.242188 -37.765625 9.234375 -40.171875 C 11.222656 -42.578125 13.53125 -44.5 16.15625 -45.9375 C 18.789062 -47.382812 21.773438 -48.109375 25.109375 -48.109375 C 27.035156 -48.109375 28.53125 -47.929688 29.59375 -47.578125 C 30.65625 -47.234375 31.457031 -46.800781 32 -46.28125 C 32.539062 -45.769531 33.003906 -45.335938 33.390625 -44.984375 C 33.773438 -44.628906 34.289062 -44.453125 34.9375 -44.453125 C 36.019531 -44.453125 36.898438 -44.753906 37.578125 -45.359375 C 38.253906 -45.972656 39.007812 -46.582031 39.84375 -47.1875 C 40.675781 -47.800781 41.832031 -48.109375 43.3125 -48.109375 C 44.59375 -48.109375 45.472656 -47.785156 45.953125 -47.140625 C 46.429688 -46.503906 46.671875 -45.644531 46.671875 -44.5625 C 46.671875 -42.757812 46.171875 -40.972656 45.171875 -39.203125 C 44.179688 -37.441406 43.140625 -35.148438 42.046875 -32.328125 C 40.453125 -28.804688 39.863281 -26.113281 40.28125 -24.25 C 40.695312 -22.382812 41.960938 -21.453125 44.078125 -21.453125 C 45.742188 -21.453125 47.1875 -21.882812 48.40625 -22.75 C 49.625 -23.625 50.710938 -24.832031 51.671875 -26.375 C 52.191406 -27.132812 52.851562 -27.398438 53.65625 -27.171875 C 54.457031 -26.953125 55.128906 -26.519531 55.671875 -25.875 C 56.210938 -25.238281 56.328125 -24.601562 56.015625 -23.96875 C 54.859375 -21.71875 53.617188 -19.226562 52.296875 -16.5 C 50.984375 -13.78125 49.523438 -11.164062 47.921875 -8.65625 C 46.316406 -6.15625 44.488281 -4.085938 42.4375 -2.453125 C 40.382812 -0.816406 38.007812 0 35.3125 0 C 31.976562 0 29.617188 -1.34375 28.234375 -4.03125 C 26.859375 -6.726562 26.460938 -10.066406 27.046875 -14.046875 L 26.65625 -14.046875 C 24.726562 -10.140625 22.351562 -6.820312 19.53125 -4.09375 C 16.707031 -1.363281 13.597656 0 10.203125 0 Z M 19.828125 -19.921875 C 21.492188 -19.921875 22.953125 -20.398438 24.203125 -21.359375 C 25.453125 -22.328125 26.429688 -23.5 27.140625 -24.875 C 27.847656 -26.257812 28.203125 -27.625 28.203125 -28.96875 C 28.203125 -30.570312 27.75 -31.820312 26.84375 -32.71875 C 25.945312 -33.613281 24.726562 -34.0625 23.1875 -34.0625 C 21.519531 -34.0625 20.078125 -33.613281 18.859375 -32.71875 C 17.640625 -31.820312 16.691406 -30.679688 16.015625 -29.296875 C 15.347656 -27.921875 15.015625 -26.523438 15.015625 -25.109375 C 15.015625 -23.515625 15.445312 -22.25 16.3125 -21.3125 C 17.175781 -20.382812 18.347656 -19.921875 19.828125 -19.921875 Z M 19.828125 -19.921875 "/></g></g></g><g fill="#38b6ff" fill-opacity="1"><g transform="translate(161.988224, 156.761218)"><g><path d="M 11.265625 0 C 7.472656 0 4.691406 -1.3125 2.921875 -3.9375 C 1.160156 -6.570312 0.28125 -9.816406 0.28125 -13.671875 C 0.28125 -17.253906 0.796875 -21.035156 1.828125 -25.015625 C 2.859375 -28.992188 4.414062 -32.734375 6.5 -36.234375 C 8.582031 -39.734375 11.175781 -42.585938 14.28125 -44.796875 C 17.394531 -47.003906 21.003906 -48.109375 25.109375 -48.109375 C 27.035156 -48.109375 28.53125 -47.882812 29.59375 -47.4375 C 30.65625 -46.988281 31.457031 -46.457031 32 -45.84375 C 32.539062 -45.238281 33.003906 -44.695312 33.390625 -44.21875 C 33.773438 -43.738281 34.289062 -43.5 34.9375 -43.5 C 35.445312 -43.5 35.863281 -44.078125 36.1875 -45.234375 C 36.507812 -46.390625 36.988281 -48.101562 37.625 -50.375 C 38.269531 -52.65625 39.265625 -55.429688 40.609375 -58.703125 C 41.828125 -61.648438 43.03125 -63.878906 44.21875 -65.390625 C 45.40625 -66.898438 46.539062 -67.910156 47.625 -68.421875 C 48.71875 -68.929688 49.75 -69.1875 50.71875 -69.1875 C 52.382812 -69.1875 53.488281 -68.367188 54.03125 -66.734375 C 54.582031 -65.097656 54.210938 -62.898438 52.921875 -60.140625 L 42.046875 -32.328125 C 40.453125 -28.804688 39.863281 -26.113281 40.28125 -24.25 C 40.695312 -22.382812 41.960938 -21.453125 44.078125 -21.453125 C 45.742188 -21.453125 47.1875 -21.882812 48.40625 -22.75 C 49.625 -23.625 50.710938 -24.832031 51.671875 -26.375 C 52.191406 -27.132812 52.851562 -27.398438 53.65625 -27.171875 C 54.457031 -26.953125 55.128906 -26.519531 55.671875 -25.875 C 56.210938 -25.238281 56.328125 -24.601562 56.015625 -23.96875 C 54.859375 -21.71875 53.617188 -19.226562 52.296875 -16.5 C 50.984375 -13.78125 49.523438 -11.164062 47.921875 -8.65625 C 46.316406 -6.15625 44.488281 -4.085938 42.4375 -2.453125 C 40.382812 -0.816406 38.007812 0 35.3125 0 C 32.238281 0 29.960938 -1.34375 28.484375 -4.03125 C 27.003906 -6.726562 26.523438 -10.066406 27.046875 -14.046875 L 26.65625 -14.046875 C 24.664062 -10.140625 22.335938 -6.820312 19.671875 -4.09375 C 17.015625 -1.363281 14.210938 0 11.265625 0 Z M 20.015625 -19.921875 C 21.617188 -19.921875 23.03125 -20.398438 24.25 -21.359375 C 25.46875 -22.328125 26.429688 -23.5 27.140625 -24.875 C 27.847656 -26.257812 28.203125 -27.625 28.203125 -28.96875 C 28.203125 -30.375 27.78125 -31.570312 26.9375 -32.5625 C 26.101562 -33.5625 24.757812 -34.0625 22.90625 -34.0625 C 21.363281 -34.0625 20 -33.613281 18.8125 -32.71875 C 17.625 -31.820312 16.691406 -30.679688 16.015625 -29.296875 C 15.347656 -27.921875 15.015625 -26.523438 15.015625 -25.109375 C 15.015625 -23.703125 15.398438 -22.484375 16.171875 -21.453125 C 16.941406 -20.429688 18.222656 -19.921875 20.015625 -19.921875 Z M 20.015625 -19.921875 "/></g></g></g><g fill="#000624" fill-opacity="1"><g transform="translate(107.472647, 263.219999)"><g><path d="M 17.6875 -34.765625 C 14.90625 -34.765625 12.566406 -35.421875 10.671875 -36.734375 C 8.773438 -38.054688 7.351562 -39.800781 6.40625 -41.96875 C 5.457031 -44.144531 4.984375 -46.453125 4.984375 -48.890625 C 4.984375 -52.484375 5.847656 -56.039062 7.578125 -59.5625 C 9.304688 -63.082031 11.914062 -66.28125 15.40625 -69.15625 C 18.894531 -72.039062 23.3125 -74.347656 28.65625 -76.078125 C 34.007812 -77.804688 40.3125 -78.671875 47.5625 -78.671875 C 51.226562 -78.671875 54.378906 -78.601562 57.015625 -78.46875 C 59.660156 -78.332031 62.097656 -78.195312 64.328125 -78.0625 C 66.566406 -77.925781 68.84375 -77.859375 71.15625 -77.859375 C 74.8125 -77.859375 77.640625 -78.039062 79.640625 -78.40625 C 81.640625 -78.78125 83.28125 -78.96875 84.5625 -78.96875 C 86.125 -78.96875 87.175781 -78.613281 87.71875 -77.90625 C 88.257812 -77.195312 88.53125 -76.164062 88.53125 -74.8125 C 88.53125 -72.226562 87.898438 -69.785156 86.640625 -67.484375 C 85.390625 -65.179688 83.523438 -63.316406 81.046875 -61.890625 C 78.578125 -60.472656 75.515625 -59.765625 71.859375 -59.765625 C 69.421875 -59.765625 67.300781 -60.035156 65.5 -60.578125 C 63.707031 -61.117188 61.945312 -61.726562 60.21875 -62.40625 C 58.488281 -63.082031 56.539062 -63.691406 54.375 -64.234375 C 52.207031 -64.773438 49.53125 -65.046875 46.34375 -65.046875 C 42.34375 -65.046875 38.90625 -64.46875 36.03125 -63.3125 C 33.15625 -62.164062 30.953125 -60.660156 29.421875 -58.796875 C 27.898438 -56.929688 27.140625 -54.914062 27.140625 -52.75 C 27.140625 -51.394531 27.507812 -50.257812 28.25 -49.34375 C 29 -48.425781 29.914062 -47.96875 31 -47.96875 C 31.476562 -46.882812 31.515625 -45.582031 31.109375 -44.0625 C 30.703125 -42.539062 29.90625 -41.082031 28.71875 -39.6875 C 27.53125 -38.300781 26.003906 -37.132812 24.140625 -36.1875 C 22.273438 -35.238281 20.125 -34.765625 17.6875 -34.765625 Z M 14.640625 4.265625 C 9.960938 4.265625 6.164062 3.429688 3.25 1.765625 C 0.332031 0.109375 -1.78125 -2.035156 -3.09375 -4.671875 C -4.414062 -7.316406 -5.078125 -10.03125 -5.078125 -12.8125 C -5.078125 -15.582031 -4.519531 -18.238281 -3.40625 -20.78125 C -2.289062 -23.320312 -0.71875 -25.390625 1.3125 -26.984375 C 3.351562 -28.578125 5.726562 -29.375 8.4375 -29.375 C 9.445312 -29.375 9.953125 -28.96875 9.953125 -28.15625 C 9.953125 -25.914062 10.832031 -24.101562 12.59375 -22.71875 C 14.363281 -21.332031 16.703125 -20.640625 19.609375 -20.640625 C 21.710938 -20.640625 24 -21.226562 26.46875 -22.40625 C 28.945312 -23.59375 31.335938 -25.457031 33.640625 -28 C 35.941406 -30.539062 37.90625 -33.878906 39.53125 -38.015625 C 40.414062 -40.316406 41.316406 -42.703125 42.234375 -45.171875 C 43.148438 -47.648438 44.046875 -49.972656 44.921875 -52.140625 C 45.597656 -53.898438 46.492188 -55.148438 47.609375 -55.890625 C 48.734375 -56.640625 50.039062 -57.015625 51.53125 -57.015625 C 53.769531 -57.015625 55.242188 -56.523438 55.953125 -55.546875 C 56.660156 -54.566406 56.742188 -53.226562 56.203125 -51.53125 C 54.515625 -46.175781 52.851562 -41.144531 51.21875 -36.4375 C 49.59375 -31.726562 47.832031 -27.140625 45.9375 -22.671875 C 42.070312 -13.453125 37.476562 -6.65625 32.15625 -2.28125 C 26.84375 2.082031 21.003906 4.265625 14.640625 4.265625 Z M 14.640625 4.265625 "/></g></g></g><g fill="#000624" fill-opacity="1"><g transform="translate(160.72913, 263.219999)"><g><path d="M 42.484375 -27.84375 C 43.023438 -28.65625 43.734375 -28.941406 44.609375 -28.703125 C 45.492188 -28.472656 46.222656 -28.019531 46.796875 -27.34375 C 47.378906 -26.664062 47.46875 -25.988281 47.0625 -25.3125 C 46.382812 -24.226562 45.570312 -22.648438 44.625 -20.578125 C 43.675781 -18.515625 42.539062 -16.3125 41.21875 -13.96875 C 39.894531 -11.632812 38.351562 -9.398438 36.59375 -7.265625 C 34.832031 -5.128906 32.847656 -3.382812 30.640625 -2.03125 C 28.441406 -0.675781 25.953125 0 23.171875 0 C 20.390625 0 18.1875 -0.523438 16.5625 -1.578125 C 14.9375 -2.628906 13.769531 -3.984375 13.0625 -5.640625 C 12.351562 -7.296875 12 -8.972656 12 -10.671875 C 12 -13.046875 12.351562 -15.382812 13.0625 -17.6875 C 13.769531 -19.988281 14.597656 -22.1875 15.546875 -24.28125 C 16.492188 -26.382812 17.320312 -28.316406 18.03125 -30.078125 C 18.75 -31.847656 19.109375 -33.34375 19.109375 -34.5625 C 19.109375 -35.101562 18.71875 -35.894531 17.9375 -36.9375 C 17.15625 -37.988281 15.75 -38.890625 13.71875 -39.640625 C 13.113281 -38.285156 12.382812 -36.707031 11.53125 -34.90625 C 10.6875 -33.113281 9.835938 -31.351562 8.984375 -29.625 C 8.140625 -27.894531 7.445312 -26.457031 6.90625 -25.3125 C 6.5 -24.425781 5.835938 -24.101562 4.921875 -24.34375 C 4.015625 -24.582031 3.253906 -25.070312 2.640625 -25.8125 C 2.035156 -26.5625 1.9375 -27.238281 2.34375 -27.84375 C 3.289062 -29.195312 4.335938 -31.175781 5.484375 -33.78125 C 6.640625 -36.394531 7.65625 -38.859375 8.53125 -41.171875 C 7.519531 -41.503906 6.707031 -42.078125 6.09375 -42.890625 C 5.488281 -43.703125 5.1875 -45.023438 5.1875 -46.859375 C 5.1875 -48.273438 5.554688 -49.675781 6.296875 -51.0625 C 7.046875 -52.457031 8.097656 -53.628906 9.453125 -54.578125 C 10.804688 -55.523438 12.398438 -56 14.234375 -56 C 17.410156 -56 20.472656 -55.390625 23.421875 -54.171875 C 26.367188 -52.953125 28.789062 -51.410156 30.6875 -49.546875 C 32.59375 -47.679688 33.546875 -45.835938 33.546875 -44.015625 C 33.546875 -42.117188 33.1875 -40.320312 32.46875 -38.625 C 31.757812 -36.925781 31.03125 -35.195312 30.28125 -33.4375 C 29.539062 -31.675781 29.171875 -29.742188 29.171875 -27.640625 C 29.171875 -26.222656 29.644531 -25.039062 30.59375 -24.09375 C 31.539062 -23.144531 33.164062 -22.671875 35.46875 -22.671875 C 37.03125 -22.671875 38.335938 -23.160156 39.390625 -24.140625 C 40.441406 -25.117188 41.472656 -26.351562 42.484375 -27.84375 Z M 42.484375 -27.84375 "/></g></g></g><g fill="#000624" fill-opacity="1"><g transform="translate(200.874768, 263.219999)"><g><path d="M 20.4375 -54.984375 C 17.988281 -54.984375 15.882812 -55.507812 14.125 -56.5625 C 12.363281 -57.613281 11.484375 -59.492188 11.484375 -62.203125 C 11.484375 -65.796875 12.484375 -68.253906 14.484375 -69.578125 C 16.484375 -70.898438 18.875 -71.5625 21.65625 -71.5625 C 24.226562 -71.5625 26.410156 -70.984375 28.203125 -69.828125 C 30.003906 -68.671875 30.769531 -66.503906 30.5 -63.328125 C 30.21875 -60.203125 29.128906 -58.03125 27.234375 -56.8125 C 25.335938 -55.59375 23.070312 -54.984375 20.4375 -54.984375 Z M 9.140625 0 C 5.753906 0 3.347656 -1.234375 1.921875 -3.703125 C 0.503906 -6.179688 -0.203125 -9.179688 -0.203125 -12.703125 C -0.203125 -15.078125 0.03125 -17.582031 0.5 -20.21875 C 0.976562 -22.863281 1.59375 -25.40625 2.34375 -27.84375 C 4.707031 -35.226562 7.007812 -40.90625 9.25 -44.875 C 11.488281 -48.84375 14.0625 -50.828125 16.96875 -50.828125 C 19.28125 -50.828125 20.4375 -49.300781 20.4375 -46.25 C 20.4375 -44.21875 20.046875 -42.132812 19.265625 -40 C 18.484375 -37.863281 17.71875 -35.757812 16.96875 -33.6875 C 16.226562 -31.625 15.859375 -29.675781 15.859375 -27.84375 C 15.859375 -26.15625 16.28125 -24.882812 17.125 -24.03125 C 17.96875 -23.1875 19.070312 -22.765625 20.4375 -22.765625 C 21.988281 -22.765625 23.289062 -23.238281 24.34375 -24.1875 C 25.394531 -25.132812 26.425781 -26.351562 27.4375 -27.84375 C 27.976562 -28.65625 28.671875 -28.957031 29.515625 -28.75 C 30.367188 -28.550781 31.082031 -28.097656 31.65625 -27.390625 C 32.238281 -26.679688 32.359375 -26.019531 32.015625 -25.40625 C 31.335938 -24.320312 30.539062 -22.765625 29.625 -20.734375 C 28.707031 -18.703125 27.601562 -16.5 26.3125 -14.125 C 25.03125 -11.757812 23.554688 -9.507812 21.890625 -7.375 C 20.234375 -5.238281 18.351562 -3.472656 16.25 -2.078125 C 14.15625 -0.691406 11.785156 0 9.140625 0 Z M 9.140625 0 "/></g></g></g><g fill="#000624" fill-opacity="1"><g transform="translate(225.876862, 263.219999)"><g><path d="M 47.671875 -27.84375 C 48.078125 -28.457031 48.71875 -28.675781 49.59375 -28.5 C 50.476562 -28.332031 51.242188 -27.960938 51.890625 -27.390625 C 52.535156 -26.816406 52.65625 -26.125 52.25 -25.3125 C 51.300781 -23.28125 50.0625 -21.175781 48.53125 -19 C 47.007812 -16.832031 45.113281 -15.019531 42.84375 -13.5625 C 40.570312 -12.113281 37.773438 -11.390625 34.453125 -11.390625 C 32.691406 -11.390625 31.097656 -11.894531 29.671875 -12.90625 C 27.171875 -9.25 24.445312 -6.203125 21.5 -3.765625 C 18.550781 -1.328125 15.519531 -0.109375 12.40625 -0.109375 C 9.6875 -0.109375 7.460938 -0.953125 5.734375 -2.640625 C 4.015625 -4.335938 2.765625 -6.539062 1.984375 -9.25 C 1.203125 -11.957031 0.828125 -14.953125 0.859375 -18.234375 C 0.898438 -21.523438 1.328125 -24.726562 2.140625 -27.84375 C 2.742188 -30.488281 3.535156 -33.164062 4.515625 -35.875 C 5.503906 -38.582031 6.609375 -41.070312 7.828125 -43.34375 C 9.046875 -45.613281 10.316406 -47.425781 11.640625 -48.78125 C 12.960938 -50.144531 14.332031 -50.828125 15.75 -50.828125 C 16.769531 -50.828125 17.550781 -50.519531 18.09375 -49.90625 C 18.632812 -49.289062 18.90625 -48.238281 18.90625 -46.75 C 18.90625 -44.851562 18.515625 -42.785156 17.734375 -40.546875 C 16.953125 -38.316406 16.1875 -36.066406 15.4375 -33.796875 C 14.695312 -31.523438 14.328125 -29.375 14.328125 -27.34375 C 14.328125 -25.445312 14.800781 -23.921875 15.75 -22.765625 C 16.695312 -21.617188 18.222656 -21.046875 20.328125 -21.046875 C 22.492188 -21.046875 24.148438 -21.519531 25.296875 -22.46875 C 26.453125 -23.414062 27.269531 -24.257812 27.75 -25 C 27.40625 -26.5625 27.128906 -28.117188 26.921875 -29.671875 C 26.722656 -31.234375 26.625 -32.828125 26.625 -34.453125 C 26.625 -37.429688 26.976562 -40.175781 27.6875 -42.6875 C 28.40625 -45.195312 29.523438 -47.210938 31.046875 -48.734375 C 32.578125 -50.265625 34.492188 -51.03125 36.796875 -51.03125 C 39.640625 -51.03125 41.429688 -49.84375 42.171875 -47.46875 C 42.921875 -45.09375 42.753906 -41.835938 41.671875 -37.703125 C 40.585938 -33.578125 38.65625 -28.835938 35.875 -23.484375 C 36.894531 -23.078125 38.113281 -22.875 39.53125 -22.875 C 41.03125 -22.875 42.457031 -23.257812 43.8125 -24.03125 C 45.164062 -24.8125 46.453125 -26.082031 47.671875 -27.84375 Z M 47.671875 -27.84375 "/></g></g></g><g fill="#000624" fill-opacity="1"><g transform="translate(271.205851, 263.219999)"><g><path d="M 20.4375 -54.984375 C 17.988281 -54.984375 15.882812 -55.507812 14.125 -56.5625 C 12.363281 -57.613281 11.484375 -59.492188 11.484375 -62.203125 C 11.484375 -65.796875 12.484375 -68.253906 14.484375 -69.578125 C 16.484375 -70.898438 18.875 -71.5625 21.65625 -71.5625 C 24.226562 -71.5625 26.410156 -70.984375 28.203125 -69.828125 C 30.003906 -68.671875 30.769531 -66.503906 30.5 -63.328125 C 30.21875 -60.203125 29.128906 -58.03125 27.234375 -56.8125 C 25.335938 -55.59375 23.070312 -54.984375 20.4375 -54.984375 Z M 9.140625 0 C 5.753906 0 3.347656 -1.234375 1.921875 -3.703125 C 0.503906 -6.179688 -0.203125 -9.179688 -0.203125 -12.703125 C -0.203125 -15.078125 0.03125 -17.582031 0.5 -20.21875 C 0.976562 -22.863281 1.59375 -25.40625 2.34375 -27.84375 C 4.707031 -35.226562 7.007812 -40.90625 9.25 -44.875 C 11.488281 -48.84375 14.0625 -50.828125 16.96875 -50.828125 C 19.28125 -50.828125 20.4375 -49.300781 20.4375 -46.25 C 20.4375 -44.21875 20.046875 -42.132812 19.265625 -40 C 18.484375 -37.863281 17.71875 -35.757812 16.96875 -33.6875 C 16.226562 -31.625 15.859375 -29.675781 15.859375 -27.84375 C 15.859375 -26.15625 16.28125 -24.882812 17.125 -24.03125 C 17.96875 -23.1875 19.070312 -22.765625 20.4375 -22.765625 C 21.988281 -22.765625 23.289062 -23.238281 24.34375 -24.1875 C 25.394531 -25.132812 26.425781 -26.351562 27.4375 -27.84375 C 27.976562 -28.65625 28.671875 -28.957031 29.515625 -28.75 C 30.367188 -28.550781 31.082031 -28.097656 31.65625 -27.390625 C 32.238281 -26.679688 32.359375 -26.019531 32.015625 -25.40625 C 31.335938 -24.320312 30.539062 -22.765625 29.625 -20.734375 C 28.707031 -18.703125 27.601562 -16.5 26.3125 -14.125 C 25.03125 -11.757812 23.554688 -9.507812 21.890625 -7.375 C 20.234375 -5.238281 18.351562 -3.472656 16.25 -2.078125 C 14.15625 -0.691406 11.785156 0 9.140625 0 Z M 9.140625 0 "/></g></g></g><g fill="#000624" fill-opacity="1"><g transform="translate(296.207945, 263.219999)"><g><path d="M 10.78125 0 C 7.320312 0 4.710938 -1.421875 2.953125 -4.265625 C 1.191406 -7.109375 0.3125 -10.800781 0.3125 -15.34375 C 0.3125 -18.1875 0.664062 -21.21875 1.375 -24.4375 C 2.082031 -27.65625 3.128906 -30.820312 4.515625 -33.9375 C 5.910156 -37.0625 7.65625 -39.894531 9.75 -42.4375 C 11.851562 -44.976562 14.296875 -47.007812 17.078125 -48.53125 C 19.859375 -50.0625 23.007812 -50.828125 26.53125 -50.828125 C 28.5625 -50.828125 30.132812 -50.640625 31.25 -50.265625 C 32.375 -49.890625 33.222656 -49.429688 33.796875 -48.890625 C 34.367188 -48.347656 34.859375 -47.890625 35.265625 -47.515625 C 35.671875 -47.140625 36.210938 -46.953125 36.890625 -46.953125 C 38.046875 -46.953125 38.976562 -47.273438 39.6875 -47.921875 C 40.40625 -48.566406 41.203125 -49.210938 42.078125 -49.859375 C 42.960938 -50.503906 44.179688 -50.828125 45.734375 -50.828125 C 47.085938 -50.828125 48.019531 -50.484375 48.53125 -49.796875 C 49.039062 -49.117188 49.296875 -48.207031 49.296875 -47.0625 C 49.296875 -45.164062 48.769531 -43.285156 47.71875 -41.421875 C 46.664062 -39.554688 45.566406 -37.132812 44.421875 -34.15625 C 42.722656 -30.425781 42.09375 -27.578125 42.53125 -25.609375 C 42.976562 -23.648438 44.316406 -22.671875 46.546875 -22.671875 C 48.304688 -22.671875 49.832031 -23.125 51.125 -24.03125 C 52.414062 -24.945312 53.566406 -26.21875 54.578125 -27.84375 C 55.117188 -28.65625 55.8125 -28.941406 56.65625 -28.703125 C 57.507812 -28.472656 58.222656 -28.019531 58.796875 -27.34375 C 59.367188 -26.664062 59.488281 -25.988281 59.15625 -25.3125 C 57.9375 -22.9375 56.628906 -20.304688 55.234375 -17.421875 C 53.847656 -14.546875 52.304688 -11.785156 50.609375 -9.140625 C 48.921875 -6.503906 46.992188 -4.320312 44.828125 -2.59375 C 42.660156 -0.863281 40.148438 0 37.296875 0 C 33.773438 0 31.285156 -1.421875 29.828125 -4.265625 C 28.367188 -7.109375 27.945312 -10.632812 28.5625 -14.84375 L 28.15625 -14.84375 C 26.125 -10.707031 23.613281 -7.195312 20.625 -4.3125 C 17.644531 -1.4375 14.363281 0 10.78125 0 Z M 20.9375 -21.046875 C 22.695312 -21.046875 24.238281 -21.550781 25.5625 -22.5625 C 26.882812 -23.582031 27.914062 -24.816406 28.65625 -26.265625 C 29.40625 -27.722656 29.78125 -29.164062 29.78125 -30.59375 C 29.78125 -32.289062 29.304688 -33.613281 28.359375 -34.5625 C 27.410156 -35.507812 26.125 -35.984375 24.5 -35.984375 C 22.738281 -35.984375 21.210938 -35.507812 19.921875 -34.5625 C 18.628906 -33.613281 17.628906 -32.410156 16.921875 -30.953125 C 16.210938 -29.492188 15.859375 -28.019531 15.859375 -26.53125 C 15.859375 -24.832031 16.3125 -23.492188 17.21875 -22.515625 C 18.132812 -21.535156 19.375 -21.046875 20.9375 -21.046875 Z M 20.9375 -21.046875 "/></g></g></g><path stroke-linecap="butt" transform="matrix(0.969689, 0, 0, 0.969689, 107.294741, 177.876096)" fill="none" stroke-linejoin="miter" d="M 21.900334 53.05632 C 19.185223 53.05632 16.901146 52.407755 15.044075 51.118682 C 13.187004 49.82558 11.797222 48.121587 10.874729 46.006701 C 9.956264 43.887786 9.493003 41.643993 9.493003 39.271293 C 9.493003 35.766625 10.334929 32.290155 12.014753 28.849941 C 13.71069 25.409727 16.25661 22.283724 19.648484 19.475961 C 23.056471 16.66417 27.374867 14.420377 32.607698 12.740553 C 37.84053 11.044616 43.995855 10.194633 51.069645 10.194633 C 54.638767 10.194633 57.716429 10.259087 60.302632 10.387994 C 62.884807 10.516902 65.269593 10.649837 67.448932 10.778745 C 69.628272 10.907652 71.843867 10.972106 74.08766 10.972106 C 77.656781 10.972106 80.420232 10.794858 82.373984 10.436335 C 84.327736 10.065726 85.935049 9.880422 87.195924 9.880422 C 88.714613 9.880422 89.737815 10.22686 90.273586 10.923766 C 90.805329 11.616642 91.0712 12.627759 91.0712 13.949059 C 91.0712 16.470809 90.458891 18.859623 89.230243 21.123558 C 88.001595 23.367351 86.17675 25.184139 83.755709 26.573921 C 81.346754 27.963703 78.361743 28.65658 74.792622 28.65658 C 72.399779 28.65658 70.325177 28.390709 68.564786 27.858966 C 66.820509 27.323195 65.100402 26.726998 63.404465 26.066348 C 61.724641 25.40167 59.827287 24.81353 57.708372 24.297901 C 55.593487 23.76213 52.983113 23.496258 49.885309 23.496258 C 45.973777 23.496258 42.61413 24.064256 39.806367 25.192195 C 36.994576 26.308049 34.847463 27.778399 33.361001 29.603243 C 31.874538 31.411974 31.129293 33.373782 31.129293 35.488668 C 31.129293 36.813997 31.495873 37.929851 32.220976 38.832202 C 32.950109 39.722468 33.836346 40.165587 34.887747 40.165587 C 35.355036 41.216988 35.387263 42.493976 34.984427 43.992524 C 34.593677 45.478986 33.820233 46.900995 32.656039 48.258551 C 31.495873 49.599992 30.001353 50.735988 28.176509 51.674595 C 26.367778 52.597088 24.273034 53.05632 21.900334 53.05632 Z M 18.919352 91.168578 C 14.34717 91.168578 10.641084 90.350822 7.797066 88.719338 C 4.957077 87.103968 2.890531 85.013253 1.597429 82.443163 C 0.304328 79.860988 -0.340209 77.210331 -0.340209 74.499249 C -0.340209 71.784138 0.207647 69.193906 1.307388 66.720497 C 2.386987 64.235003 3.92179 62.212769 5.907768 60.661853 C 7.897775 59.094823 10.214078 58.313322 12.860707 58.313322 C 13.847654 58.313322 14.339113 58.708101 14.339113 59.501687 C 14.339113 61.69714 15.197152 63.473644 16.909203 64.831199 C 18.637367 66.188754 20.9295 66.865518 23.789632 66.865518 C 25.840064 66.865518 28.071772 66.285435 30.476699 65.12124 C 32.89774 63.957046 35.234185 62.140258 37.477978 59.670877 C 39.7258 57.181355 41.639268 53.918388 43.222411 49.881977 C 44.092536 47.638184 44.974745 45.309795 45.860983 42.904868 C 46.751249 40.479799 47.621374 38.211836 48.479413 36.09695 C 49.140063 34.368786 50.022273 33.140138 51.117985 32.415034 C 52.217726 31.685902 53.494714 31.32335 54.94895 31.32335 C 57.128289 31.32335 58.566412 31.806753 59.259289 32.777586 C 59.956194 33.728278 60.036761 35.029436 59.50099 36.677033 C 57.853393 41.909865 56.229966 46.828485 54.63071 51.432894 C 53.051595 56.021189 51.331488 60.500718 49.470388 64.879539 C 45.707906 73.874854 41.224348 80.505524 36.023743 84.771551 C 30.839251 89.03355 25.13913 91.168578 18.919352 91.168578 Z M 98.104706 59.815898 C 98.636449 59.022312 99.329326 58.740328 100.187365 58.965916 C 101.041377 59.195532 101.754395 59.638651 102.318365 60.299301 C 102.882334 60.963979 102.962901 61.624629 102.560066 62.285279 C 101.899416 63.352793 101.10583 64.895653 100.187365 66.913858 C 99.264872 68.91595 98.161103 71.067091 96.868002 73.359224 C 95.5749 75.635244 94.064267 77.818612 92.336103 79.901271 C 90.624053 81.98393 88.694471 83.687924 86.547359 85.013253 C 84.396218 86.338581 81.96712 86.999231 79.25201 86.999231 C 76.540927 86.999231 74.38173 86.491659 72.782473 85.472485 C 71.19933 84.441226 70.063334 83.115898 69.366429 81.500528 C 68.673552 79.869045 68.327114 78.229504 68.327114 76.581908 C 68.327114 74.273661 68.673552 71.993612 69.366429 69.749819 C 70.063334 67.489913 70.869005 65.330715 71.791498 63.280283 C 72.726076 61.22985 73.543832 59.348609 74.236709 57.636559 C 74.933614 55.908395 75.280053 54.446102 75.280053 53.249681 C 75.280053 52.734052 74.901387 51.964636 74.140028 50.949491 C 73.382698 49.914204 72.009029 49.031995 70.023051 48.306891 C 69.422826 49.616106 68.713836 51.150909 67.892051 52.911299 C 67.066239 54.67169 66.236398 56.391797 65.394472 58.071621 C 64.572688 59.751445 63.899952 61.15734 63.384323 62.285279 C 62.981488 63.143319 62.324866 63.45753 61.422515 63.231942 C 60.532249 63.006355 59.791031 62.531009 59.190807 61.801877 C 58.610724 61.076773 58.514043 60.412095 58.900765 59.815898 C 59.839372 58.49057 60.862574 56.552931 61.978428 53.998955 C 63.110395 51.449007 64.10137 49.048108 64.95941 46.804315 C 63.972463 46.482046 63.182905 45.926134 62.582681 45.132548 C 61.986484 44.326877 61.688386 43.033775 61.688386 41.257271 C 61.688386 39.867489 62.050938 38.49382 62.776042 37.136265 C 63.505174 35.782738 64.528376 34.642714 65.853704 33.720221 C 67.179033 32.785643 68.729949 32.314325 70.506453 32.314325 C 73.624399 32.314325 76.621494 32.91455 79.493711 34.110971 C 82.369956 35.303364 84.738628 36.813997 86.595699 38.638841 C 88.45277 40.447572 89.379292 42.24019 89.379292 44.016694 C 89.379292 45.877793 89.032853 47.638184 88.339976 49.301894 C 87.643071 50.949491 86.934081 52.637371 86.204949 54.365535 C 85.479845 56.077586 85.117293 57.958827 85.117293 60.009259 C 85.117293 61.399041 85.576525 62.563236 86.499019 63.497814 C 87.417483 64.420307 89.008683 64.879539 91.26859 64.879539 C 92.787279 64.879539 94.056211 64.404193 95.075384 63.449474 C 96.106643 62.482669 97.11776 61.270134 98.104706 59.815898 Z M 115.760982 33.309329 C 113.388282 33.309329 111.333821 32.801756 109.605657 31.782583 C 107.893607 30.751324 107.039596 28.906338 107.039596 26.259709 C 107.039596 22.755041 108.014457 20.354142 109.972237 19.065069 C 111.925989 17.771967 114.250349 17.123402 116.949347 17.123402 C 119.467068 17.123402 121.602095 17.6914 123.346373 18.819339 C 125.106763 19.951307 125.856037 22.066193 125.598223 25.168025 C 125.324295 28.221518 124.256781 30.34446 122.39971 31.540881 C 120.558752 32.721189 118.347185 33.309329 115.760982 33.309329 Z M 104.763576 86.999231 C 101.452269 86.999231 99.09971 85.794753 97.709928 83.389826 C 96.320146 80.968785 95.627269 78.036143 95.627269 74.595929 C 95.627269 72.283654 95.852857 69.838443 96.304032 67.25224 C 96.77535 64.670065 97.371546 62.188599 98.100678 59.815898 C 100.425038 52.597088 102.676888 47.054073 104.860256 43.19491 C 107.039596 39.319633 109.54926 37.381995 112.393278 37.381995 C 114.637071 37.381995 115.760982 38.864429 115.760982 41.837354 C 115.760982 43.823333 115.382317 45.86168 114.620958 47.944339 C 113.863627 50.026998 113.12241 52.07743 112.393278 54.099664 C 111.668174 56.117869 111.301594 58.023281 111.301594 59.815898 C 111.301594 61.463495 111.716515 62.7002 112.538299 63.521984 C 113.364111 64.347796 114.435654 64.758689 115.760982 64.758689 C 117.295785 64.758689 118.572773 64.299456 119.587918 63.376963 C 120.607092 62.458498 121.618209 61.270134 122.617241 59.815898 C 123.153012 59.022312 123.829775 58.724214 124.651559 58.917575 C 125.477372 59.114965 126.170249 59.558084 126.738247 60.25096 C 127.302216 60.947866 127.41501 61.592402 127.076629 62.188599 C 126.41195 63.256113 125.638506 64.782859 124.74824 66.768837 C 123.862002 68.738702 122.786432 70.889843 121.529585 73.214204 C 120.26871 75.522451 118.822531 77.721932 117.191048 79.804591 C 115.575678 81.88725 113.742777 83.607357 111.692345 84.964912 C 109.637884 86.322468 107.329637 86.999231 104.763576 86.999231 Z M 166.776057 59.815898 C 167.178893 59.219702 167.811344 58.998142 168.665355 59.163305 C 169.523395 59.324439 170.264612 59.686991 170.893035 60.25096 C 171.525487 60.818958 171.638281 61.495722 171.235445 62.285279 C 170.312952 64.275286 169.108474 66.325718 167.622012 68.440604 C 166.139577 70.55549 164.278478 72.323937 162.050798 73.745946 C 159.839232 75.167955 157.116064 75.880974 153.885325 75.880974 C 152.157161 75.880974 150.598188 75.385486 149.208406 74.402568 C 146.755138 77.97169 144.088368 80.952672 141.216151 83.341486 C 138.339906 85.714186 135.383095 86.902551 132.345716 86.902551 C 129.699087 86.902551 127.527804 86.080766 125.827839 84.43317 C 124.148015 82.769459 122.931452 80.610262 122.170093 77.963633 C 121.412763 75.312976 121.050211 72.388391 121.082438 69.193906 C 121.114665 65.97928 121.525557 62.853277 122.315114 59.815898 C 122.915339 57.229695 123.688783 54.615293 124.643503 51.964636 C 125.610308 49.318008 126.685878 46.884882 127.866186 44.673315 C 129.058579 42.461749 130.30334 40.689273 131.596442 39.367973 C 132.889543 38.042645 134.230985 37.381995 135.616739 37.381995 C 136.603686 37.381995 137.361016 37.680093 137.896787 38.276289 C 138.42853 38.872486 138.694402 39.899716 138.694402 41.353952 C 138.694402 43.211023 138.315736 45.229228 137.558406 47.412596 C 136.797047 49.591936 136.05583 51.787389 135.326698 53.998955 C 134.601594 56.21455 134.239042 58.313322 134.239042 60.299301 C 134.239042 62.156372 134.698274 63.650891 135.616739 64.782859 C 136.539232 65.898713 138.025695 66.454626 140.076127 66.454626 C 142.191013 66.454626 143.814439 65.995393 144.946407 65.0729 C 146.078374 64.138322 146.867932 63.304453 147.319107 62.579349 C 146.996839 61.06066 146.730968 59.54197 146.521493 58.023281 C 146.328132 56.504591 146.231452 54.945618 146.231452 53.346362 C 146.231452 50.43789 146.57789 47.767091 147.270767 45.325909 C 147.967672 42.872641 149.055328 40.902776 150.541791 39.416313 C 152.028253 37.929851 153.901438 37.184605 156.165373 37.184605 C 158.940909 37.184605 160.693243 38.3488 161.422375 40.67316 C 162.147479 42.985435 161.978288 46.159778 160.910774 50.196189 C 159.863402 54.220514 157.982161 58.845065 155.26705 64.077897 C 156.253997 64.468647 157.438333 64.662008 158.828115 64.662008 C 160.282351 64.662008 161.672133 64.283343 162.997461 63.521984 C 164.32279 62.764653 165.579636 61.527949 166.776057 59.815898 Z M 184.432333 33.309329 C 182.055604 33.309329 180.005172 32.801756 178.277008 31.782583 C 176.564958 30.751324 175.710947 28.906338 175.710947 26.259709 C 175.710947 22.755041 176.685808 20.354142 178.63956 19.065069 C 180.59734 17.771967 182.9217 17.123402 185.620697 17.123402 C 188.138419 17.123402 190.269418 17.6914 192.013695 18.819339 C 193.774086 19.951307 194.527388 22.066193 194.269574 25.168025 C 193.995645 28.221518 192.928132 30.34446 191.07106 31.540881 C 189.230103 32.721189 187.014508 33.309329 184.432333 33.309329 Z M 173.430898 86.999231 C 170.119591 86.999231 167.771061 85.794753 166.381279 83.389826 C 164.991497 80.968785 164.29862 78.036143 164.29862 74.595929 C 164.29862 72.283654 164.524207 69.838443 164.975383 67.25224 C 165.442672 64.670065 166.042897 62.188599 166.768001 59.815898 C 169.096389 52.597088 171.348239 47.054073 173.527579 43.19491 C 175.710947 39.319633 178.220611 37.381995 181.064629 37.381995 C 183.308422 37.381995 184.432333 38.864429 184.432333 41.837354 C 184.432333 43.823333 184.053668 45.86168 183.292309 47.944339 C 182.534978 50.026998 181.789733 52.07743 181.064629 54.099664 C 180.335497 56.117869 179.972945 58.023281 179.972945 59.815898 C 179.972945 61.463495 180.383837 62.7002 181.20965 63.521984 C 182.031434 64.347796 183.107005 64.758689 184.432333 64.758689 C 185.967136 64.758689 187.244124 64.299456 188.259269 63.376963 C 189.278443 62.458498 190.285531 61.270134 191.288592 59.815898 C 191.820334 59.022312 192.501126 58.724214 193.32291 58.917575 C 194.148723 59.114965 194.8416 59.558084 195.405569 60.25096 C 195.973567 60.947866 196.086361 61.592402 195.747979 62.188599 C 195.083301 63.256113 194.309857 64.782859 193.419591 66.768837 C 192.533353 68.738702 191.457782 70.889843 190.196908 73.214204 C 188.940061 75.522451 187.493882 77.721932 185.862399 79.804591 C 184.247029 81.88725 182.414128 83.607357 180.359667 84.964912 C 178.309235 86.322468 176.000988 86.999231 173.430898 86.999231 Z M 199.41781 86.999231 C 196.042049 86.999231 193.492101 85.609449 191.763937 82.833913 C 190.051887 80.054349 189.193847 76.453 189.193847 72.025839 C 189.193847 69.23419 189.540286 66.269321 190.237191 63.135262 C 190.930068 59.985089 191.957298 56.891313 193.310825 53.853934 C 194.668381 50.820584 196.372374 48.057133 198.426835 45.56761 C 200.477267 43.082116 202.858024 41.096137 205.573135 39.609674 C 208.284217 38.123212 211.36188 37.381995 214.802094 37.381995 C 216.792101 37.381995 218.322875 37.567299 219.406503 37.937908 C 220.506243 38.292403 221.336084 38.735522 221.904082 39.271293 C 222.468052 39.803035 222.943397 40.254211 223.330119 40.62482 C 223.736983 40.983343 224.268726 41.160591 224.929376 41.160591 C 226.04523 41.160591 226.95161 40.846379 227.644487 40.213928 C 228.337363 39.585504 229.114836 38.953053 229.968847 38.32463 C 230.843 37.696206 232.039421 37.381995 233.55811 37.381995 C 234.87941 37.381995 235.793847 37.71232 236.293363 38.37297 C 236.792879 39.03362 237.046665 39.931943 237.046665 41.06391 C 237.046665 42.904868 236.527007 44.737769 235.495749 46.562613 C 234.476575 48.387458 233.401004 50.75613 232.273065 53.660573 C 230.625469 57.294149 230.00913 60.073713 230.432108 61.995238 C 230.86717 63.916763 232.176385 64.879539 234.355724 64.879539 C 236.067775 64.879539 237.554237 64.43642 238.815112 63.546154 C 240.071959 62.643803 241.203926 61.399041 242.206986 59.815898 C 242.722616 59.022312 243.391322 58.740328 244.217135 58.965916 C 245.055033 59.195532 245.751938 59.638651 246.299794 60.299301 C 246.867792 60.963979 246.988643 61.624629 246.662346 62.285279 C 245.469953 64.597554 244.192965 67.163616 242.83541 69.99152 C 241.477854 72.803312 239.967222 75.49828 238.303511 78.084484 C 236.655915 80.650545 234.774673 82.785573 232.659787 84.48151 C 230.544901 86.161333 228.095662 86.999231 225.320126 86.999231 C 221.879912 86.999231 219.446786 85.609449 218.024777 82.833913 C 216.602768 80.054349 216.191876 76.614134 216.792101 72.51327 L 216.401351 72.51327 C 214.415372 76.549681 211.962104 79.973782 209.037519 82.785573 C 206.129048 85.593336 202.922478 86.999231 199.41781 86.999231 Z M 209.351731 66.454626 C 211.063781 66.454626 212.566357 65.963166 213.859459 64.97622 C 215.152561 63.97316 216.159649 62.764653 216.888781 61.342644 C 217.613885 59.920635 217.976437 58.51474 217.976437 57.124958 C 217.976437 55.477361 217.509148 54.196344 216.570541 53.273851 C 215.652077 52.335245 214.399259 51.867956 212.816115 51.867956 C 211.104065 51.867956 209.617602 52.335245 208.356728 53.273851 C 207.099881 54.196344 206.120991 55.364567 205.428114 56.786576 C 204.731209 58.208585 204.38477 59.646707 204.38477 61.100943 C 204.38477 62.74854 204.827889 64.053727 205.718156 65.02456 C 206.620507 65.97928 207.833042 66.454626 209.351731 66.454626 Z M 209.351731 66.454626 " stroke="#000624" stroke-width="3.597707" stroke-opacity="1" stroke-miterlimit="4"/><g fill="#38b6ff" fill-opacity="1"><g transform="translate(111.779552, 262.239027)"><g><path d="M 16.75 -32.90625 C 14.113281 -32.90625 11.894531 -33.53125 10.09375 -34.78125 C 8.300781 -36.039062 6.957031 -37.695312 6.0625 -39.75 C 5.164062 -41.800781 4.71875 -43.976562 4.71875 -46.28125 C 4.71875 -49.6875 5.535156 -53.054688 7.171875 -56.390625 C 8.804688 -59.722656 11.273438 -62.753906 14.578125 -65.484375 C 17.878906 -68.210938 22.0625 -70.394531 27.125 -72.03125 C 32.195312 -73.664062 38.164062 -74.484375 45.03125 -74.484375 C 48.5 -74.484375 51.484375 -74.414062 53.984375 -74.28125 C 56.484375 -74.15625 58.789062 -74.03125 60.90625 -73.90625 C 63.03125 -73.78125 65.179688 -73.71875 67.359375 -73.71875 C 70.828125 -73.71875 73.503906 -73.894531 75.390625 -74.25 C 77.285156 -74.601562 78.84375 -74.78125 80.0625 -74.78125 C 81.539062 -74.78125 82.535156 -74.441406 83.046875 -73.765625 C 83.554688 -73.085938 83.8125 -72.109375 83.8125 -70.828125 C 83.8125 -68.390625 83.21875 -66.078125 82.03125 -63.890625 C 80.851562 -61.710938 79.09375 -59.945312 76.75 -58.59375 C 74.40625 -57.25 71.5 -56.578125 68.03125 -56.578125 C 65.726562 -56.578125 63.722656 -56.832031 62.015625 -57.34375 C 60.316406 -57.863281 58.648438 -58.441406 57.015625 -59.078125 C 55.378906 -59.722656 53.535156 -60.300781 51.484375 -60.8125 C 49.429688 -61.332031 46.898438 -61.59375 43.890625 -61.59375 C 40.097656 -61.59375 36.835938 -61.046875 34.109375 -59.953125 C 31.390625 -58.859375 29.304688 -57.429688 27.859375 -55.671875 C 26.410156 -53.910156 25.6875 -52.003906 25.6875 -49.953125 C 25.6875 -48.660156 26.039062 -47.582031 26.75 -46.71875 C 27.457031 -45.851562 28.320312 -45.421875 29.34375 -45.421875 C 29.800781 -44.398438 29.835938 -43.164062 29.453125 -41.71875 C 29.066406 -40.269531 28.3125 -38.890625 27.1875 -37.578125 C 26.0625 -36.265625 24.613281 -35.15625 22.84375 -34.25 C 21.082031 -33.351562 19.050781 -32.90625 16.75 -32.90625 Z M 13.859375 4.046875 C 9.429688 4.046875 5.835938 3.257812 3.078125 1.6875 C 0.316406 0.113281 -1.6875 -1.921875 -2.9375 -4.421875 C -4.1875 -6.929688 -4.8125 -9.5 -4.8125 -12.125 C -4.8125 -14.757812 -4.28125 -17.273438 -3.21875 -19.671875 C -2.164062 -22.078125 -0.675781 -24.035156 1.25 -25.546875 C 3.175781 -27.054688 5.421875 -27.8125 7.984375 -27.8125 C 8.953125 -27.8125 9.4375 -27.425781 9.4375 -26.65625 C 9.4375 -24.539062 10.269531 -22.820312 11.9375 -21.5 C 13.601562 -20.1875 15.816406 -19.53125 18.578125 -19.53125 C 20.566406 -19.53125 22.726562 -20.09375 25.0625 -21.21875 C 27.40625 -22.34375 29.664062 -24.109375 31.84375 -26.515625 C 34.03125 -28.921875 35.894531 -32.078125 37.4375 -35.984375 C 38.269531 -38.171875 39.117188 -40.429688 39.984375 -42.765625 C 40.847656 -45.109375 41.695312 -47.3125 42.53125 -49.375 C 43.175781 -51.039062 44.023438 -52.222656 45.078125 -52.921875 C 46.140625 -53.628906 47.378906 -53.984375 48.796875 -53.984375 C 50.910156 -53.984375 52.300781 -53.519531 52.96875 -52.59375 C 53.644531 -51.664062 53.726562 -50.398438 53.21875 -48.796875 C 51.613281 -43.722656 50.039062 -38.957031 48.5 -34.5 C 46.957031 -30.039062 45.289062 -25.691406 43.5 -21.453125 C 39.84375 -12.734375 35.492188 -6.300781 30.453125 -2.15625 C 25.421875 1.976562 19.890625 4.046875 13.859375 4.046875 Z M 13.859375 4.046875 "/></g></g></g><g fill="#38b6ff" fill-opacity="1"><g transform="translate(162.202204, 262.239027)"><g><path d="M 40.21875 -26.375 C 40.738281 -27.132812 41.414062 -27.398438 42.25 -27.171875 C 43.082031 -26.953125 43.769531 -26.519531 44.3125 -25.875 C 44.863281 -25.238281 44.945312 -24.601562 44.5625 -23.96875 C 43.914062 -22.9375 43.144531 -21.441406 42.25 -19.484375 C 41.351562 -17.523438 40.273438 -15.4375 39.015625 -13.21875 C 37.765625 -11.007812 36.304688 -8.894531 34.640625 -6.875 C 32.972656 -4.851562 31.097656 -3.203125 29.015625 -1.921875 C 26.929688 -0.640625 24.570312 0 21.9375 0 C 19.3125 0 17.226562 -0.492188 15.6875 -1.484375 C 14.144531 -2.484375 13.035156 -3.769531 12.359375 -5.34375 C 11.691406 -6.914062 11.359375 -8.503906 11.359375 -10.109375 C 11.359375 -12.347656 11.691406 -14.554688 12.359375 -16.734375 C 13.035156 -18.921875 13.820312 -21.007812 14.71875 -23 C 15.625 -24.988281 16.410156 -26.816406 17.078125 -28.484375 C 17.753906 -30.148438 18.09375 -31.5625 18.09375 -32.71875 C 18.09375 -33.226562 17.722656 -33.976562 16.984375 -34.96875 C 16.242188 -35.96875 14.910156 -36.820312 12.984375 -37.53125 C 12.410156 -36.25 11.722656 -34.753906 10.921875 -33.046875 C 10.117188 -31.347656 9.316406 -29.679688 8.515625 -28.046875 C 7.710938 -26.410156 7.054688 -25.050781 6.546875 -23.96875 C 6.160156 -23.132812 5.535156 -22.828125 4.671875 -23.046875 C 3.804688 -23.273438 3.082031 -23.738281 2.5 -24.4375 C 1.925781 -25.144531 1.832031 -25.789062 2.21875 -26.375 C 3.113281 -27.65625 4.101562 -29.53125 5.1875 -32 C 6.28125 -34.46875 7.242188 -36.789062 8.078125 -38.96875 C 7.117188 -39.289062 6.347656 -39.835938 5.765625 -40.609375 C 5.191406 -41.378906 4.90625 -42.628906 4.90625 -44.359375 C 4.90625 -45.710938 5.257812 -47.046875 5.96875 -48.359375 C 6.675781 -49.671875 7.671875 -50.773438 8.953125 -51.671875 C 10.234375 -52.578125 11.738281 -53.03125 13.46875 -53.03125 C 16.488281 -53.03125 19.394531 -52.453125 22.1875 -51.296875 C 24.976562 -50.140625 27.269531 -48.675781 29.0625 -46.90625 C 30.851562 -45.144531 31.75 -43.398438 31.75 -41.671875 C 31.75 -39.867188 31.410156 -38.164062 30.734375 -36.5625 C 30.066406 -34.957031 29.378906 -33.320312 28.671875 -31.65625 C 27.972656 -29.988281 27.625 -28.160156 27.625 -26.171875 C 27.625 -24.828125 28.070312 -23.703125 28.96875 -22.796875 C 29.863281 -21.898438 31.398438 -21.453125 33.578125 -21.453125 C 35.054688 -21.453125 36.289062 -21.914062 37.28125 -22.84375 C 38.28125 -23.78125 39.257812 -24.957031 40.21875 -26.375 Z M 40.21875 -26.375 "/></g></g></g><g fill="#38b6ff" fill-opacity="1"><g transform="translate(200.211651, 262.239027)"><g><path d="M 19.34375 -52.0625 C 17.03125 -52.0625 15.039062 -52.554688 13.375 -53.546875 C 11.707031 -54.546875 10.875 -56.328125 10.875 -58.890625 C 10.875 -62.296875 11.816406 -64.625 13.703125 -65.875 C 15.597656 -67.125 17.863281 -67.75 20.5 -67.75 C 22.9375 -67.75 25.003906 -67.203125 26.703125 -66.109375 C 28.398438 -65.023438 29.125 -62.972656 28.875 -59.953125 C 28.613281 -57.003906 27.582031 -54.953125 25.78125 -53.796875 C 23.988281 -52.640625 21.84375 -52.0625 19.34375 -52.0625 Z M 8.65625 0 C 5.445312 0 3.171875 -1.171875 1.828125 -3.515625 C 0.484375 -5.859375 -0.1875 -8.695312 -0.1875 -12.03125 C -0.1875 -14.269531 0.0351562 -16.640625 0.484375 -19.140625 C 0.929688 -21.648438 1.507812 -24.0625 2.21875 -26.375 C 4.457031 -33.363281 6.632812 -38.734375 8.75 -42.484375 C 10.875 -46.234375 13.316406 -48.109375 16.078125 -48.109375 C 18.253906 -48.109375 19.34375 -46.664062 19.34375 -43.78125 C 19.34375 -41.863281 18.972656 -39.894531 18.234375 -37.875 C 17.492188 -35.851562 16.769531 -33.863281 16.0625 -31.90625 C 15.363281 -29.945312 15.015625 -28.101562 15.015625 -26.375 C 15.015625 -24.769531 15.414062 -23.566406 16.21875 -22.765625 C 17.019531 -21.960938 18.0625 -21.5625 19.34375 -21.5625 C 20.820312 -21.5625 22.054688 -22.007812 23.046875 -22.90625 C 24.046875 -23.800781 25.023438 -24.957031 25.984375 -26.375 C 26.492188 -27.132812 27.148438 -27.421875 27.953125 -27.234375 C 28.753906 -27.046875 29.425781 -26.613281 29.96875 -25.9375 C 30.519531 -25.257812 30.632812 -24.632812 30.3125 -24.0625 C 29.664062 -23.03125 28.910156 -21.550781 28.046875 -19.625 C 27.179688 -17.707031 26.140625 -15.625 24.921875 -13.375 C 23.703125 -11.132812 22.304688 -9.003906 20.734375 -6.984375 C 19.160156 -4.960938 17.378906 -3.289062 15.390625 -1.96875 C 13.410156 -0.65625 11.164062 0 8.65625 0 Z M 8.65625 0 "/></g></g></g><g fill="#38b6ff" fill-opacity="1"><g transform="translate(223.883358, 262.239027)"><g><path d="M 45.140625 -26.375 C 45.523438 -26.945312 46.132812 -27.148438 46.96875 -26.984375 C 47.800781 -26.828125 48.519531 -26.472656 49.125 -25.921875 C 49.738281 -25.378906 49.851562 -24.726562 49.46875 -23.96875 C 48.5625 -22.039062 47.382812 -20.050781 45.9375 -18 C 44.5 -15.945312 42.707031 -14.226562 40.5625 -12.84375 C 38.414062 -11.46875 35.769531 -10.78125 32.625 -10.78125 C 30.957031 -10.78125 29.445312 -11.257812 28.09375 -12.21875 C 25.726562 -8.757812 23.148438 -5.875 20.359375 -3.5625 C 17.566406 -1.25 14.691406 -0.09375 11.734375 -0.09375 C 9.171875 -0.09375 7.070312 -0.894531 5.4375 -2.5 C 3.800781 -4.101562 2.613281 -6.1875 1.875 -8.75 C 1.132812 -11.320312 0.78125 -14.160156 0.8125 -17.265625 C 0.84375 -20.378906 1.242188 -23.414062 2.015625 -26.375 C 2.597656 -28.875 3.351562 -31.40625 4.28125 -33.96875 C 5.207031 -36.53125 6.25 -38.882812 7.40625 -41.03125 C 8.5625 -43.1875 9.765625 -44.90625 11.015625 -46.1875 C 12.265625 -47.46875 13.566406 -48.109375 14.921875 -48.109375 C 15.878906 -48.109375 16.613281 -47.820312 17.125 -47.25 C 17.644531 -46.675781 17.90625 -45.679688 17.90625 -44.265625 C 17.90625 -42.472656 17.535156 -40.515625 16.796875 -38.390625 C 16.054688 -36.273438 15.332031 -34.144531 14.625 -32 C 13.914062 -29.851562 13.5625 -27.816406 13.5625 -25.890625 C 13.5625 -24.085938 14.007812 -22.640625 14.90625 -21.546875 C 15.8125 -20.460938 17.257812 -19.921875 19.25 -19.921875 C 21.300781 -19.921875 22.867188 -20.367188 23.953125 -21.265625 C 25.046875 -22.160156 25.816406 -22.960938 26.265625 -23.671875 C 25.953125 -25.148438 25.695312 -26.625 25.5 -28.09375 C 25.3125 -29.570312 25.21875 -31.082031 25.21875 -32.625 C 25.21875 -35.445312 25.550781 -38.046875 26.21875 -40.421875 C 26.894531 -42.796875 27.953125 -44.703125 29.390625 -46.140625 C 30.835938 -47.585938 32.65625 -48.3125 34.84375 -48.3125 C 37.53125 -48.3125 39.226562 -47.1875 39.9375 -44.9375 C 40.644531 -42.695312 40.484375 -39.617188 39.453125 -35.703125 C 38.429688 -31.785156 36.601562 -27.296875 33.96875 -22.234375 C 34.9375 -21.847656 36.09375 -21.65625 37.4375 -21.65625 C 38.84375 -21.65625 40.1875 -22.019531 41.46875 -22.75 C 42.757812 -23.488281 43.984375 -24.695312 45.140625 -26.375 Z M 45.140625 -26.375 "/></g></g></g><g fill="#38b6ff" fill-opacity="1"><g transform="translate(266.800346, 262.239027)"><g><path d="M 19.34375 -52.0625 C 17.03125 -52.0625 15.039062 -52.554688 13.375 -53.546875 C 11.707031 -54.546875 10.875 -56.328125 10.875 -58.890625 C 10.875 -62.296875 11.816406 -64.625 13.703125 -65.875 C 15.597656 -67.125 17.863281 -67.75 20.5 -67.75 C 22.9375 -67.75 25.003906 -67.203125 26.703125 -66.109375 C 28.398438 -65.023438 29.125 -62.972656 28.875 -59.953125 C 28.613281 -57.003906 27.582031 -54.953125 25.78125 -53.796875 C 23.988281 -52.640625 21.84375 -52.0625 19.34375 -52.0625 Z M 8.65625 0 C 5.445312 0 3.171875 -1.171875 1.828125 -3.515625 C 0.484375 -5.859375 -0.1875 -8.695312 -0.1875 -12.03125 C -0.1875 -14.269531 0.0351562 -16.640625 0.484375 -19.140625 C 0.929688 -21.648438 1.507812 -24.0625 2.21875 -26.375 C 4.457031 -33.363281 6.632812 -38.734375 8.75 -42.484375 C 10.875 -46.234375 13.316406 -48.109375 16.078125 -48.109375 C 18.253906 -48.109375 19.34375 -46.664062 19.34375 -43.78125 C 19.34375 -41.863281 18.972656 -39.894531 18.234375 -37.875 C 17.492188 -35.851562 16.769531 -33.863281 16.0625 -31.90625 C 15.363281 -29.945312 15.015625 -28.101562 15.015625 -26.375 C 15.015625 -24.769531 15.414062 -23.566406 16.21875 -22.765625 C 17.019531 -21.960938 18.0625 -21.5625 19.34375 -21.5625 C 20.820312 -21.5625 22.054688 -22.007812 23.046875 -22.90625 C 24.046875 -23.800781 25.023438 -24.957031 25.984375 -26.375 C 26.492188 -27.132812 27.148438 -27.421875 27.953125 -27.234375 C 28.753906 -27.046875 29.425781 -26.613281 29.96875 -25.9375 C 30.519531 -25.257812 30.632812 -24.632812 30.3125 -24.0625 C 29.664062 -23.03125 28.910156 -21.550781 28.046875 -19.625 C 27.179688 -17.707031 26.140625 -15.625 24.921875 -13.375 C 23.703125 -11.132812 22.304688 -9.003906 20.734375 -6.984375 C 19.160156 -4.960938 17.378906 -3.289062 15.390625 -1.96875 C 13.410156 -0.65625 11.164062 0 8.65625 0 Z M 8.65625 0 "/></g></g></g><g fill="#38b6ff" fill-opacity="1"><g transform="translate(290.472053, 262.239027)"><g><path d="M 10.203125 0 C 6.929688 0 4.457031 -1.34375 2.78125 -4.03125 C 1.113281 -6.726562 0.28125 -10.226562 0.28125 -14.53125 C 0.28125 -17.226562 0.617188 -20.097656 1.296875 -23.140625 C 1.972656 -26.191406 2.96875 -29.191406 4.28125 -32.140625 C 5.59375 -35.085938 7.242188 -37.765625 9.234375 -40.171875 C 11.222656 -42.578125 13.53125 -44.5 16.15625 -45.9375 C 18.789062 -47.382812 21.773438 -48.109375 25.109375 -48.109375 C 27.035156 -48.109375 28.53125 -47.929688 29.59375 -47.578125 C 30.65625 -47.234375 31.457031 -46.800781 32 -46.28125 C 32.539062 -45.769531 33.003906 -45.335938 33.390625 -44.984375 C 33.773438 -44.628906 34.289062 -44.453125 34.9375 -44.453125 C 36.019531 -44.453125 36.898438 -44.753906 37.578125 -45.359375 C 38.253906 -45.972656 39.007812 -46.582031 39.84375 -47.1875 C 40.675781 -47.800781 41.832031 -48.109375 43.3125 -48.109375 C 44.59375 -48.109375 45.472656 -47.785156 45.953125 -47.140625 C 46.429688 -46.503906 46.671875 -45.644531 46.671875 -44.5625 C 46.671875 -42.757812 46.171875 -40.972656 45.171875 -39.203125 C 44.179688 -37.441406 43.140625 -35.148438 42.046875 -32.328125 C 40.453125 -28.804688 39.863281 -26.113281 40.28125 -24.25 C 40.695312 -22.382812 41.960938 -21.453125 44.078125 -21.453125 C 45.742188 -21.453125 47.1875 -21.882812 48.40625 -22.75 C 49.625 -23.625 50.710938 -24.832031 51.671875 -26.375 C 52.191406 -27.132812 52.851562 -27.398438 53.65625 -27.171875 C 54.457031 -26.953125 55.128906 -26.519531 55.671875 -25.875 C 56.210938 -25.238281 56.328125 -24.601562 56.015625 -23.96875 C 54.859375 -21.71875 53.617188 -19.226562 52.296875 -16.5 C 50.984375 -13.78125 49.523438 -11.164062 47.921875 -8.65625 C 46.316406 -6.15625 44.488281 -4.085938 42.4375 -2.453125 C 40.382812 -0.816406 38.007812 0 35.3125 0 C 31.976562 0 29.617188 -1.34375 28.234375 -4.03125 C 26.859375 -6.726562 26.460938 -10.066406 27.046875 -14.046875 L 26.65625 -14.046875 C 24.726562 -10.140625 22.351562 -6.820312 19.53125 -4.09375 C 16.707031 -1.363281 13.597656 0 10.203125 0 Z M 19.828125 -19.921875 C 21.492188 -19.921875 22.953125 -20.398438 24.203125 -21.359375 C 25.453125 -22.328125 26.429688 -23.5 27.140625 -24.875 C 27.847656 -26.257812 28.203125 -27.625 28.203125 -28.96875 C 28.203125 -30.570312 27.75 -31.820312 26.84375 -32.71875 C 25.945312 -33.613281 24.726562 -34.0625 23.1875 -34.0625 C 21.519531 -34.0625 20.078125 -33.613281 18.859375 -32.71875 C 17.640625 -31.820312 16.691406 -30.679688 16.015625 -29.296875 C 15.347656 -27.921875 15.015625 -26.523438 15.015625 -25.109375 C 15.015625 -23.515625 15.445312 -22.25 16.3125 -21.3125 C 17.175781 -20.382812 18.347656 -19.921875 19.828125 -19.921875 Z M 19.828125 -19.921875 "/></g></g></g><g clip-path="url(#31168726f6)"><path fill="#000624" d="M 303.257812 180.027344 C 298.75 180.855469 298.078125 181.527344 297.246094 186.039062 C 296.414062 181.527344 295.742188 180.855469 291.234375 180.027344 C 295.742188 179.195312 296.414062 178.523438 297.246094 174.011719 C 298.078125 178.523438 298.75 179.195312 303.257812 180.027344 Z M 303.257812 180.027344 " fill-opacity="1" fill-rule="nonzero"/></g><g clip-path="url(#81a4e7f483)"><path fill="#000624" d="M 251.769531 160.925781 C 247.261719 161.757812 246.589844 162.429688 245.757812 166.9375 C 244.929688 162.429688 244.253906 161.757812 239.746094 160.925781 C 244.253906 160.097656 244.929688 159.421875 245.757812 154.914062 C 246.589844 159.421875 247.261719 160.097656 251.769531 160.925781 Z M 251.769531 160.925781 " fill-opacity="1" fill-rule="nonzero"/></g><g clip-path="url(#b987c7b9c0)"><path fill="#000624" d="M 273.679688 188.910156 C 267.027344 190.132812 266.035156 191.125 264.808594 197.78125 C 263.582031 191.125 262.589844 190.132812 255.933594 188.910156 C 262.589844 187.683594 263.582031 186.691406 264.808594 180.035156 C 266.035156 186.691406 267.027344 187.683594 273.679688 188.910156 Z M 273.679688 188.910156 " fill-opacity="1" fill-rule="nonzero"/></g><g clip-path="url(#ad8710c8bf)"><path fill="#000624" d="M 289.882812 147.542969 C 284.359375 148.558594 283.535156 149.382812 282.519531 154.90625 C 281.503906 149.382812 280.679688 148.558594 275.15625 147.542969 C 280.679688 146.527344 281.503906 145.703125 282.519531 140.179688 C 283.535156 145.703125 284.359375 146.527344 289.882812 147.542969 Z M 289.882812 147.542969 " fill-opacity="1" fill-rule="nonzero"/></g><g clip-path="url(#10e209af35)"><path fill="#000624" d="M 337.480469 154.902344 C 328.453125 156.566406 327.105469 157.914062 325.445312 166.9375 C 323.785156 157.914062 322.4375 156.566406 313.410156 154.902344 C 322.4375 153.242188 323.785156 151.894531 325.445312 142.867188 C 327.105469 151.894531 328.453125 153.242188 337.480469 154.902344 Z M 337.480469 154.902344 " fill-opacity="1" fill-rule="nonzero"/></g><g clip-path="url(#07ba6965c0)"><path fill="#000624" d="M 312.832031 128.449219 C 308.808594 129.191406 308.210938 129.792969 307.46875 133.8125 C 306.730469 129.792969 306.128906 129.191406 302.105469 128.449219 C 306.128906 127.710938 306.730469 127.109375 307.46875 123.085938 C 308.210938 127.109375 308.808594 127.710938 312.832031 128.449219 Z M 312.832031 128.449219 " fill-opacity="1" fill-rule="nonzero"/></g><g clip-path="url(#16cb38c090)"><path fill="#000624" d="M 312.832031 102.617188 C 308.808594 103.359375 308.210938 103.957031 307.46875 107.980469 C 306.730469 103.957031 306.128906 103.359375 302.105469 102.617188 C 306.128906 101.878906 306.730469 101.277344 307.46875 97.253906 C 308.210938 101.277344 308.808594 101.878906 312.832031 102.617188 Z M 312.832031 102.617188 " fill-opacity="1" fill-rule="nonzero"/></g><g clip-path="url(#e7853ee2a4)"><path fill="#000624" d="M 353.179688 97.246094 C 345.128906 98.726562 343.925781 99.929688 342.445312 107.980469 C 340.964844 99.929688 339.761719 98.726562 331.710938 97.246094 C 339.761719 95.761719 340.964844 94.5625 342.445312 86.511719 C 343.925781 94.5625 345.128906 95.761719 353.179688 97.246094 Z M 353.179688 97.246094 " fill-opacity="1" fill-rule="nonzero"/></g><g clip-path="url(#3c930a0650)"><path fill="#000624" d="M 247.34375 107.996094 C 236.03125 110.078125 234.34375 111.765625 232.261719 123.078125 C 230.179688 111.765625 228.488281 110.078125 217.175781 107.996094 C 228.488281 105.910156 230.179688 104.222656 232.261719 92.910156 C 234.34375 104.222656 236.03125 105.910156 247.34375 107.996094 Z M 247.34375 107.996094 " fill-opacity="1" fill-rule="nonzero"/></g><path stroke-linecap="butt" transform="matrix(0.699887, 0, 0, 0.699887, -49.54804, 166.566318)" fill="none" stroke-linejoin="miter" d="M 105.219565 63.866477 C 102.082898 63.866477 99.454125 63.308351 97.327665 62.186518 C 95.217949 61.070266 93.62729 59.557744 92.555688 57.648954 C 91.478505 55.734582 90.942704 53.613703 90.942704 51.291899 C 90.942704 49.47799 91.294323 47.770125 92.008725 46.157141 C 92.706382 44.532994 93.683102 43.199073 94.927723 42.149797 C 96.183507 41.094939 97.656959 40.564719 99.348081 40.564719 C 100.023413 40.564719 100.36387 40.838201 100.36387 41.385164 C 100.36387 43.076286 101.083852 44.460438 102.518236 45.537621 C 103.95262 46.603642 105.716298 47.139442 107.820432 47.139442 C 109.321791 47.139442 110.901287 46.737592 112.558921 45.939472 C 114.222137 45.13577 115.829539 43.874406 117.375548 42.149797 C 118.93272 40.419606 120.233153 38.181521 121.28243 35.446704 C 122.281475 32.857 123.314008 30.239389 124.380029 27.588291 C 125.45163 24.942774 126.350213 22.782827 127.086939 21.102868 C 124.938155 20.645204 122.940064 20.656367 121.098248 21.136355 C 119.262014 21.616344 117.78298 22.492601 116.661147 23.77071 C 115.550476 25.037656 114.992351 26.678546 114.992351 28.69338 C 114.992351 29.692426 115.243507 30.518452 115.740239 31.177041 C 116.242553 31.830048 116.862072 32.159342 117.593217 32.159342 C 117.905768 32.896069 117.922512 33.772326 117.643449 34.793697 C 117.375548 35.820649 116.845329 36.797369 116.041627 37.729439 C 115.25467 38.667091 114.227718 39.454048 112.971935 40.101474 C 111.727314 40.732157 110.281768 41.050289 108.635296 41.050289 C 106.771156 41.050289 105.19724 40.626113 103.919132 39.783343 C 102.646605 38.940573 101.69221 37.846646 101.050365 36.512725 C 100.414101 35.167641 100.095969 33.716514 100.095969 32.159342 C 100.095969 29.201275 100.698745 26.393902 101.898716 23.737222 C 103.109849 21.06938 104.845621 18.725251 107.10045 16.699254 C 109.36086 14.662095 112.045446 13.065854 115.159788 11.910534 C 118.285294 10.755213 121.756837 10.174762 125.585581 10.174762 C 130.318489 10.174762 133.276556 11.240783 134.459783 13.361661 C 135.648591 15.476958 135.581616 18.351307 134.258858 21.984707 C 133.845844 23.218165 133.343531 24.70278 132.757499 26.438552 C 132.165885 28.163161 131.529622 30.016139 130.837546 31.991905 C 130.162213 33.973252 129.486881 35.921111 128.81713 37.829902 C 128.164123 39.744274 127.583672 41.45772 127.086939 42.970242 C 124.580954 50.387735 121.572655 55.723419 118.062043 58.982875 C 114.557012 62.24233 110.276186 63.866477 105.219565 63.866477 Z M 163.906507 42.283747 C 164.174408 41.876315 164.604165 41.725621 165.190197 41.837246 C 165.792973 41.948871 166.306449 42.194447 166.741787 42.585135 C 167.177125 42.975823 167.255263 43.439068 166.9762 43.986031 C 166.339936 45.353439 165.51391 46.765498 164.492539 48.222207 C 163.465588 49.678915 162.187479 50.89563 160.652633 51.877932 C 159.128949 52.854652 157.253646 53.345803 155.015561 53.345803 L 154.200697 53.345803 C 152.520738 55.667607 150.505904 57.526166 148.161775 58.9159 C 145.817646 60.305633 143.361892 60.997709 140.805675 60.997709 C 137.758307 60.997709 135.235578 59.976339 133.231906 57.933598 C 131.233815 55.874113 130.229188 53.072321 130.229188 49.52264 C 130.229188 46.966423 130.698014 44.359975 131.630085 41.703296 C 132.567736 39.035454 133.873751 36.574119 135.55371 34.330452 C 137.23925 32.070042 139.220597 30.261714 141.486588 28.894306 C 143.769324 27.521316 146.275309 26.840402 149.010126 26.840402 C 150.879848 26.840402 152.565388 27.219928 154.066747 27.973398 C 155.568106 28.721287 156.762495 29.960326 157.649915 31.696098 C 158.542917 33.415126 158.983836 35.720186 158.983836 38.600116 C 158.983836 41.01122 158.648961 43.355349 157.968047 45.62134 L 158.436873 45.62134 C 159.435918 45.62134 160.390314 45.359021 161.30564 44.839964 C 162.215386 44.315325 163.086062 43.461393 163.906507 42.283747 Z M 144.706975 46.854798 C 145.839971 46.854798 146.844597 46.514341 147.709693 45.839009 C 148.580369 45.146933 149.261283 44.315325 149.763596 43.338605 C 150.260328 42.356303 150.511485 41.390745 150.511485 40.43635 C 150.511485 39.431723 150.215678 38.583372 149.629646 37.880133 C 149.038032 37.171313 148.083637 36.814113 146.760879 36.814113 C 145.672533 36.814113 144.701394 37.137826 143.858624 37.779671 C 143.010272 38.415934 142.351684 39.219635 141.871695 40.201937 C 141.397288 41.178658 141.157294 42.16654 141.157294 43.171167 C 141.157294 44.170212 141.430776 45.035308 141.972158 45.772034 C 142.519121 46.492016 143.428867 46.854798 144.706975 46.854798 Z M 166.981781 60.997709 C 165.017178 60.997709 163.633025 60.327958 162.829324 58.982875 C 162.042367 57.637791 161.646097 55.963413 161.646097 53.959741 C 161.646097 52.22397 161.863766 50.337504 162.299104 48.289182 C 162.728861 46.246441 163.286987 44.242769 163.96232 42.283747 C 166.289705 35.636467 168.254308 30.060789 169.867292 25.556713 C 171.491439 21.041474 173.054191 17.631324 174.55555 15.331846 C 176.056909 13.026786 177.720124 11.877046 179.545196 11.877046 C 180.957254 11.877046 181.833512 12.401684 182.17955 13.44538 C 182.525588 14.489075 182.190713 16.107641 181.180505 18.301076 C 179.952628 21.080543 178.613125 24.010704 177.156417 27.091559 C 175.699708 30.161252 174.650431 33.331407 174.008587 36.613187 C 173.874636 37.338751 174.064399 37.835483 174.589037 38.114546 C 175.113676 38.382447 175.699708 38.415934 176.358297 38.215009 C 177.022467 38.014083 177.496874 37.617814 177.775937 37.015038 C 179.187995 33.83372 180.734004 31.344479 182.413963 29.541732 C 184.105085 27.738985 186.175732 26.840402 188.631486 26.840402 C 190.679808 26.840402 192.192329 27.392947 193.16905 28.492455 C 194.151351 29.580801 194.636921 30.803096 194.636921 32.159342 C 194.636921 36.808531 191.818385 39.130335 186.181313 39.130335 C 185.037155 39.174985 184.205547 39.498698 183.680909 40.101474 C 183.156271 40.687507 182.893951 41.396327 182.893951 42.216772 C 182.893951 43.355349 183.452077 44.231606 184.562748 44.856707 C 185.684581 45.465065 187.180358 45.772034 189.05008 45.772034 C 191.053752 45.772034 192.850918 45.520877 194.435996 45.018564 C 196.026655 44.510669 197.260113 43.595343 198.125208 42.283747 C 198.672171 41.463302 199.224716 41.14517 199.794005 41.334933 C 200.368874 41.513533 200.815375 41.887477 201.127926 42.451185 C 201.451639 43.020473 201.479545 43.528368 201.211644 43.986031 C 200.753981 44.767407 200.195855 45.839009 199.526104 47.206418 C 198.867515 48.562664 198.074977 50.030535 197.142906 51.610031 C 196.205255 53.178365 195.12249 54.679724 193.889032 56.114107 C 192.666736 57.548491 191.26584 58.720556 189.686344 59.630301 C 188.11801 60.545627 186.376657 60.997709 184.462285 60.997709 C 182.095831 60.997709 180.348897 59.931689 179.227064 57.799648 C 178.116393 55.650863 177.240136 52.229551 176.609453 47.541293 C 176.475503 46.358066 176.051327 45.62134 175.342507 45.319952 C 174.639269 45.018564 173.969518 45.13577 173.322092 45.671571 C 172.685828 46.19621 172.373278 47.161767 172.373278 48.573826 L 172.373278 53.758816 C 172.373278 54.897393 172.233746 56.024807 171.954683 57.14664 C 171.686783 58.257311 171.162144 59.1838 170.386349 59.914945 C 169.621717 60.640509 168.48314 60.997709 166.981781 60.997709 Z M 209.399352 60.997709 C 206.664535 60.997709 204.415287 60.389352 202.657191 59.167056 C 200.915838 57.933598 199.620986 56.30387 198.772634 54.277873 C 197.929864 52.240713 197.516851 50.00821 197.539176 47.574781 C 197.561501 45.13577 197.985677 42.702341 198.806122 40.268912 C 199.626567 37.829902 200.815375 35.602979 202.361384 33.576982 C 203.907393 31.545404 205.782696 29.915676 207.998456 28.69338 C 210.208634 27.459922 212.703457 26.840402 215.488506 26.840402 C 217.620547 26.840402 219.3619 27.242253 220.706983 28.040373 C 222.052067 28.832912 223.03995 29.88777 223.676213 31.210528 C 224.312477 32.533287 224.625027 33.945345 224.625027 35.446704 C 224.625027 37.093176 224.172945 38.734066 223.257619 40.369375 C 222.359036 41.999103 221.086509 43.36093 219.440037 44.438113 C 217.804728 45.504133 215.868031 46.039934 213.635528 46.039934 C 212.681132 46.039934 211.743481 45.972959 210.833735 45.839009 C 209.918409 45.693896 209.08122 45.392508 208.316588 44.934845 C 208.082175 44.806476 207.825437 44.800895 207.546374 44.918101 C 207.278473 45.029726 207.144523 45.314371 207.144523 45.772034 C 207.144523 46.94968 207.84218 47.848262 209.231914 48.473363 C 210.621648 49.087302 212.296025 49.38869 214.249466 49.38869 C 216.576851 49.38869 218.976793 48.802658 221.454872 47.625012 C 223.938532 46.430623 225.947786 44.655782 227.493795 42.283747 C 227.862158 41.742365 228.342146 41.547021 228.928178 41.703296 C 229.530954 41.859571 230.022105 42.160959 230.396049 42.618622 C 230.786738 43.076286 230.848131 43.528368 230.580231 43.986031 C 227.566351 49.544965 224.273408 53.769979 220.690239 56.661071 C 217.118233 59.552163 213.356465 60.997709 209.399352 60.997709 Z M 211.866268 40.916338 C 213.177864 40.916338 214.204816 40.497744 214.952705 39.649392 C 215.706175 38.806622 216.0857 37.947108 216.0857 37.082013 C 216.0857 36.311799 215.823381 35.658792 215.304324 35.111829 C 214.779686 34.559284 213.998309 34.280221 212.949033 34.280221 C 211.626274 34.280221 210.576998 34.693234 209.795621 35.513679 C 209.030989 36.334124 208.645882 37.204801 208.645882 38.114546 C 208.645882 38.84011 208.908201 39.487536 209.432839 40.067987 C 209.951896 40.631694 210.76676 40.916338 211.866268 40.916338 Z M 211.866268 40.916338 " stroke="#bfbfbf" stroke-width="5.124352" stroke-opacity="1" stroke-miterlimit="4"/><g fill="#ff3131" fill-opacity="1"><g transform="translate(16.492845, 209.259416)"><g><path d="M 7.609375 2.015625 C 5.398438 2.015625 3.554688 1.625 2.078125 0.84375 C 0.597656 0.0625 -0.515625 -0.992188 -1.265625 -2.328125 C -2.015625 -3.671875 -2.390625 -5.160156 -2.390625 -6.796875 C -2.390625 -8.066406 -2.140625 -9.265625 -1.640625 -10.390625 C -1.148438 -11.523438 -0.46875 -12.457031 0.40625 -13.1875 C 1.28125 -13.925781 2.304688 -14.296875 3.484375 -14.296875 C 3.960938 -14.296875 4.203125 -14.101562 4.203125 -13.71875 C 4.203125 -12.539062 4.703125 -11.578125 5.703125 -10.828125 C 6.710938 -10.078125 7.953125 -9.703125 9.421875 -9.703125 C 10.472656 -9.703125 11.578125 -9.976562 12.734375 -10.53125 C 13.898438 -11.09375 15.023438 -11.976562 16.109375 -13.1875 C 17.191406 -14.40625 18.101562 -15.96875 18.84375 -17.875 C 19.539062 -19.695312 20.265625 -21.53125 21.015625 -23.375 C 21.765625 -25.226562 22.394531 -26.742188 22.90625 -27.921875 C 21.40625 -28.242188 20.007812 -28.234375 18.71875 -27.890625 C 17.425781 -27.554688 16.390625 -26.941406 15.609375 -26.046875 C 14.828125 -25.160156 14.4375 -24.015625 14.4375 -22.609375 C 14.4375 -21.910156 14.609375 -21.328125 14.953125 -20.859375 C 15.304688 -20.398438 15.738281 -20.171875 16.25 -20.171875 C 16.476562 -19.660156 16.492188 -19.046875 16.296875 -18.328125 C 16.109375 -17.617188 15.734375 -16.9375 15.171875 -16.28125 C 14.617188 -15.625 13.90625 -15.070312 13.03125 -14.625 C 12.15625 -14.1875 11.144531 -13.96875 10 -13.96875 C 8.6875 -13.96875 7.582031 -14.257812 6.6875 -14.84375 C 5.800781 -15.4375 5.132812 -16.203125 4.6875 -17.140625 C 4.238281 -18.078125 4.015625 -19.085938 4.015625 -20.171875 C 4.015625 -22.242188 4.4375 -24.210938 5.28125 -26.078125 C 6.125 -27.941406 7.332031 -29.582031 8.90625 -31 C 10.488281 -32.425781 12.367188 -33.546875 14.546875 -34.359375 C 16.734375 -35.171875 19.164062 -35.578125 21.84375 -35.578125 C 25.164062 -35.578125 27.238281 -34.832031 28.0625 -33.34375 C 28.894531 -31.863281 28.847656 -29.847656 27.921875 -27.296875 C 27.628906 -26.441406 27.273438 -25.40625 26.859375 -24.1875 C 26.453125 -22.976562 26.007812 -21.679688 25.53125 -20.296875 C 25.050781 -18.910156 24.578125 -17.546875 24.109375 -16.203125 C 23.648438 -14.867188 23.25 -13.675781 22.90625 -12.625 C 21.144531 -7.425781 19.035156 -3.6875 16.578125 -1.40625 C 14.128906 0.875 11.140625 2.015625 7.609375 2.015625 Z M 7.609375 2.015625 "/></g></g></g><g fill="#ff3131" fill-opacity="1"><g transform="translate(41.306726, 209.259416)"><g><path d="M 23.859375 -13.09375 C 24.046875 -13.382812 24.347656 -13.488281 24.765625 -13.40625 C 25.179688 -13.332031 25.539062 -13.160156 25.84375 -12.890625 C 26.144531 -12.617188 26.203125 -12.289062 26.015625 -11.90625 C 25.566406 -10.945312 24.984375 -9.957031 24.265625 -8.9375 C 23.546875 -7.914062 22.648438 -7.0625 21.578125 -6.375 C 20.515625 -5.695312 19.203125 -5.359375 17.640625 -5.359375 L 17.0625 -5.359375 C 15.882812 -3.734375 14.472656 -2.429688 12.828125 -1.453125 C 11.191406 -0.484375 9.484375 0 7.703125 0 C 5.566406 0 3.796875 -0.710938 2.390625 -2.140625 C 0.984375 -3.578125 0.28125 -5.539062 0.28125 -8.03125 C 0.28125 -9.8125 0.609375 -11.632812 1.265625 -13.5 C 1.921875 -15.363281 2.835938 -17.082031 4.015625 -18.65625 C 5.191406 -20.238281 6.578125 -21.507812 8.171875 -22.46875 C 9.765625 -23.425781 11.519531 -23.90625 13.4375 -23.90625 C 14.738281 -23.90625 15.914062 -23.640625 16.96875 -23.109375 C 18.019531 -22.585938 18.859375 -21.71875 19.484375 -20.5 C 20.109375 -19.289062 20.421875 -17.6875 20.421875 -15.6875 C 20.421875 -13.988281 20.179688 -12.34375 19.703125 -10.75 L 20.03125 -10.75 C 20.726562 -10.75 21.394531 -10.929688 22.03125 -11.296875 C 22.675781 -11.671875 23.285156 -12.269531 23.859375 -13.09375 Z M 10.421875 -9.890625 C 11.222656 -9.890625 11.925781 -10.128906 12.53125 -10.609375 C 13.132812 -11.085938 13.609375 -11.671875 13.953125 -12.359375 C 14.304688 -13.046875 14.484375 -13.722656 14.484375 -14.390625 C 14.484375 -15.085938 14.273438 -15.679688 13.859375 -16.171875 C 13.453125 -16.671875 12.785156 -16.921875 11.859375 -16.921875 C 11.085938 -16.921875 10.40625 -16.695312 9.8125 -16.25 C 9.226562 -15.8125 8.769531 -15.25 8.4375 -14.5625 C 8.101562 -13.875 7.9375 -13.179688 7.9375 -12.484375 C 7.9375 -11.773438 8.125 -11.164062 8.5 -10.65625 C 8.882812 -10.144531 9.523438 -9.890625 10.421875 -9.890625 Z M 10.421875 -9.890625 "/></g></g></g><g fill="#ff3131" fill-opacity="1"><g transform="translate(64.064743, 209.259416)"><g><path d="M 3.25 0 C 1.875 0 0.90625 -0.46875 0.34375 -1.40625 C -0.207031 -2.351562 -0.484375 -3.523438 -0.484375 -4.921875 C -0.484375 -6.128906 -0.328125 -7.453125 -0.015625 -8.890625 C 0.285156 -10.328125 0.671875 -11.726562 1.140625 -13.09375 C 2.765625 -17.75 4.144531 -21.65625 5.28125 -24.8125 C 6.414062 -27.96875 7.507812 -30.347656 8.5625 -31.953125 C 9.613281 -33.566406 10.773438 -34.375 12.046875 -34.375 C 13.035156 -34.375 13.648438 -34.003906 13.890625 -33.265625 C 14.128906 -32.535156 13.898438 -31.40625 13.203125 -29.875 C 12.335938 -27.9375 11.394531 -25.890625 10.375 -23.734375 C 9.351562 -21.585938 8.617188 -19.363281 8.171875 -17.0625 C 8.078125 -16.550781 8.210938 -16.203125 8.578125 -16.015625 C 8.941406 -15.828125 9.351562 -15.800781 9.8125 -15.9375 C 10.28125 -16.082031 10.613281 -16.363281 10.8125 -16.78125 C 11.789062 -19.007812 12.867188 -20.753906 14.046875 -22.015625 C 15.234375 -23.273438 16.6875 -23.90625 18.40625 -23.90625 C 19.84375 -23.90625 20.898438 -23.519531 21.578125 -22.75 C 22.265625 -21.988281 22.609375 -21.128906 22.609375 -20.171875 C 22.609375 -16.921875 20.632812 -15.296875 16.6875 -15.296875 C 15.882812 -15.265625 15.300781 -15.039062 14.9375 -14.625 C 14.570312 -14.21875 14.390625 -13.722656 14.390625 -13.140625 C 14.390625 -12.347656 14.78125 -11.734375 15.5625 -11.296875 C 16.34375 -10.867188 17.382812 -10.65625 18.6875 -10.65625 C 20.09375 -10.65625 21.351562 -10.832031 22.46875 -11.1875 C 23.582031 -11.539062 24.441406 -12.175781 25.046875 -13.09375 C 25.429688 -13.675781 25.820312 -13.898438 26.21875 -13.765625 C 26.625 -13.640625 26.9375 -13.378906 27.15625 -12.984375 C 27.375 -12.585938 27.390625 -12.226562 27.203125 -11.90625 C 26.890625 -11.363281 26.5 -10.613281 26.03125 -9.65625 C 25.570312 -8.695312 25.015625 -7.664062 24.359375 -6.5625 C 23.703125 -5.46875 22.941406 -4.414062 22.078125 -3.40625 C 21.222656 -2.40625 20.242188 -1.585938 19.140625 -0.953125 C 18.046875 -0.316406 16.828125 0 15.484375 0 C 13.828125 0 12.609375 -0.75 11.828125 -2.25 C 11.046875 -3.75 10.4375 -6.140625 10 -9.421875 C 9.894531 -10.242188 9.59375 -10.757812 9.09375 -10.96875 C 8.601562 -11.175781 8.132812 -11.097656 7.6875 -10.734375 C 7.25 -10.367188 7.03125 -9.691406 7.03125 -8.703125 L 7.03125 -5.0625 C 7.03125 -4.269531 6.929688 -3.484375 6.734375 -2.703125 C 6.546875 -1.921875 6.179688 -1.273438 5.640625 -0.765625 C 5.097656 -0.253906 4.300781 0 3.25 0 Z M 3.25 0 "/></g></g></g><g fill="#ff3131" fill-opacity="1"><g transform="translate(88.018033, 209.259416)"><g><path d="M 8.984375 0 C 7.078125 0 5.507812 -0.425781 4.28125 -1.28125 C 3.050781 -2.144531 2.140625 -3.285156 1.546875 -4.703125 C 0.960938 -6.128906 0.675781 -7.691406 0.6875 -9.390625 C 0.707031 -11.097656 1.003906 -12.800781 1.578125 -14.5 C 2.148438 -16.207031 2.976562 -17.769531 4.0625 -19.1875 C 5.144531 -20.613281 6.457031 -21.753906 8 -22.609375 C 9.550781 -23.472656 11.300781 -23.90625 13.25 -23.90625 C 14.738281 -23.90625 15.953125 -23.625 16.890625 -23.0625 C 17.835938 -22.507812 18.535156 -21.769531 18.984375 -20.84375 C 19.429688 -19.914062 19.65625 -18.925781 19.65625 -17.875 C 19.65625 -16.726562 19.332031 -15.582031 18.6875 -14.4375 C 18.050781 -13.289062 17.160156 -12.34375 16.015625 -11.59375 C 14.867188 -10.84375 13.515625 -10.46875 11.953125 -10.46875 C 11.285156 -10.46875 10.628906 -10.515625 9.984375 -10.609375 C 9.347656 -10.703125 8.757812 -10.910156 8.21875 -11.234375 C 8.0625 -11.328125 7.882812 -11.332031 7.6875 -11.25 C 7.5 -11.175781 7.40625 -10.976562 7.40625 -10.65625 C 7.40625 -9.832031 7.890625 -9.203125 8.859375 -8.765625 C 9.835938 -8.335938 11.015625 -8.125 12.390625 -8.125 C 14.015625 -8.125 15.691406 -8.535156 17.421875 -9.359375 C 19.160156 -10.191406 20.570312 -11.4375 21.65625 -13.09375 C 21.914062 -13.476562 22.25 -13.613281 22.65625 -13.5 C 23.070312 -13.394531 23.414062 -13.179688 23.6875 -12.859375 C 23.957031 -12.546875 24 -12.226562 23.8125 -11.90625 C 21.707031 -8.019531 19.398438 -5.0625 16.890625 -3.03125 C 14.390625 -1.007812 11.753906 0 8.984375 0 Z M 10.703125 -14.0625 C 11.628906 -14.0625 12.351562 -14.351562 12.875 -14.9375 C 13.40625 -15.53125 13.671875 -16.128906 13.671875 -16.734375 C 13.671875 -17.273438 13.488281 -17.734375 13.125 -18.109375 C 12.757812 -18.492188 12.207031 -18.6875 11.46875 -18.6875 C 10.550781 -18.6875 9.820312 -18.398438 9.28125 -17.828125 C 8.738281 -17.253906 8.46875 -16.648438 8.46875 -16.015625 C 8.46875 -15.503906 8.648438 -15.050781 9.015625 -14.65625 C 9.378906 -14.257812 9.941406 -14.0625 10.703125 -14.0625 Z M 10.703125 -14.0625 "/></g></g></g></svg>