<svg xmlns="http://www.w3.org/2000/svg" xmlns:xlink="http://www.w3.org/1999/xlink" width="500" zoomAndPan="magnify" viewBox="0 0 375 374.999991" height="500" preserveAspectRatio="xMidYMid meet" version="1.0"><defs><clipPath id="4ed9853f83"><path d="M 40 73.019531 L 330.75 73.019531 L 330.75 301.769531 L 40 301.769531 Z M 40 73.019531 " clip-rule="nonzero"/></clipPath></defs><path fill="#f04d53" d="M 308.53125 109.984375 C 306.882812 108.171875 293.164062 106.863281 281.089844 106.058594 L 302.679688 112.972656 C 301.773438 117.605469 286.4375 211.183594 290.371094 252.917969 C 289.699219 263.257812 291.75 271.851562 291.75 271.851562 C 291.75 271.851562 288.289062 276.25 283.949219 278.5 C 287.984375 278.9375 288.355469 279.238281 293.164062 277.964844 C 297.972656 276.6875 296.59375 272.894531 296.089844 270.476562 C 293.164062 254.5625 295.417969 216.554688 297.433594 192.75 C 299.453125 168.976562 307.757812 114.753906 308.53125 109.953125 Z M 308.53125 109.984375 " fill-opacity="1" fill-rule="nonzero"/><path fill="#f04d53" d="M 271.808594 98.570312 C 255.398438 93.867188 230.449219 91.453125 188.816406 91.585938 C 147.152344 91.71875 126.972656 97.765625 124.285156 99.273438 C 121.59375 100.785156 120.585938 105.554688 120.585938 105.554688 C 120.585938 105.554688 116.683594 125.394531 115.203125 146.179688 C 113.792969 165.550781 112.515625 228.238281 112.714844 243.851562 C 112.953125 259.429688 115.070312 289.175781 117.085938 289.949219 C 119.105469 290.722656 139.6875 293.980469 165.410156 297.234375 C 191.136719 300.492188 222.949219 301.734375 244.738281 299.484375 C 266.53125 297.234375 268.011719 294.113281 267.773438 292.199219 C 267.101562 278.300781 268.078125 232.367188 268.210938 223.402344 C 268.347656 214.4375 272.484375 141.410156 272.820312 132.210938 C 273.15625 123.011719 274.601562 99.675781 271.808594 98.570312 Z M 271.808594 98.570312 " fill-opacity="1" fill-rule="nonzero"/><path fill="#f58286" d="M 118.972656 162.765625 C 118.972656 162.765625 118.902344 162.765625 118.902344 162.765625 C 118.265625 162.730469 117.761719 162.160156 117.792969 161.523438 C 119.542969 135.167969 121.726562 116.097656 124.386719 104.847656 C 124.519531 104.210938 125.160156 103.839844 125.796875 103.976562 C 126.4375 104.109375 126.804688 104.746094 126.671875 105.386719 C 124.117188 116.332031 121.863281 135.804688 120.148438 161.65625 C 120.113281 162.261719 119.574219 162.765625 118.972656 162.765625 Z M 118.972656 162.765625 " fill-opacity="1" fill-rule="nonzero"/><path fill="#f58286" d="M 116.988281 203.390625 C 116.988281 203.390625 116.988281 203.390625 116.953125 203.390625 C 116.3125 203.390625 115.808594 202.820312 115.808594 202.183594 C 115.808594 202.082031 116.113281 192.078125 116.820312 178.34375 C 116.820312 177.707031 117.390625 177.203125 118.0625 177.238281 C 118.703125 177.238281 119.207031 177.808594 119.171875 178.480469 C 118.464844 192.179688 118.164062 202.148438 118.164062 202.25 C 118.164062 202.886719 117.625 203.390625 116.988281 203.390625 Z M 116.988281 203.390625 " fill-opacity="1" fill-rule="nonzero"/><path fill="#f58286" d="M 262.496094 251.035156 C 261.855469 251.035156 261.316406 250.5 261.351562 249.859375 C 261.585938 230.855469 262.226562 203.929688 263.941406 183.648438 C 264.007812 183.011719 264.546875 182.542969 265.21875 182.574219 C 265.859375 182.644531 266.328125 183.179688 266.296875 183.851562 C 264.613281 204.0625 263.941406 230.890625 263.707031 249.894531 C 263.707031 250.53125 263.167969 251.035156 262.527344 251.035156 Z M 262.496094 251.035156 " fill-opacity="1" fill-rule="nonzero"/><path fill="#f58286" d="M 262.394531 287.835938 C 261.753906 287.835938 261.21875 287.332031 261.21875 286.660156 C 261.21875 286.59375 261.148438 278.535156 261.21875 266.582031 C 261.21875 265.945312 261.753906 265.40625 262.394531 265.40625 C 263.03125 265.40625 263.570312 265.945312 263.570312 266.582031 C 263.539062 278.5 263.570312 286.558594 263.570312 286.625 C 263.570312 287.265625 263.066406 287.800781 262.394531 287.800781 Z M 262.394531 287.835938 " fill-opacity="1" fill-rule="nonzero"/><path fill="#ffffff" d="M 102.929688 116.566406 C 99.5 113.8125 97.113281 114.921875 93.246094 114.585938 C 93.109375 107.703125 92.910156 100.382812 94.1875 94.003906 C 95.464844 87.625 95.230469 79.128906 89.042969 76.074219 C 82.855469 73.019531 75.390625 76.34375 73.503906 85.273438 C 71.65625 94.203125 74.816406 111.363281 74.816406 111.363281 C 74.816406 111.363281 73.605469 112.066406 73.035156 112.738281 C 70.816406 110.457031 66.207031 99.609375 62.273438 89.570312 C 58.339844 79.53125 48.488281 81.277344 44.621094 87.757812 C 40.71875 94.203125 48.855469 107.703125 51.277344 111.664062 C 44.417969 111.328125 37.625 115.859375 44.25 136.207031 C 50.875 156.554688 67.183594 160.785156 67.183594 160.785156 C 67.183594 160.785156 65.433594 164.140625 68.460938 168.371094 C 71.691406 172.90625 82.652344 172.769531 91.226562 168.507812 C 99.804688 164.242188 95.230469 155.179688 95.230469 155.179688 C 95.230469 155.179688 102.023438 150.613281 106.394531 140.40625 C 112.3125 126.636719 106.796875 119.585938 102.964844 116.53125 Z M 102.929688 116.566406 " fill-opacity="1" fill-rule="nonzero"/><path fill="#ffffff" d="M 302.679688 112.972656 C 301.773438 112.871094 282.773438 106.59375 273.523438 103.539062 C 273.1875 113.8125 269.792969 196.242188 268.210938 247.578125 C 264.144531 241.769531 259.46875 241.835938 254.792969 245.730469 C 245.582031 241.398438 238.617188 239.25 230.917969 239.585938 C 220.425781 240.023438 216.625 248.550781 216.996094 253.085938 C 216.996094 253.085938 215.820312 253.488281 210.976562 254.59375 C 205.898438 255.738281 200.820312 259.53125 201.15625 265.945312 C 201.425781 271.011719 205.261719 273.328125 205.261719 273.328125 C 205.261719 273.328125 201.191406 277.359375 203.410156 282.699219 C 205.765625 288.339844 212.054688 290.519531 214.035156 290.6875 C 213.699219 292.433594 215.28125 299.25 225.738281 300.257812 C 236.164062 301.265625 262.496094 290.453125 265.621094 272.1875 C 266.226562 272.054688 266.898438 271.886719 267.539062 271.683594 C 267.304688 282.328125 267.304688 288.773438 267.640625 288.605469 C 277.292969 283.371094 292.492188 274 291.75 271.820312 C 286.503906 238.175781 292.1875 198.523438 293.398438 180.125 C 294.609375 161.726562 300.730469 121.5 302.679688 112.972656 Z M 302.679688 112.972656 " fill-opacity="1" fill-rule="nonzero"/><path fill="#ffffff" d="M 220.191406 203.054688 C 220.527344 202.957031 220.898438 202.886719 221.234375 202.789062 C 222.308594 194.160156 227.355469 147.722656 210.574219 146.214844 C 195.171875 144.835938 198.535156 192.714844 201.59375 206.144531 C 205.058594 206.078125 212.054688 205.339844 220.191406 203.054688 Z M 220.191406 203.054688 " fill-opacity="1" fill-rule="nonzero"/><path fill="#ffffff" d="M 170.320312 143.929688 C 153.507812 143.425781 152.933594 190.097656 152.96875 198.824219 C 153.304688 198.960938 153.640625 199.0625 153.976562 199.195312 C 161.777344 202.453125 168.640625 204.03125 172.070312 204.5 C 176.710938 191.539062 185.824219 144.398438 170.355469 143.929688 Z M 170.320312 143.929688 " fill-opacity="1" fill-rule="nonzero"/><path fill="#3e96c9" d="M 329.078125 138.457031 C 323.160156 132.917969 308.027344 119.65625 285.292969 123.917969 L 282.46875 157.898438 C 286.503906 156.789062 302.175781 153.800781 324.671875 164.546875 C 324.875 164.644531 325.078125 164.613281 325.246094 164.511719 C 325.414062 164.378906 325.515625 164.140625 325.445312 163.90625 C 323.765625 158.9375 314.25 147.21875 309.101562 143.695312 C 309.070312 143.660156 309.035156 143.59375 309.035156 143.5625 C 309.035156 143.492188 309.070312 143.425781 309.136719 143.394531 C 316.097656 140.40625 322.957031 138.894531 328.640625 139.398438 C 328.910156 139.398438 329.113281 139.261719 329.210938 139.09375 C 329.3125 138.894531 329.28125 138.660156 329.078125 138.457031 Z M 329.078125 138.457031 " fill-opacity="1" fill-rule="nonzero"/><g clip-path="url(#4ed9853f83)"><path fill="#4b260c" d="M 329.886719 137.585938 C 326.589844 134.527344 318.988281 127.410156 307.625 123.917969 C 308.835938 115.761719 309.675781 110.320312 309.707031 110.152344 L 309.808594 109.582031 L 309.441406 109.179688 C 308.800781 108.472656 307.253906 106.761719 284.453125 105.082031 C 283.410156 105.015625 282.367188 104.949219 281.359375 104.882812 C 279.007812 104.109375 276.652344 103.335938 274.398438 102.597656 C 274.03125 99.339844 273.355469 97.898438 272.28125 97.460938 L 272.179688 97.460938 C 254.894531 92.492188 228.394531 90.242188 188.851562 90.410156 C 146.511719 90.578125 126.4375 96.722656 123.746094 98.234375 C 120.6875 99.945312 119.574219 104.746094 119.476562 105.285156 C 119.441406 105.484375 115.539062 125.464844 114.0625 146.046875 C 113.421875 155.144531 112.75 174.484375 112.277344 193.890625 C 107.875 193.285156 102.863281 191.40625 99.433594 186.4375 C 95.96875 181.433594 93.785156 174.046875 92.671875 169.078125 C 94.894531 167.734375 96.40625 165.957031 97.144531 163.738281 C 98.257812 160.449219 97.3125 157.125 96.710938 155.546875 C 98.660156 154.003906 103.871094 149.300781 107.503906 140.875 C 113.691406 126.472656 107.804688 118.882812 103.738281 115.625 C 100.914062 113.375 98.625 113.410156 96.171875 113.445312 C 95.597656 113.445312 95.0625 113.445312 94.457031 113.445312 C 94.320312 106.894531 94.1875 100.113281 95.398438 94.203125 C 96.105469 90.710938 97.75 78.996094 89.613281 75 C 86.386719 73.386719 82.71875 73.355469 79.59375 74.898438 C 75.960938 76.679688 73.40625 80.269531 72.394531 85.039062 C 70.714844 93.128906 72.96875 107.300781 73.574219 110.789062 C 73.472656 110.859375 73.335938 110.957031 73.238281 111.027344 C 71.320312 108.136719 67.824219 100.382812 63.417969 89.136719 C 60.929688 82.824219 56.625 81.546875 54.269531 81.34375 C 50.167969 81.007812 46 83.292969 43.644531 87.152344 C 40.953125 91.652344 42.835938 99.507812 49.261719 110.523438 C 46.46875 110.789062 44.214844 111.964844 42.703125 113.980469 C 39.507812 118.175781 39.640625 125.765625 43.171875 136.578125 C 48.957031 154.304688 61.769531 160.148438 65.738281 161.558594 C 65.402344 163.101562 65.265625 165.886719 67.554688 169.078125 C 68.964844 171.058594 71.421875 172.199219 74.378906 172.671875 C 74.714844 172.738281 75.085938 172.769531 75.457031 172.804688 C 76.800781 178.847656 79.59375 188.652344 84.9375 196.410156 C 91.5625 205.976562 100.609375 209.804688 108.578125 211.082031 C 109.722656 211.25 110.832031 211.382812 111.910156 211.484375 C 111.640625 225.585938 111.503906 237.875 111.605469 243.816406 C 111.707031 251.839844 112.3125 263.089844 113.121094 272.523438 C 114.632812 290.21875 115.84375 290.6875 116.71875 291.023438 C 118.902344 291.863281 139.417969 295.121094 165.308594 298.378906 C 182.929688 300.59375 202.03125 301.769531 218.914062 301.769531 C 235.792969 301.769531 237.410156 301.398438 244.90625 300.625 C 263 298.78125 266.867188 296.296875 268.246094 294.617188 C 268.851562 293.84375 269.121094 293.039062 269.019531 292.066406 C 268.984375 291.257812 268.953125 290.320312 268.917969 289.277344 C 270.902344 288.171875 273.15625 286.929688 275.441406 285.585938 C 277.492188 284.375 279.578125 283.101562 281.59375 281.824219 C 282.738281 281.121094 283.746094 280.449219 284.691406 279.808594 C 284.859375 279.808594 285.027344 279.808594 285.195312 279.808594 C 288.421875 279.808594 291.550781 279.640625 293.566406 279.105469 C 299.082031 277.660156 298.007812 273.027344 297.46875 270.84375 C 297.433594 270.644531 297.367188 270.441406 297.332031 270.308594 C 296.390625 265.203125 296.023438 257.917969 295.953125 249.726562 C 302.578125 242.339844 302.578125 235.054688 301.671875 230.757812 C 300.730469 226.15625 298.980469 221.824219 296.894531 217.929688 C 297.5 207.21875 298.242188 197.886719 298.679688 192.917969 C 299.417969 184.289062 301 171.5625 302.714844 158.667969 C 308.800781 159.675781 316.03125 161.726562 324.203125 165.652344 C 324.4375 165.753906 324.707031 165.820312 324.941406 165.820312 C 325.3125 165.820312 325.648438 165.71875 325.949219 165.484375 C 326.554688 165.050781 326.824219 164.277344 326.589844 163.539062 C 324.976562 158.769531 316.769531 148.394531 311.222656 143.828125 C 317.679688 141.277344 323.664062 140.136719 328.574219 140.574219 C 329.3125 140.640625 329.988281 140.238281 330.289062 139.597656 C 330.625 138.925781 330.457031 138.121094 329.917969 137.617188 Z M 74.648438 85.542969 C 75.488281 81.511719 77.574219 78.492188 80.566406 77.046875 C 83.023438 75.839844 85.949219 75.871094 88.503906 77.148438 C 95.128906 80.4375 93.648438 90.710938 93.011719 93.800781 C 91.765625 99.980469 91.898438 106.894531 92.035156 113.609375 C 89.816406 113.679688 86.890625 113.476562 83.527344 111.699219 C 80.972656 110.355469 78.316406 109.28125 75.726562 109.882812 C 75.050781 105.722656 73.136719 92.761719 74.648438 85.574219 Z M 67.453125 159.710938 C 67.285156 159.675781 51.648438 155.34375 45.324219 135.90625 C 41.257812 123.449219 42.636719 117.910156 44.484375 115.457031 C 45.660156 113.914062 47.445312 113.074219 49.730469 112.90625 C 50.605469 112.90625 56.085938 113.109375 59.316406 118.511719 C 61.871094 122.777344 62.914062 127.613281 61.902344 130.835938 C 61.433594 132.347656 60.558594 133.421875 59.316406 134.023438 C 56.019531 135.570312 53.328125 134.09375 50.335938 129.054688 C 48.285156 125.632812 47.277344 124.757812 47.007812 124.558594 C 46.46875 124.1875 45.730469 124.289062 45.359375 124.824219 C 44.988281 125.363281 45.089844 126.066406 45.628906 126.4375 C 45.660156 126.4375 46.503906 127.175781 48.320312 130.230469 C 49.328125 131.910156 51.847656 136.207031 55.917969 136.84375 C 57.230469 137.046875 58.710938 136.878906 60.324219 136.105469 C 62.171875 135.234375 63.519531 133.621094 64.15625 131.472656 C 65.335938 127.613281 64.257812 122.171875 61.332031 117.269531 C 58.609375 112.738281 54.605469 111.261719 52.015625 110.757812 C 43.8125 97.125 43.980469 91.082031 45.59375 88.394531 C 47.445312 85.339844 50.808594 83.460938 54 83.730469 C 57.128906 83.996094 59.683594 86.246094 61.164062 90.042969 C 66.039062 102.464844 69.539062 110.152344 71.621094 112.941406 C 71.152344 113.746094 70.816406 114.6875 70.648438 115.691406 C 70.511719 116.464844 70.480469 117.238281 70.546875 118.042969 C 67.453125 119.585938 65.769531 122.003906 65.671875 122.105469 C 65.300781 122.644531 65.433594 123.382812 65.972656 123.71875 C 66.109375 123.816406 66.277344 123.886719 66.445312 123.917969 C 66.882812 123.984375 67.316406 123.816406 67.585938 123.414062 C 67.585938 123.414062 68.796875 121.703125 70.917969 120.460938 C 71.523438 122.675781 72.699219 124.925781 74.480469 127.140625 C 75.824219 128.855469 77.371094 130.128906 78.917969 131.070312 C 72.363281 137.71875 72.597656 148.964844 72.597656 149.46875 C 72.597656 150.039062 73.035156 150.511719 73.574219 150.578125 C 73.640625 150.578125 73.707031 150.578125 73.808594 150.578125 C 74.449219 150.578125 74.953125 150.007812 74.953125 149.371094 C 74.953125 149.269531 74.75 138.019531 81.105469 132.179688 C 82.753906 132.882812 84.367188 133.285156 85.746094 133.523438 C 88.269531 133.925781 90.152344 133.757812 90.320312 133.722656 C 90.957031 133.65625 91.429688 133.085938 91.363281 132.445312 C 91.296875 131.808594 90.722656 131.339844 90.085938 131.40625 C 89.984375 131.40625 81.578125 132.246094 76.332031 125.664062 C 72.730469 121.164062 72.664062 117.707031 72.933594 116.027344 C 73.167969 114.519531 73.910156 113.277344 74.851562 112.636719 C 76.9375 111.292969 79.289062 112.035156 82.382812 113.679688 C 87.023438 116.128906 91.027344 115.929688 93.414062 115.792969 C 93.816406 115.792969 94.152344 115.761719 94.457031 115.761719 C 95.027344 115.761719 95.597656 115.761719 96.105469 115.761719 C 98.355469 115.726562 99.972656 115.691406 102.15625 117.40625 C 106.496094 120.863281 110.53125 127.578125 105.25 139.902344 C 101.082031 149.605469 94.589844 154.101562 94.523438 154.136719 L 93.953125 154.507812 C 92.707031 155.277344 88.875 157.359375 80.769531 159.273438 C 76.429688 160.316406 70.75 160.011719 68.359375 159.8125 L 67.417969 159.578125 Z M 69.402344 167.734375 C 67.722656 165.351562 67.722656 163.371094 67.921875 162.261719 C 70.3125 162.464844 76.464844 162.867188 81.339844 161.691406 C 88.738281 159.910156 92.773438 158.03125 94.625 156.957031 C 95.429688 159.339844 96.371094 164.644531 90.65625 167.5 C 82.550781 171.5625 72.195312 171.664062 69.371094 167.734375 Z M 307.253906 110.523438 C 306.984375 112.234375 306.277344 116.902344 305.335938 123.28125 C 304.292969 123.011719 303.21875 122.777344 302.109375 122.574219 C 302.847656 118.277344 303.453125 114.953125 303.859375 113.207031 L 304.195312 111.964844 L 302.914062 111.796875 C 302.308594 111.664062 297.265625 110.085938 290.808594 107.96875 C 299.148438 108.742188 305.503906 109.617188 307.320312 110.488281 Z M 287.582031 109.414062 C 293.5 111.328125 298.914062 113.109375 301.300781 113.8125 C 300.898438 115.726562 300.359375 118.679688 299.753906 122.238281 C 295.71875 121.738281 291.3125 121.769531 286.574219 122.507812 C 286.574219 122.507812 286.167969 122.542969 286.167969 122.542969 C 286.640625 117.472656 287.109375 112.90625 287.582031 109.414062 Z M 113.894531 243.816406 C 113.65625 227.667969 115.003906 165.015625 116.347656 146.246094 C 117.792969 125.96875 121.628906 106.324219 121.726562 105.789062 C 121.996094 104.613281 123.039062 101.324219 124.855469 100.28125 C 125.527344 99.914062 127.847656 99.074219 131.984375 98.066406 C 130.035156 114.785156 117.859375 223.371094 125.125 290.285156 C 121.222656 289.648438 118.632812 289.144531 117.761719 288.875 C 116.179688 285.855469 114.128906 259.832031 113.894531 243.75 Z M 165.546875 296.0625 C 149.539062 294.046875 136.085938 292.097656 127.511719 290.722656 C 119.980469 222.867188 132.792969 111.058594 134.40625 97.527344 C 144.328125 95.378906 162.046875 92.828125 188.816406 92.761719 C 227.992188 92.625 254.222656 94.808594 271.304688 99.644531 C 272.988281 101.828125 272.179688 120.023438 271.84375 127.8125 C 271.777344 129.457031 271.710938 130.9375 271.675781 132.144531 C 271.539062 135.871094 270.800781 149.972656 269.925781 166.324219 C 268.648438 190.53125 267.167969 217.996094 267.070312 223.335938 C 267.070312 224.375 267.035156 225.921875 267 227.867188 C 266.933594 231.796875 266.832031 237.570312 266.730469 244.085938 C 265.589844 243.078125 264.410156 242.40625 263.132812 242.070312 C 260.445312 241.332031 257.585938 242.070312 254.660156 244.355469 C 246.355469 240.492188 239.089844 238.042969 230.882812 238.410156 C 224.964844 238.679688 221.402344 241.332031 219.449219 243.515625 C 216.863281 246.402344 215.886719 249.792969 215.820312 252.175781 C 215.652344 252.210938 215.484375 252.277344 215.316406 252.3125 C 215.246094 252.3125 215.148438 252.34375 215.078125 252.414062 C 214.171875 252.648438 212.757812 252.984375 210.707031 253.453125 C 205.496094 254.628906 199.578125 258.625 199.980469 266.011719 C 200.214844 269.90625 202.265625 272.355469 203.578125 273.53125 C 202.570312 274.941406 201.058594 277.761719 201.730469 281.253906 C 201.863281 281.859375 202.03125 282.496094 202.300781 283.167969 C 204.488281 288.40625 209.800781 290.992188 212.792969 291.695312 C 212.894531 292.972656 213.464844 294.617188 214.609375 296.160156 C 215.414062 297.234375 216.660156 298.445312 218.507812 299.453125 C 201.796875 299.453125 182.929688 298.277344 165.511719 296.0625 Z M 225.839844 299.117188 C 220.425781 298.578125 217.804688 296.464844 216.527344 294.75 C 215.753906 293.710938 215.382812 292.703125 215.246094 291.929688 C 219.183594 291.929688 222.980469 290.117188 223.183594 290.050781 C 223.753906 289.78125 224.023438 289.078125 223.722656 288.472656 C 223.453125 287.902344 222.746094 287.632812 222.140625 287.933594 C 222.109375 287.933594 217.871094 289.949219 214.238281 289.546875 L 214.136719 289.546875 C 214.136719 289.546875 214.136719 289.546875 214.105469 289.546875 C 213.867188 289.546875 213.632812 289.480469 213.398438 289.414062 C 213.398438 289.414062 213.398438 289.414062 213.363281 289.414062 C 211.042969 288.875 206.371094 286.761719 204.488281 282.261719 C 203.039062 278.804688 204.65625 275.984375 205.5625 274.808594 C 210.574219 277.15625 216.59375 275.648438 216.863281 275.578125 C 217.5 275.410156 217.871094 274.773438 217.703125 274.167969 C 217.535156 273.53125 216.894531 273.164062 216.289062 273.328125 C 216.222656 273.328125 209.832031 274.941406 205.496094 272.121094 C 204.621094 271.449219 202.503906 269.433594 202.300781 265.910156 C 201.964844 259.96875 206.875 256.742188 211.210938 255.769531 C 215.652344 254.761719 217.0625 254.328125 217.300781 254.257812 C 222.074219 252.984375 229.167969 250.632812 229.507812 250.5 C 230.109375 250.296875 230.449219 249.625 230.246094 249.019531 C 230.042969 248.417969 229.371094 248.082031 228.765625 248.28125 C 228.699219 248.28125 222.8125 250.261719 218.171875 251.574219 C 218.410156 249.625 219.351562 247.175781 221.167969 245.125 C 222.8125 243.28125 225.839844 241.03125 230.953125 240.796875 C 237.578125 240.527344 243.863281 242.070312 253.078125 246.300781 C 252.070312 248.183594 250.625 252.175781 251.800781 258.222656 C 252.003906 259.226562 252.273438 260.335938 252.640625 261.476562 C 255.804688 271.113281 261.417969 273.0625 264.144531 273.398438 C 260.140625 290.117188 235.523438 300.125 225.808594 299.183594 Z M 266.363281 293.171875 C 265.183594 294.617188 260.476562 296.699219 244.636719 298.308594 C 243.160156 298.445312 241.644531 298.578125 240.066406 298.714844 C 250.960938 294.652344 263.269531 286.324219 266.363281 274.269531 C 266.363281 281.792969 266.394531 288.304688 266.597656 292.234375 L 266.597656 292.300781 C 266.632812 292.570312 266.597656 292.835938 266.363281 293.140625 Z M 265.453125 271.046875 C 264.714844 271.082031 258.359375 271.148438 254.929688 260.671875 C 252.105469 252.007812 255.128906 247.277344 255.636719 246.570312 C 258.125 244.523438 260.410156 243.785156 262.460938 244.355469 C 263.773438 244.722656 265.050781 245.628906 266.261719 247.074219 C 261.6875 248.484375 259.066406 253.320312 260.410156 257.917969 C 260.578125 258.488281 260.8125 259.027344 261.082031 259.5625 C 263 263.191406 267.269531 265.070312 271.339844 263.894531 C 271.40625 263.894531 271.84375 263.761719 272.550781 263.527344 C 272.550781 265.035156 272.28125 266.347656 271.742188 267.355469 C 270.5 269.671875 267.941406 270.476562 265.386719 271.082031 Z M 268.785156 286.660156 C 268.714844 282.730469 268.714844 277.828125 268.714844 272.523438 C 270.09375 272.019531 271.539062 271.25 272.71875 270.007812 C 272.917969 274.203125 273.222656 278.835938 273.59375 283.90625 C 271.976562 284.878906 270.332031 285.785156 268.785156 286.660156 Z M 275.84375 282.5625 C 275.375 276.050781 275.070312 270.273438 274.835938 265.203125 C 274.9375 264.433594 274.972656 263.558594 274.902344 262.652344 C 276.28125 262.148438 277.964844 261.476562 279.8125 260.636719 C 279.980469 267.453125 280.316406 274 280.921875 279.375 C 279.308594 280.414062 277.558594 281.488281 275.8125 282.5625 Z M 280.992188 210.007812 C 277.125 212.761719 276.148438 218.097656 278.769531 222.058594 C 279.207031 222.699219 279.644531 223.402344 280.046875 224.074219 C 279.914062 228.40625 279.78125 234.214844 279.710938 240.660156 C 278.199219 241.734375 276.449219 242.777344 274.566406 243.714844 C 274.734375 237.640625 275.039062 234.820312 275.070312 234.75 C 275.140625 234.113281 274.703125 233.507812 274.0625 233.441406 C 273.425781 233.339844 272.820312 233.8125 272.75 234.449219 C 272.71875 234.71875 272.347656 237.941406 272.214844 244.859375 C 271.136719 245.328125 270.0625 245.765625 269.019531 246.167969 C 269.121094 238.8125 269.253906 232.300781 269.320312 227.9375 C 269.355469 225.988281 269.390625 224.445312 269.390625 223.402344 C 269.488281 218.097656 270.9375 190.667969 272.246094 166.492188 C 273.121094 150.140625 273.859375 136.007812 273.996094 132.28125 C 274.03125 131.070312 274.097656 129.59375 274.164062 127.980469 C 274.632812 117.101562 274.804688 109.882812 274.535156 105.183594 C 276.148438 105.722656 284.183594 108.375 285.292969 108.710938 C 284.789062 112.46875 284.285156 117.472656 283.746094 123.046875 C 283.746094 123.046875 283.679688 123.917969 283.679688 123.917969 C 282.636719 135.167969 281.664062 148.628906 281.023438 157.929688 L 280.921875 159.609375 C 280.316406 168.105469 279.949219 174.113281 279.949219 174.28125 C 279.914062 174.921875 280.386719 175.492188 281.058594 175.523438 C 281.058594 175.523438 281.089844 175.523438 281.125 175.523438 C 281.730469 175.523438 282.269531 175.054688 282.300781 174.417969 C 282.300781 174.25 282.707031 167.835938 283.34375 158.9375 C 285.363281 158.433594 289.230469 157.761719 294.574219 157.898438 C 293.5 166.257812 292.660156 174.179688 292.253906 180.089844 C 292.019531 183.683594 291.617188 188.082031 291.144531 193.152344 C 290.707031 197.988281 290.203125 203.390625 289.765625 209.167969 C 287.011719 207.925781 283.679688 208.160156 281.023438 210.039062 Z M 282.300781 228.238281 C 283.210938 230.21875 283.949219 232.234375 284.351562 234.25 C 284.621094 235.589844 283.714844 237.136719 282.101562 238.714844 C 282.132812 234.886719 282.234375 231.328125 282.300781 228.238281 Z M 283.175781 277.964844 C 282.636719 272.625 282.335938 266.210938 282.167969 259.5625 C 283.648438 258.824219 285.160156 258.019531 286.640625 257.113281 C 287.414062 256.644531 288.152344 256.171875 288.859375 255.703125 C 289.195312 261.210938 289.765625 266.683594 290.574219 271.988281 C 290.136719 273.027344 287.144531 275.277344 283.140625 277.964844 Z M 292.859375 276.855469 C 291.652344 277.191406 289.933594 277.359375 288.019531 277.425781 C 293.265625 273.53125 293.164062 272.355469 292.894531 271.550781 C 292.019531 265.84375 291.449219 259.96875 291.113281 254.058594 C 291.988281 253.386719 292.792969 252.714844 293.566406 252.007812 C 293.667969 259.394531 294.070312 265.976562 294.945312 270.710938 C 294.980469 270.914062 295.046875 271.113281 295.082031 271.347656 C 295.753906 274.203125 295.953125 276.015625 292.859375 276.820312 Z M 296.257812 192.683594 C 295.886719 197.113281 295.25 204.96875 294.675781 214.203125 C 294.273438 213.53125 293.835938 212.894531 293.433594 212.257812 C 292.996094 211.617188 292.492188 211.046875 291.953125 210.578125 C 292.425781 204.332031 292.960938 198.492188 293.433594 193.320312 C 293.902344 188.214844 294.308594 183.816406 294.542969 180.191406 C 294.914062 174.382812 295.785156 166.390625 296.863281 157.929688 C 297.972656 158 299.117188 158.132812 300.292969 158.265625 C 298.542969 171.191406 296.964844 183.953125 296.222656 192.648438 Z M 308.667969 142.320312 C 308.160156 142.554688 307.824219 143.058594 307.859375 143.628906 C 307.859375 144.0625 308.09375 144.433594 308.429688 144.667969 C 312.902344 147.757812 321.007812 157.527344 323.699219 162.800781 C 310.988281 156.992188 300.527344 155.480469 293.097656 155.480469 C 285.664062 155.480469 285.832031 155.949219 283.78125 156.351562 L 284.957031 142.050781 L 286.371094 124.859375 C 307.121094 121.332031 321.175781 132.75 326.992188 138.085938 C 321.648438 137.988281 315.359375 139.398438 308.667969 142.285156 Z M 308.667969 142.320312 " fill-opacity="1" fill-rule="nonzero"/></g><path fill="#4b260c" d="M 176.339844 203.359375 C 175.265625 205.542969 176.238281 207.890625 178.929688 209.570312 C 180.746094 210.679688 183.367188 211.449219 186.058594 211.449219 C 189.21875 211.449219 192.414062 210.441406 194.433594 207.722656 C 194.800781 207.21875 194.699219 206.480469 194.195312 206.078125 C 193.691406 205.707031 192.953125 205.808594 192.546875 206.3125 C 189.757812 210.074219 183.46875 209.570312 180.171875 207.554688 C 179.230469 206.984375 177.753906 205.777344 178.425781 204.398438 C 178.796875 203.660156 179.398438 203.15625 180.242188 202.886719 C 183.335938 201.882812 188.851562 204.097656 190.699219 205.070312 C 191.269531 205.375 191.976562 205.136719 192.28125 204.566406 C 192.582031 203.996094 192.347656 203.292969 191.773438 202.988281 C 191.472656 202.820312 184.175781 199.160156 179.535156 200.671875 C 178.089844 201.144531 177.011719 202.050781 176.375 203.359375 Z M 176.339844 203.359375 " fill-opacity="1" fill-rule="nonzero"/><path fill="#4b260c" d="M 215.382812 231.898438 C 215.382812 232.535156 215.921875 233.003906 216.558594 233.003906 C 217.199219 233.003906 216.59375 233.003906 216.625 233.003906 C 217.265625 233.003906 217.769531 232.433594 217.734375 231.796875 C 217.265625 221.390625 207.480469 219.945312 207.378906 219.945312 C 206.738281 219.878906 206.132812 220.3125 206.066406 220.953125 C 205.964844 221.589844 206.4375 222.195312 207.074219 222.261719 C 207.277344 222.261719 210.40625 222.730469 212.757812 225.214844 C 202 236.230469 191.539062 241.0625 181.6875 239.585938 C 167.796875 237.539062 159.121094 223.371094 157.308594 220.113281 C 160.03125 218.601562 162.789062 218.835938 162.988281 218.871094 C 163.628906 218.9375 164.199219 218.46875 164.269531 217.828125 C 164.335938 217.191406 163.863281 216.621094 163.226562 216.554688 C 163.125 216.554688 153.238281 215.648438 150.378906 225.6875 C 150.210938 226.324219 150.546875 226.960938 151.1875 227.128906 C 151.289062 227.128906 151.386719 227.164062 151.523438 227.164062 C 152.027344 227.164062 152.496094 226.828125 152.664062 226.324219 C 153.269531 224.175781 154.28125 222.632812 155.421875 221.523438 C 157.675781 225.550781 166.621094 239.722656 181.351562 241.902344 C 182.628906 242.105469 183.90625 242.171875 185.183594 242.171875 C 194.566406 242.171875 204.285156 237.101562 214.171875 227.097656 C 214.84375 228.339844 215.347656 229.917969 215.414062 231.898438 Z M 215.382812 231.898438 " fill-opacity="1" fill-rule="nonzero"/><path fill="#4b260c" d="M 199.578125 206.113281 C 199.578125 206.75 200.046875 207.253906 200.6875 207.320312 C 200.6875 207.320312 201.628906 207.320312 201.628906 207.320312 C 201.730469 207.320312 201.832031 207.320312 201.898438 207.320312 C 204.753906 207.253906 209.058594 206.785156 214.070312 205.742188 C 214.070312 205.742188 214.105469 205.742188 214.136719 205.742188 C 214.574219 205.640625 215.011719 205.542969 215.449219 205.441406 C 215.550781 205.441406 215.652344 205.40625 215.753906 205.375 C 216.121094 205.273438 216.492188 205.207031 216.894531 205.105469 C 217.03125 205.070312 217.199219 205.039062 217.332031 205.003906 C 217.703125 204.902344 218.074219 204.835938 218.441406 204.734375 C 218.609375 204.703125 218.746094 204.667969 218.914062 204.601562 C 219.417969 204.464844 219.957031 204.332031 220.492188 204.164062 C 220.730469 204.097656 220.964844 204.03125 221.199219 203.996094 L 222.277344 203.726562 C 230.75 201.914062 237.578125 204.5 237.644531 204.535156 C 238.25 204.769531 238.921875 204.464844 239.15625 203.863281 C 239.394531 203.257812 239.089844 202.585938 238.484375 202.351562 C 238.183594 202.21875 231.355469 199.597656 222.546875 201.277344 C 223.855469 189.894531 226.414062 159.8125 217.703125 149 C 215.785156 146.617188 213.398438 145.273438 210.640625 145.039062 C 208.019531 144.804688 205.765625 145.777344 203.882812 147.890625 C 194.9375 158.097656 197.792969 193.183594 200.148438 205.105469 C 199.777344 205.304688 199.542969 205.675781 199.511719 206.113281 Z M 205.699219 149.4375 C 206.941406 148.027344 208.320312 147.320312 209.96875 147.355469 C 210.136719 147.355469 210.304688 147.355469 210.472656 147.355469 C 212.589844 147.554688 214.375 148.5625 215.886719 150.445312 C 219.484375 154.910156 221 163.335938 221.433594 172.167969 C 220.191406 166.359375 217.835938 162.027344 213.53125 161.625 C 210.507812 161.355469 208.453125 163.640625 207.109375 167.296875 C 208.757812 167.734375 209.96875 169.210938 209.96875 170.992188 C 209.96875 173.105469 208.253906 174.785156 206.132812 174.785156 C 205.898438 174.785156 205.664062 174.785156 205.460938 174.71875 C 204.21875 184.722656 205.292969 197.886719 206.503906 204.535156 C 206.371094 204.535156 206.234375 204.535156 206.101562 204.566406 C 205.964844 204.566406 205.867188 204.566406 205.730469 204.601562 C 205.5625 204.601562 205.429688 204.601562 205.261719 204.632812 C 205.058594 204.632812 204.855469 204.667969 204.65625 204.703125 C 204.554688 204.703125 204.453125 204.703125 204.351562 204.703125 C 204.117188 204.703125 203.882812 204.734375 203.644531 204.769531 C 203.578125 204.769531 203.511719 204.769531 203.445312 204.769531 C 203.207031 204.769531 203.007812 204.769531 202.804688 204.800781 C 202.738281 204.800781 202.671875 204.800781 202.605469 204.800781 C 202.570312 204.800781 202.503906 204.800781 202.46875 204.800781 C 200.082031 192.949219 197.625 158.433594 205.628906 149.300781 Z M 205.699219 149.4375 " fill-opacity="1" fill-rule="nonzero"/><path fill="#4b260c" d="M 208.152344 138.421875 C 216.792969 135.601562 220.359375 142.820312 220.492188 143.125 C 220.695312 143.5625 221.097656 143.796875 221.535156 143.796875 C 221.703125 143.796875 221.871094 143.761719 222.039062 143.695312 C 222.613281 143.425781 222.882812 142.722656 222.613281 142.152344 C 222.578125 142.050781 218.039062 132.714844 207.414062 136.207031 C 206.808594 136.410156 206.472656 137.082031 206.671875 137.683594 C 206.875 138.289062 207.546875 138.625 208.152344 138.421875 Z M 208.152344 138.421875 " fill-opacity="1" fill-rule="nonzero"/><path fill="#4b260c" d="M 151.792969 199.632812 C 151.792969 199.632812 152.835938 200.035156 152.835938 200.035156 C 153.070312 200.101562 153.269531 200.203125 153.507812 200.304688 C 154.042969 200.539062 154.550781 200.738281 155.054688 200.941406 C 155.1875 201.007812 155.355469 201.042969 155.492188 201.109375 C 155.859375 201.242188 156.230469 201.410156 156.601562 201.546875 C 156.734375 201.613281 156.902344 201.644531 157.039062 201.714844 C 157.441406 201.847656 157.8125 202.015625 158.214844 202.148438 C 158.316406 202.148438 158.382812 202.21875 158.484375 202.25 C 163.730469 204.097656 168.335938 205.207031 171.398438 205.640625 C 171.496094 205.640625 171.597656 205.640625 171.699219 205.675781 C 171.765625 205.675781 171.800781 205.675781 171.867188 205.675781 L 172.808594 205.808594 C 172.808594 205.808594 172.84375 205.808594 172.875 205.808594 C 173.480469 205.808594 173.984375 205.375 174.054688 204.734375 C 174.085938 204.296875 173.886719 203.894531 173.550781 203.660156 C 177.316406 192.109375 184.378906 157.628906 176.710938 146.414062 C 175.097656 144.0625 172.976562 142.855469 170.355469 142.753906 C 167.597656 142.6875 165.074219 143.695312 162.890625 145.84375 C 152.933594 155.511719 151.824219 185.699219 151.792969 197.148438 C 143.25 194.425781 136.15625 196.207031 135.851562 196.308594 C 135.214844 196.476562 134.84375 197.113281 135.011719 197.75 C 135.179688 198.390625 135.820312 198.757812 136.457031 198.589844 C 136.523438 198.589844 143.621094 196.8125 151.824219 199.632812 Z M 164.503906 147.523438 C 166.25 145.84375 168.136719 145.039062 170.253906 145.105469 C 172.101562 145.171875 173.582031 146.011719 174.757812 147.722656 C 177.617188 151.921875 178.121094 160.347656 177.484375 169.546875 C 176.777344 164.980469 175.0625 161.824219 171.765625 161.726562 C 169.144531 161.65625 167.09375 163.167969 165.476562 165.652344 C 167.058594 166.125 168.203125 167.601562 168.167969 169.3125 C 168.167969 171.429688 166.453125 173.105469 164.335938 173.105469 C 163.664062 173.105469 163.058594 172.9375 162.484375 172.636719 C 159.695312 182.339844 159.457031 195.636719 159.457031 200.035156 C 159.089844 199.902344 158.71875 199.765625 158.316406 199.632812 C 158.214844 199.597656 158.082031 199.566406 157.980469 199.496094 C 157.710938 199.398438 157.441406 199.296875 157.136719 199.195312 C 156.902344 199.09375 156.632812 198.992188 156.398438 198.925781 C 156.195312 198.859375 155.996094 198.757812 155.792969 198.691406 C 155.324219 198.492188 154.851562 198.324219 154.347656 198.121094 C 154.246094 198.085938 154.179688 198.054688 154.078125 198.019531 C 154.078125 189.625 154.75 156.992188 164.46875 147.554688 Z M 164.503906 147.523438 " fill-opacity="1" fill-rule="nonzero"/><path fill="#4b260c" d="M 159.257812 140.070312 C 159.457031 140.203125 159.660156 140.238281 159.863281 140.238281 C 160.265625 140.238281 160.636719 140.035156 160.871094 139.699219 C 161.039062 139.398438 165.410156 132.648438 173.683594 136.511719 C 174.253906 136.777344 174.960938 136.511719 175.230469 135.9375 C 175.5 135.367188 175.230469 134.664062 174.660156 134.394531 C 164.535156 129.660156 158.921875 138.390625 158.855469 138.492188 C 158.515625 139.027344 158.683594 139.765625 159.222656 140.101562 Z M 159.257812 140.070312 " fill-opacity="1" fill-rule="nonzero"/><path fill="#4b260c" d="M 220.324219 208.695312 C 219.484375 208.796875 218.914062 209.535156 218.980469 210.375 C 219.046875 211.214844 219.820312 211.785156 220.660156 211.71875 C 221.503906 211.617188 222.074219 210.878906 222.007812 210.039062 C 221.941406 209.199219 221.167969 208.628906 220.324219 208.695312 Z M 220.324219 208.695312 " fill-opacity="1" fill-rule="nonzero"/><path fill="#4b260c" d="M 226.378906 205.207031 C 225.539062 205.304688 224.964844 206.042969 225.035156 206.882812 C 225.132812 207.722656 225.875 208.292969 226.714844 208.226562 C 227.554688 208.125 228.128906 207.386719 228.058594 206.546875 C 227.960938 205.707031 227.21875 205.136719 226.378906 205.207031 Z M 226.378906 205.207031 " fill-opacity="1" fill-rule="nonzero"/><path fill="#4b260c" d="M 232.601562 208.160156 C 231.757812 208.261719 231.1875 209 231.253906 209.839844 C 231.355469 210.679688 232.09375 211.25 232.9375 211.183594 C 233.777344 211.082031 234.347656 210.34375 234.28125 209.503906 C 234.179688 208.664062 233.441406 208.09375 232.601562 208.160156 Z M 232.601562 208.160156 " fill-opacity="1" fill-rule="nonzero"/><path fill="#4b260c" d="M 151.523438 204.769531 C 151.355469 205.574219 151.859375 206.378906 152.699219 206.546875 C 153.507812 206.714844 154.3125 206.210938 154.480469 205.375 C 154.648438 204.566406 154.144531 203.761719 153.304688 203.59375 C 152.496094 203.425781 151.691406 203.929688 151.523438 204.769531 Z M 151.523438 204.769531 " fill-opacity="1" fill-rule="nonzero"/><path fill="#4b260c" d="M 147.589844 199.566406 C 146.78125 199.398438 145.972656 199.902344 145.804688 200.738281 C 145.636719 201.546875 146.140625 202.351562 146.984375 202.519531 C 147.789062 202.6875 148.597656 202.183594 148.765625 201.34375 C 148.933594 200.539062 148.429688 199.734375 147.589844 199.566406 Z M 147.589844 199.566406 " fill-opacity="1" fill-rule="nonzero"/><path fill="#4b260c" d="M 141.132812 201.914062 C 140.324219 201.746094 139.515625 202.25 139.347656 203.089844 C 139.179688 203.894531 139.6875 204.703125 140.527344 204.871094 C 141.332031 205.039062 142.140625 204.535156 142.308594 203.695312 C 142.476562 202.886719 141.972656 202.082031 141.132812 201.914062 Z M 141.132812 201.914062 " fill-opacity="1" fill-rule="nonzero"/><path fill="#4b260c" d="M 245.648438 260.707031 C 246.253906 260.4375 246.523438 259.765625 246.253906 259.160156 C 245.984375 258.558594 245.3125 258.289062 244.707031 258.558594 C 236.734375 262.015625 232.027344 261.511719 231.960938 261.511719 C 231.320312 261.445312 230.75 261.878906 230.648438 262.519531 C 230.648438 262.652344 230.648438 262.789062 230.648438 262.886719 C 230.75 263.359375 231.152344 263.761719 231.65625 263.828125 C 231.859375 263.828125 236.972656 264.464844 245.648438 260.707031 Z M 245.648438 260.707031 " fill-opacity="1" fill-rule="nonzero"/><path fill="#4b260c" d="M 248.238281 267.21875 C 248.675781 266.75 248.640625 266.011719 248.167969 265.574219 C 247.699219 265.136719 246.957031 265.171875 246.523438 265.675781 C 242.050781 270.644531 232.09375 274.035156 231.996094 274.070312 C 231.421875 274.269531 231.121094 274.839844 231.222656 275.410156 C 231.222656 275.445312 231.222656 275.511719 231.253906 275.546875 C 231.457031 276.148438 232.128906 276.484375 232.734375 276.285156 C 233.171875 276.148438 243.359375 272.660156 248.269531 267.253906 Z M 248.238281 267.21875 " fill-opacity="1" fill-rule="nonzero"/><path fill="#4b260c" d="M 251.398438 272.960938 C 250.859375 272.625 250.121094 272.757812 249.785156 273.328125 C 246.65625 278.199219 239.15625 280.785156 239.089844 280.816406 C 238.519531 281.019531 238.214844 281.589844 238.316406 282.160156 C 238.316406 282.195312 238.316406 282.261719 238.351562 282.292969 C 238.550781 282.898438 239.222656 283.234375 239.828125 283.035156 C 240.167969 282.933594 248.167969 280.144531 251.734375 274.574219 C 252.070312 274.035156 251.9375 273.296875 251.363281 272.960938 Z M 251.398438 272.960938 " fill-opacity="1" fill-rule="nonzero"/></svg>