<svg xmlns="http://www.w3.org/2000/svg" xmlns:xlink="http://www.w3.org/1999/xlink" width="500" zoomAndPan="magnify" viewBox="0 0 375 374.999991" height="500" preserveAspectRatio="xMidYMid meet" version="1.0"><defs><clipPath id="4f84fdc3c9"><path d="M 53.019531 74 L 319 74 L 319 337 L 53.019531 337 Z M 53.019531 74 " clip-rule="nonzero"/></clipPath><clipPath id="8f55629930"><path d="M 101 41.046875 L 274 41.046875 L 274 169 L 101 169 Z M 101 41.046875 " clip-rule="nonzero"/></clipPath></defs><path fill="#ff2273" d="M 317.492188 102.878906 L 265.832031 75.621094 C 265.746094 75.566406 265.660156 75.519531 265.570312 75.480469 L 265.5625 75.480469 C 265.089844 75.28125 264.539062 75.261719 263.953125 75.496094 L 57.199219 157.195312 C 55.492188 157.867188 54.144531 160.269531 54.183594 162.558594 L 56.699219 304.835938 C 56.722656 306.230469 57.261719 307.253906 58.0625 307.695312 L 58.058594 307.699219 L 58.101562 307.722656 C 58.113281 307.730469 58.121094 307.734375 58.128906 307.738281 L 109.53125 336.527344 Z M 317.492188 102.878906 " fill-opacity="1" fill-rule="nonzero"/><path fill="#000000" d="M 67.070312 174.015625 C 68.183594 174.5 69.742188 173.230469 70.886719 173.085938 C 72.09375 172.929688 73.421875 173.046875 74.265625 174.023438 C 75.675781 175.652344 75.546875 181.507812 78.566406 180.972656 C 79.105469 180.875 79.632812 180.660156 80.160156 180.519531 C 80.703125 180.371094 81.832031 179.878906 82.371094 180.007812 C 84.6875 180.546875 85.96875 183.503906 87.039062 185.351562 C 89.882812 190.261719 92.597656 183.65625 95.894531 186.402344 C 97.246094 187.53125 97.402344 188.875 98.238281 190.339844 C 100.066406 193.554688 101.304688 190.714844 103.425781 190.714844 C 108.792969 190.714844 108.644531 200.472656 115.621094 194.558594 C 116.175781 194.089844 116.886719 194.480469 117.042969 194.996094 C 120.667969 194.464844 125.238281 193.210938 126.648438 189.929688 C 128.011719 186.75 126.515625 182.945312 122.972656 182.296875 C 121.734375 182.066406 120.328125 182.03125 119.148438 181.5625 C 118.027344 181.117188 115.496094 179.792969 116.445312 178.175781 C 117.703125 176.03125 115.605469 176.492188 113.816406 176.632812 C 111.984375 176.773438 110.539062 176.871094 108.84375 176.167969 C 108.367188 175.972656 108.015625 175.4375 108.339844 174.933594 C 111.050781 170.703125 102.46875 172.769531 100.535156 172.515625 C 97.503906 172.121094 97.878906 170.015625 97.707031 167.738281 C 97.421875 164.015625 89.070312 169.6875 87.910156 165.488281 C 87.386719 163.585938 88.925781 160.839844 85.214844 161.117188 C 83.128906 161.273438 81.125 161.621094 79.097656 160.972656 C 78.6875 160.84375 78.34375 160.386719 78.507812 159.941406 C 79.40625 157.496094 77.523438 157.394531 75.65625 157.609375 C 74.75 157.714844 73.832031 157.839844 72.921875 157.855469 C 71.890625 157.871094 71.683594 157.554688 71.9375 156.53125 C 72.34375 154.929688 73.621094 152.605469 73.113281 150.90625 L 57.199219 157.195312 C 55.492188 157.867188 54.144531 160.269531 54.183594 162.558594 L 54.320312 170.199219 C 56.785156 170.492188 58.914062 167.878906 61.699219 168.03125 C 62.96875 168.097656 64.007812 169.664062 64.660156 170.582031 C 65.304688 171.492188 65.824219 172.480469 66.417969 173.417969 C 66.609375 173.722656 66.832031 173.910156 67.070312 174.015625 Z M 67.070312 174.015625 " fill-opacity="1" fill-rule="nonzero"/><path fill="#000000" d="M 264.242188 81.449219 C 265.160156 82.007812 266.285156 82.894531 266.328125 84.082031 C 266.363281 85.132812 266.125 85.898438 265.894531 86.929688 C 265.175781 90.191406 270.203125 89.503906 271.535156 89.355469 C 274.65625 89.003906 275.136719 90.011719 275.070312 93.519531 C 274.976562 98.503906 281.734375 94.652344 283.574219 97.851562 C 284.382812 99.253906 283.539062 101.832031 285.117188 102.707031 C 286.832031 103.664062 292.355469 101.75 294.046875 102.863281 C 295.949219 104.121094 295.421875 107.199219 298.5625 107.207031 C 300.371094 107.214844 302.554688 106.601562 304.316406 107.179688 C 305.996094 107.726562 306.890625 108.570312 307.871094 110.023438 C 308.449219 110.878906 308.582031 111.84375 308.617188 112.847656 L 317.492188 102.878906 L 265.828125 75.621094 C 265.746094 75.566406 265.660156 75.519531 265.5625 75.480469 C 265.089844 75.28125 264.539062 75.265625 263.953125 75.496094 L 255.492188 78.535156 C 256.433594 81.496094 261.738281 79.929688 264.242188 81.449219 Z M 264.242188 81.449219 " fill-opacity="1" fill-rule="nonzero"/><path fill="#000000" d="M 112.757812 327.550781 C 111.410156 327.550781 110.039062 326.589844 109.4375 325.402344 C 108.675781 323.917969 108.558594 322.527344 108.585938 320.875 C 108.667969 316.210938 103.488281 319.0625 101.074219 319.851562 C 99.988281 320.210938 98.222656 319.703125 97.617188 318.675781 C 96.042969 315.984375 96.132812 312.519531 91.300781 313.347656 C 88.136719 313.894531 85.476562 313.433594 84.105469 310.214844 C 83.445312 308.675781 82.605469 305.394531 79.679688 307.269531 C 78.808594 307.828125 78.140625 308.210938 77.144531 308.417969 C 75.730469 308.714844 74.242188 307.824219 73.355469 306.820312 C 71.617188 304.851562 72.441406 301.363281 68.871094 300.867188 C 66.519531 300.539062 64.742188 302.402344 62.410156 302.140625 C 59.140625 301.777344 58.367188 298.074219 56.535156 295.621094 L 56.699219 304.835938 C 56.722656 306.230469 57.261719 307.253906 58.0625 307.695312 L 58.058594 307.699219 L 58.101562 307.722656 C 58.113281 307.730469 58.121094 307.734375 58.128906 307.738281 L 109.53125 336.527344 L 117.542969 327.527344 C 116.097656 327.382812 114.554688 327.554688 112.757812 327.550781 Z M 112.757812 327.550781 " fill-opacity="1" fill-rule="nonzero"/><g clip-path="url(#4f84fdc3c9)"><path fill="#000000" d="M 109.679688 336.019531 L 57.023438 307.746094 C 56.394531 307.0625 56.027344 306.039062 56.007812 304.847656 L 53.492188 162.570312 C 53.449219 159.980469 54.960938 157.339844 56.941406 156.554688 L 263.699219 74.851562 C 264.421875 74.566406 265.164062 74.566406 265.832031 74.839844 C 265.964844 74.898438 266.082031 74.960938 266.199219 75.035156 L 318.007812 103.335938 Z M 59.273438 307.585938 L 109.386719 334.269531 L 316.390625 103.074219 L 265.507812 76.230469 C 265.410156 76.171875 265.355469 76.140625 265.296875 76.117188 C 264.960938 75.972656 264.59375 75.984375 264.207031 76.136719 L 57.453125 157.835938 C 56.019531 158.402344 54.84375 160.558594 54.875 162.546875 L 57.390625 304.824219 C 57.410156 305.90625 57.785156 306.753906 58.398438 307.089844 L 59.285156 307.578125 Z M 59.273438 307.585938 " fill-opacity="1" fill-rule="nonzero"/></g><path fill="#00bfc3" d="M 320.816406 249.699219 C 320.855469 251.988281 319.507812 254.390625 317.804688 255.066406 L 111.589844 335.953125 C 109.886719 336.628906 108.359375 335.832031 108.320312 333.542969 L 105.375 191.5625 C 105.335938 189.273438 106.683594 186.871094 108.390625 186.199219 L 314.980469 103.789062 C 316.683594 103.113281 318.800781 104.328125 318.839844 106.617188 Z M 320.816406 249.699219 " fill-opacity="1" fill-rule="nonzero"/><path fill="#000000" d="M 91.023438 321.222656 L 88.082031 186.050781 C 88.035156 183.457031 89.550781 180.816406 91.53125 180.03125 L 298.121094 97.625 L 298.632812 98.90625 L 92.042969 181.316406 C 90.609375 181.882812 89.429688 184.039062 89.464844 186.023438 L 92.410156 321.195312 Z M 91.023438 321.222656 " fill-opacity="1" fill-rule="nonzero"/><path fill="#000000" d="M 318.320312 254.859375 L 111.5625 336.5625 C 109.578125 337.34375 107.925781 335.8125 107.875 333.148438 L 105.363281 190.871094 C 105.316406 188.207031 106.894531 185.398438 108.878906 184.613281 L 315.632812 102.914062 C 317.617188 102.128906 319.273438 103.660156 319.320312 106.328125 L 321.832031 248.605469 C 321.878906 251.269531 320.300781 254.074219 318.320312 254.859375 Z M 108.902344 185.996094 C 107.484375 186.554688 106.359375 188.5625 106.390625 190.464844 L 108.90625 332.742188 C 108.941406 334.644531 110.121094 335.738281 111.539062 335.179688 L 318.292969 253.480469 C 319.710938 252.917969 320.835938 250.914062 320.804688 249.011719 L 318.289062 106.734375 C 318.253906 104.828125 317.074219 103.734375 315.65625 104.296875 Z M 108.902344 185.996094 " fill-opacity="1" fill-rule="nonzero"/><path fill="#ffd33b" d="M 256.011719 275.308594 C 256.054688 277.597656 254.703125 279.996094 253 280.671875 L 175.851562 311.15625 C 174.148438 311.832031 172.734375 310.519531 172.691406 308.234375 L 171.03125 214.300781 C 170.992188 212.011719 172.339844 209.609375 174.046875 208.9375 L 251.195312 178.453125 C 252.898438 177.777344 254.3125 179.085938 254.351562 181.375 Z M 256.011719 275.308594 " fill-opacity="1" fill-rule="nonzero"/><path fill="#000000" d="M 253.511719 280.46875 L 176.367188 310.953125 C 174.382812 311.738281 172.730469 310.207031 172.679688 307.542969 L 171.019531 213.613281 C 170.972656 210.945312 172.550781 208.136719 174.535156 207.355469 L 251.683594 176.867188 C 253.667969 176.082031 255.320312 177.613281 255.371094 180.28125 L 257.03125 274.210938 C 257.074219 276.875 255.5 279.683594 253.511719 280.46875 Z M 174.5625 208.734375 C 173.144531 209.296875 172.015625 211.300781 172.050781 213.203125 L 173.710938 307.132812 C 173.746094 309.039062 174.925781 310.128906 176.34375 309.574219 L 253.492188 279.085938 C 254.910156 278.527344 256.035156 276.519531 256 274.617188 L 254.339844 180.6875 C 254.308594 178.78125 253.125 177.691406 251.710938 178.25 Z M 174.5625 208.734375 " fill-opacity="1" fill-rule="nonzero"/><path fill="#ff2273" d="M 245.628906 273.847656 L 183.910156 298.234375 L 183.714844 287.183594 L 245.433594 262.796875 Z M 245.628906 273.847656 " fill-opacity="1" fill-rule="nonzero"/><path fill="#000000" d="M 194.222656 295.550781 L 182.90625 300.023438 L 182.664062 286.210938 L 193.976562 281.738281 Z M 183.910156 298.234375 L 193.167969 294.578125 L 192.972656 283.527344 L 183.714844 287.183594 Z M 183.910156 298.234375 " fill-opacity="1" fill-rule="nonzero"/><path fill="#000000" d="M 204.507812 291.488281 L 193.191406 295.957031 L 192.949219 282.144531 L 204.265625 277.675781 Z M 194.195312 294.167969 L 203.457031 290.511719 L 203.261719 279.464844 L 194.003906 283.121094 Z M 194.195312 294.167969 " fill-opacity="1" fill-rule="nonzero"/><path fill="#000000" d="M 214.792969 287.421875 L 203.480469 291.894531 L 203.234375 278.078125 L 214.550781 273.609375 Z M 204.484375 290.105469 L 213.742188 286.449219 L 213.546875 275.398438 L 204.289062 279.054688 Z M 204.484375 290.105469 " fill-opacity="1" fill-rule="nonzero"/><path fill="#000000" d="M 225.082031 283.359375 L 213.765625 287.828125 L 213.523438 274.015625 L 224.835938 269.542969 Z M 214.769531 286.039062 L 224.027344 282.382812 L 223.832031 271.332031 L 214.574219 274.992188 Z M 214.769531 286.039062 " fill-opacity="1" fill-rule="nonzero"/><path fill="#000000" d="M 235.367188 279.292969 L 224.050781 283.765625 L 223.808594 269.953125 L 235.121094 265.480469 Z M 225.054688 281.976562 L 234.316406 278.320312 L 234.117188 267.269531 L 224.863281 270.925781 Z M 225.054688 281.976562 " fill-opacity="1" fill-rule="nonzero"/><path fill="#000000" d="M 245.652344 275.226562 L 234.339844 279.699219 L 234.09375 265.886719 L 245.410156 261.414062 Z M 235.34375 277.914062 L 244.601562 274.253906 L 244.40625 263.203125 L 235.148438 266.859375 Z M 235.34375 277.914062 " fill-opacity="1" fill-rule="nonzero"/><path fill="#00bfc3" d="M 182.597656 277.507812 C 180.898438 278.179688 179.390625 276.898438 179.351562 274.617188 L 178.378906 219.667969 C 178.339844 217.386719 179.78125 214.9375 181.476562 214.269531 L 245.0625 189.144531 C 246.761719 188.476562 248.285156 189.75 248.324219 192.027344 L 249.300781 246.980469 C 249.339844 249.257812 247.878906 251.714844 246.179688 252.386719 Z M 182.597656 277.507812 " fill-opacity="1" fill-rule="nonzero"/><path fill="#000000" d="M 246.0625 253.128906 L 182.867188 278.097656 C 180.941406 278.855469 179.398438 277.328125 179.351562 274.617188 L 178.378906 219.667969 C 178.332031 216.957031 179.800781 214.238281 181.722656 213.476562 L 244.921875 188.507812 C 246.8125 187.757812 248.277344 189.273438 248.324219 192.027344 L 249.296875 246.980469 C 249.347656 249.738281 247.957031 252.378906 246.0625 253.128906 Z M 181.746094 214.859375 C 180.378906 215.398438 179.375 217.292969 179.40625 219.261719 L 180.378906 274.210938 C 180.414062 276.179688 181.472656 277.257812 182.839844 276.714844 L 246.039062 251.746094 C 247.542969 251.152344 248.296875 249.101562 248.269531 247.386719 L 247.296875 192.4375 C 247.265625 190.722656 246.449219 189.292969 244.945312 189.886719 Z M 181.746094 214.859375 " fill-opacity="1" fill-rule="nonzero"/><path fill="#ffffff" d="M 181.722656 228.320312 C 180.027344 228.996094 178.519531 227.710938 178.480469 225.429688 L 178.378906 219.660156 C 178.339844 217.378906 179.777344 214.933594 181.472656 214.265625 L 245.0625 189.140625 C 246.761719 188.46875 248.285156 189.746094 248.324219 192.023438 L 248.429688 197.796875 C 248.46875 200.074219 247.011719 202.53125 245.3125 203.199219 Z M 181.722656 228.320312 " fill-opacity="1" fill-rule="nonzero"/><path fill="#000000" d="M 245.195312 203.941406 L 181.992188 228.910156 C 180.074219 229.667969 178.527344 228.140625 178.480469 225.429688 L 178.378906 219.660156 C 178.332031 216.949219 179.796875 214.230469 181.71875 213.472656 L 244.921875 188.5 C 246.816406 187.753906 248.277344 189.269531 248.324219 192.023438 L 248.429688 197.796875 C 248.476562 200.554688 247.089844 203.195312 245.195312 203.941406 Z M 181.742188 214.851562 C 180.375 215.390625 179.375 217.285156 179.40625 219.253906 L 179.511719 225.023438 C 179.546875 226.992188 180.601562 228.070312 181.964844 227.53125 L 245.171875 202.558594 C 246.675781 201.964844 247.429688 199.917969 247.402344 198.203125 L 247.300781 192.433594 C 247.269531 190.71875 246.449219 189.292969 244.949219 189.882812 Z M 181.742188 214.851562 " fill-opacity="1" fill-rule="nonzero"/><path fill="#ff2273" d="M 191.652344 262.929688 C 189.957031 263.601562 188.457031 262.316406 188.414062 260.039062 L 188.03125 238.261719 C 187.992188 235.984375 189.503906 233.429688 191.199219 232.761719 L 236.195312 214.976562 C 237.894531 214.308594 239.421875 215.65625 239.460938 217.9375 L 239.84375 239.710938 C 239.886719 241.988281 238.4375 244.441406 236.742188 245.109375 Z M 191.652344 262.929688 " fill-opacity="1" fill-rule="nonzero"/><path fill="#000000" d="M 191.921875 263.519531 C 190.003906 264.277344 188.460938 262.746094 188.414062 260.035156 L 188.03125 238.261719 C 187.984375 235.660156 189.199219 233.550781 191.199219 232.761719 L 236.195312 214.976562 C 238.195312 214.191406 239.414062 215.292969 239.460938 217.9375 L 239.84375 239.710938 C 239.894531 242.511719 238.539062 245.09375 236.625 245.851562 Z M 191.222656 234.144531 C 190.214844 234.542969 189.015625 235.507812 189.058594 237.855469 L 189.445312 259.632812 C 189.480469 261.601562 190.535156 262.675781 191.898438 262.140625 L 236.597656 244.472656 C 237.941406 243.941406 238.855469 242.152344 238.816406 240.117188 L 238.429688 218.34375 C 238.398438 216.460938 237.65625 215.792969 236.21875 216.363281 Z M 191.222656 234.144531 " fill-opacity="1" fill-rule="nonzero"/><path fill="#000000" d="M 203.519531 243.289062 C 203.59375 247.417969 201.15625 251.75 198.082031 252.964844 C 195.007812 254.179688 192.457031 251.820312 192.382812 247.6875 C 192.308594 243.558594 194.746094 239.226562 197.820312 238.011719 C 200.894531 236.796875 203.445312 239.160156 203.519531 243.289062 Z M 203.519531 243.289062 " fill-opacity="1" fill-rule="nonzero"/><path fill="#ffd33b" d="M 198.109375 254.347656 C 197.90625 254.425781 197.703125 254.492188 197.503906 254.546875 C 196.9375 254.703125 196.507812 254.195312 196.546875 253.417969 C 196.585938 252.636719 197.074219 251.878906 197.640625 251.722656 C 198.195312 251.574219 198.769531 251.277344 199.300781 250.859375 C 199.84375 250.4375 200.421875 250.636719 200.589844 251.308594 C 200.757812 251.980469 200.453125 252.871094 199.910156 253.296875 C 199.328125 253.75 198.722656 254.105469 198.109375 254.347656 Z M 193.316406 252.683594 C 192.972656 252.820312 192.632812 252.722656 192.429688 252.375 C 191.980469 251.613281 191.667969 250.710938 191.496094 249.691406 C 191.378906 248.984375 191.734375 248.113281 192.289062 247.753906 C 192.847656 247.390625 193.390625 247.671875 193.511719 248.382812 C 193.625 249.082031 193.84375 249.703125 194.152344 250.226562 C 194.464844 250.757812 194.332031 251.667969 193.855469 252.261719 C 193.6875 252.46875 193.503906 252.609375 193.316406 252.683594 Z M 203.21875 247.519531 C 203.09375 247.566406 202.96875 247.585938 202.84375 247.570312 C 202.308594 247.507812 202.03125 246.808594 202.226562 246.015625 C 202.414062 245.238281 202.503906 244.453125 202.488281 243.695312 C 202.476562 242.933594 202.925781 242.132812 203.496094 241.910156 C 204.0625 241.683594 204.535156 242.117188 204.546875 242.882812 C 204.566406 243.984375 204.433594 245.121094 204.160156 246.257812 C 204.011719 246.867188 203.628906 247.355469 203.21875 247.519531 Z M 193.765625 243.476562 C 193.519531 243.574219 193.265625 243.550781 193.066406 243.390625 C 192.636719 243.042969 192.589844 242.179688 192.960938 241.464844 C 193.496094 240.433594 194.132812 239.515625 194.855469 238.738281 C 195.359375 238.195312 195.980469 238.226562 196.246094 238.808594 C 196.515625 239.386719 196.324219 240.296875 195.824219 240.839844 C 195.324219 241.375 194.886719 242.011719 194.519531 242.71875 C 194.320312 243.101562 194.042969 243.367188 193.765625 243.476562 Z M 201.992188 240.195312 C 201.710938 240.304688 201.433594 240.265625 201.222656 240.046875 C 200.832031 239.640625 200.375 239.367188 199.867188 239.230469 C 199.351562 239.089844 199.128906 238.34375 199.367188 237.5625 C 199.605469 236.777344 200.21875 236.253906 200.738281 236.394531 C 201.476562 236.589844 202.140625 236.988281 202.707031 237.582031 C 203.101562 237.992188 203.085938 238.875 202.679688 239.558594 C 202.484375 239.878906 202.238281 240.097656 201.992188 240.195312 Z M 201.992188 240.195312 " fill-opacity="1" fill-rule="nonzero"/><path fill="#000000" d="M 235.5 230.652344 C 235.570312 234.78125 233.140625 239.113281 230.0625 240.328125 C 226.988281 241.542969 224.4375 239.183594 224.363281 235.050781 C 224.292969 230.921875 226.726562 226.589844 229.800781 225.375 C 232.875 224.160156 235.425781 226.523438 235.5 230.652344 Z M 235.5 230.652344 " fill-opacity="1" fill-rule="nonzero"/><path fill="#ffd33b" d="M 230.085938 241.710938 C 229.886719 241.789062 229.683594 241.855469 229.484375 241.910156 C 228.917969 242.066406 228.488281 241.558594 228.527344 240.777344 C 228.566406 240 229.054688 239.242188 229.625 239.085938 C 230.175781 238.933594 230.75 238.640625 231.28125 238.222656 C 231.824219 237.796875 232.402344 237.996094 232.570312 238.671875 C 232.738281 239.34375 232.433594 240.234375 231.890625 240.65625 C 231.308594 241.113281 230.703125 241.464844 230.085938 241.710938 Z M 225.296875 240.046875 C 224.953125 240.183594 224.613281 240.085938 224.410156 239.738281 C 223.960938 238.976562 223.648438 238.074219 223.480469 237.054688 C 223.363281 236.347656 223.714844 235.476562 224.273438 235.117188 C 224.828125 234.757812 225.375 235.039062 225.492188 235.746094 C 225.609375 236.445312 225.824219 237.066406 226.132812 237.589844 C 226.445312 238.121094 226.3125 239.03125 225.835938 239.625 C 225.667969 239.832031 225.484375 239.972656 225.296875 240.046875 Z M 235.195312 234.882812 C 235.074219 234.929688 234.945312 234.949219 234.824219 234.9375 C 234.289062 234.867188 234.011719 234.171875 234.203125 233.378906 C 234.394531 232.601562 234.484375 231.816406 234.46875 231.058594 C 234.457031 230.296875 234.90625 229.496094 235.472656 229.273438 C 236.042969 229.046875 236.515625 229.480469 236.527344 230.246094 C 236.546875 231.347656 236.414062 232.484375 236.140625 233.621094 C 235.992188 234.230469 235.609375 234.71875 235.195312 234.882812 Z M 225.746094 230.835938 C 225.5 230.9375 225.246094 230.914062 225.046875 230.75 C 224.617188 230.402344 224.570312 229.542969 224.941406 228.828125 C 225.476562 227.796875 226.113281 226.878906 226.835938 226.097656 C 227.339844 225.554688 227.960938 225.585938 228.230469 226.167969 C 228.496094 226.746094 228.304688 227.660156 227.804688 228.203125 C 227.304688 228.738281 226.867188 229.371094 226.5 230.082031 C 226.300781 230.464844 226.023438 230.726562 225.746094 230.835938 Z M 233.972656 227.558594 C 233.691406 227.667969 233.414062 227.628906 233.203125 227.410156 C 232.8125 227.003906 232.355469 226.726562 231.847656 226.589844 C 231.332031 226.453125 231.109375 225.707031 231.351562 224.925781 C 231.589844 224.144531 232.203125 223.617188 232.71875 223.753906 C 233.457031 223.953125 234.121094 224.355469 234.6875 224.945312 C 235.082031 225.355469 235.070312 226.238281 234.660156 226.921875 C 234.464844 227.242188 234.21875 227.460938 233.972656 227.558594 Z M 233.972656 227.558594 " fill-opacity="1" fill-rule="nonzero"/><path fill="#000000" d="M 221.1875 238.992188 L 206.789062 244.683594 L 206.667969 237.777344 L 221.066406 232.085938 Z M 221.1875 238.992188 " fill-opacity="1" fill-rule="nonzero"/><path fill="#ffd33b" d="M 216.046875 241.027344 L 211.933594 242.652344 L 211.808594 235.746094 L 215.925781 234.117188 Z M 216.046875 241.027344 " fill-opacity="1" fill-rule="nonzero"/><path fill="#ffd33b" d="M 166.996094 262.339844 C 167.351562 282.429688 155.515625 303.503906 140.554688 309.414062 C 125.597656 315.324219 113.183594 303.832031 112.828125 283.746094 C 112.472656 263.660156 124.3125 242.582031 139.269531 236.667969 C 154.230469 230.761719 166.640625 242.253906 166.996094 262.339844 Z M 166.996094 262.339844 " fill-opacity="1" fill-rule="nonzero"/><path fill="#000000" d="M 140.566406 310.105469 C 125.347656 316.117188 112.675781 304.386719 112.3125 283.949219 C 111.953125 263.511719 124.039062 241.996094 139.257812 235.980469 C 154.476562 229.964844 167.148438 241.703125 167.511719 262.136719 C 167.871094 282.574219 155.785156 304.09375 140.566406 310.105469 Z M 139.28125 237.363281 C 124.632812 243.152344 112.996094 263.867188 113.34375 283.539062 C 113.691406 303.21875 125.890625 314.515625 140.542969 308.722656 C 155.195312 302.933594 166.832031 282.21875 166.480469 262.542969 C 166.136719 242.867188 153.933594 231.570312 139.28125 237.363281 Z M 139.28125 237.363281 " fill-opacity="1" fill-rule="nonzero"/><path fill="#000000" d="M 140.375 299.234375 C 129.621094 303.484375 120.664062 295.191406 120.410156 280.75 C 120.152344 266.308594 128.695312 251.101562 139.449219 246.851562 C 150.203125 242.601562 159.164062 250.894531 159.417969 265.335938 C 159.671875 279.777344 151.132812 294.984375 140.375 299.234375 Z M 139.472656 248.230469 C 129.285156 252.257812 121.195312 266.664062 121.4375 280.34375 C 121.679688 294.023438 130.164062 301.878906 140.351562 297.851562 C 150.539062 293.828125 158.628906 279.425781 158.386719 265.742188 C 158.144531 252.0625 149.660156 244.207031 139.472656 248.230469 Z M 139.472656 248.230469 " fill-opacity="1" fill-rule="nonzero"/><path fill="#000000" d="M 148.296875 269.730469 C 148.40625 275.949219 144.742188 282.472656 140.113281 284.300781 C 135.484375 286.132812 131.640625 282.574219 131.53125 276.355469 C 131.417969 270.140625 135.085938 263.613281 139.714844 261.785156 C 144.34375 259.953125 148.183594 263.511719 148.296875 269.730469 Z M 148.296875 269.730469 " fill-opacity="1" fill-rule="nonzero"/><path fill="#ffd33b" d="M 315.121094 203.808594 C 315.476562 223.894531 303.636719 244.972656 288.679688 250.882812 C 273.71875 256.792969 261.304688 245.300781 260.949219 225.214844 C 260.59375 205.125 272.433594 184.050781 287.394531 178.140625 C 302.351562 172.230469 314.765625 183.722656 315.121094 203.808594 Z M 315.121094 203.808594 " fill-opacity="1" fill-rule="nonzero"/><path fill="#000000" d="M 288.691406 251.574219 C 273.472656 257.585938 260.796875 245.851562 260.4375 225.417969 C 260.074219 204.980469 272.164062 183.464844 287.382812 177.449219 C 302.597656 171.4375 315.273438 183.171875 315.632812 203.605469 C 315.996094 224.042969 303.910156 245.558594 288.691406 251.574219 Z M 287.40625 178.832031 C 272.753906 184.617188 261.117188 205.335938 261.464844 225.007812 C 261.8125 244.683594 274.015625 255.980469 288.667969 250.191406 C 303.316406 244.402344 314.953125 223.6875 314.605469 204.011719 C 314.257812 184.335938 302.058594 173.042969 287.40625 178.832031 Z M 287.40625 178.832031 " fill-opacity="1" fill-rule="nonzero"/><path fill="#000000" d="M 288.5 240.703125 C 277.746094 244.953125 268.789062 236.660156 268.53125 222.21875 C 268.277344 207.777344 276.820312 192.570312 287.574219 188.320312 C 298.328125 184.070312 307.285156 192.363281 307.539062 206.804688 C 307.792969 221.246094 299.253906 236.453125 288.5 240.703125 Z M 287.597656 189.699219 C 277.410156 193.726562 269.320312 208.105469 269.558594 221.789062 C 269.800781 235.46875 278.289062 243.414062 288.476562 239.277344 C 298.664062 235.140625 306.753906 220.871094 306.511719 207.1875 C 306.269531 193.507812 297.785156 185.675781 287.597656 189.699219 Z M 287.597656 189.699219 " fill-opacity="1" fill-rule="nonzero"/><path fill="#000000" d="M 296.417969 211.199219 C 296.527344 217.414062 292.863281 223.941406 288.234375 225.769531 C 283.605469 227.601562 279.761719 224.042969 279.652344 217.824219 C 279.542969 211.605469 283.207031 205.082031 287.839844 203.253906 C 292.46875 201.421875 296.308594 204.980469 296.417969 211.199219 Z M 296.417969 211.199219 " fill-opacity="1" fill-rule="nonzero"/><path fill="#000000" d="M 320.113281 151.21875 L 106.15625 235.765625 L 106.132812 234.382812 L 320.085938 149.835938 Z M 320.113281 151.21875 " fill-opacity="1" fill-rule="nonzero"/><path fill="#ff2273" d="M 295.011719 137.492188 C 295.050781 139.78125 293.703125 142.179688 291.996094 142.855469 L 133.589844 205.453125 C 131.886719 206.125 130.46875 204.816406 130.429688 202.527344 L 130.210938 190.097656 C 130.171875 187.808594 131.519531 185.40625 133.222656 184.734375 L 291.632812 122.136719 C 293.335938 121.460938 294.75 122.769531 294.792969 125.058594 Z M 295.011719 137.492188 " fill-opacity="1" fill-rule="nonzero"/><path fill="#000000" d="M 291.484375 143.058594 L 133.074219 205.652344 C 131.089844 206.4375 129.4375 204.90625 129.390625 202.242188 L 129.167969 189.8125 C 129.121094 187.144531 130.699219 184.339844 132.683594 183.554688 L 291.09375 120.960938 C 293.078125 120.175781 294.730469 121.703125 294.78125 124.371094 L 295 136.800781 C 295.042969 139.46875 293.46875 142.273438 291.484375 143.058594 Z M 132.707031 184.933594 C 131.289062 185.496094 130.164062 187.5 130.195312 189.402344 L 130.417969 201.835938 C 130.449219 203.738281 131.632812 204.832031 133.050781 204.273438 L 291.460938 141.675781 C 292.878906 141.117188 294.003906 139.113281 293.96875 137.207031 L 293.75 124.773438 C 293.714844 122.871094 292.535156 121.777344 291.117188 122.339844 Z M 132.707031 184.933594 " fill-opacity="1" fill-rule="nonzero"/><path fill="#000000" d="M 289.746094 132.617188 L 135.449219 193.589844 C 135.167969 193.699219 134.929688 193.480469 134.921875 193.101562 C 134.917969 192.71875 135.140625 192.320312 135.425781 192.207031 L 289.722656 131.238281 C 290.003906 131.125 290.242188 131.34375 290.25 131.726562 C 290.253906 132.105469 290.03125 132.507812 289.746094 132.617188 Z M 289.746094 132.617188 " fill-opacity="1" fill-rule="nonzero"/><path fill="#ffd33b" d="M 285.835938 136.8125 C 285.953125 143.414062 282.0625 150.339844 277.148438 152.28125 C 272.230469 154.222656 268.152344 150.449219 268.035156 143.847656 C 267.917969 137.246094 271.808594 130.320312 276.726562 128.378906 C 281.640625 126.4375 285.71875 130.210938 285.835938 136.8125 Z M 285.835938 136.8125 " fill-opacity="1" fill-rule="nonzero"/><path fill="#000000" d="M 277.160156 152.972656 C 271.96875 155.023438 267.644531 151.023438 267.523438 144.050781 C 267.398438 137.078125 271.523438 129.738281 276.714844 127.6875 C 281.902344 125.636719 286.226562 129.640625 286.347656 136.609375 C 286.472656 143.582031 282.347656 150.921875 277.160156 152.972656 Z M 276.738281 129.070312 C 272.113281 130.894531 268.441406 137.433594 268.550781 143.644531 C 268.660156 149.855469 272.511719 153.417969 277.136719 151.589844 C 281.757812 149.765625 285.429688 143.226562 285.320312 137.015625 C 285.210938 130.808594 281.359375 127.242188 276.738281 129.070312 Z M 276.738281 129.070312 " fill-opacity="1" fill-rule="nonzero"/><path fill="#ff2273" d="M 125.480469 215.609375 C 125.523438 217.898438 124.171875 220.300781 122.46875 220.972656 L 115.269531 223.816406 C 113.5625 224.492188 112.148438 223.183594 112.109375 220.894531 L 111.890625 208.460938 C 111.847656 206.171875 113.199219 203.773438 114.902344 203.097656 L 122.105469 200.253906 C 123.804688 199.578125 125.222656 200.890625 125.261719 203.179688 Z M 125.480469 215.609375 " fill-opacity="1" fill-rule="nonzero"/><path fill="#000000" d="M 121.953125 221.175781 L 114.753906 224.023438 C 112.769531 224.804688 111.117188 223.273438 111.066406 220.609375 L 110.847656 208.175781 C 110.800781 205.511719 112.378906 202.707031 114.363281 201.921875 L 121.5625 199.074219 C 123.546875 198.289062 125.203125 199.824219 125.246094 202.488281 L 125.46875 214.921875 C 125.515625 217.585938 123.9375 220.394531 121.953125 221.175781 Z M 114.386719 203.300781 C 112.96875 203.863281 111.84375 205.867188 111.878906 207.769531 L 112.097656 220.203125 C 112.132812 222.105469 113.3125 223.199219 114.730469 222.640625 L 121.929688 219.792969 C 123.347656 219.234375 124.472656 217.230469 124.441406 215.324219 L 124.222656 202.894531 C 124.1875 200.992188 123.007812 199.898438 121.589844 200.457031 Z M 114.386719 203.300781 " fill-opacity="1" fill-rule="nonzero"/><path fill="#000000" d="M 125.042969 190.746094 C 125.054688 191.507812 124.605469 192.308594 124.039062 192.535156 L 112.722656 197.003906 C 112.15625 197.226562 111.683594 196.792969 111.671875 196.027344 L 111.597656 191.886719 C 111.585938 191.121094 112.03125 190.320312 112.601562 190.097656 L 123.917969 185.628906 C 124.484375 185.402344 124.957031 185.839844 124.96875 186.601562 Z M 125.042969 190.746094 " fill-opacity="1" fill-rule="nonzero"/><path fill="#ffd33b" d="M 119.175781 190.921875 C 119.195312 192.121094 118.492188 193.378906 117.597656 193.730469 C 116.703125 194.085938 115.964844 193.398438 115.941406 192.199219 C 115.921875 191 116.628906 189.742188 117.519531 189.390625 C 118.414062 189.039062 119.15625 189.722656 119.175781 190.921875 Z M 119.175781 190.921875 " fill-opacity="1" fill-rule="nonzero"/><path fill="#ff2273" d="M 314.75 140.820312 C 314.789062 143.105469 313.441406 145.511719 311.734375 146.183594 L 304.535156 149.027344 C 302.832031 149.703125 301.417969 148.390625 301.378906 146.105469 L 301.15625 133.671875 C 301.117188 131.382812 302.464844 128.980469 304.171875 128.308594 L 311.371094 125.460938 C 313.074219 124.789062 314.492188 126.097656 314.53125 128.386719 Z M 314.75 140.820312 " fill-opacity="1" fill-rule="nonzero"/><path fill="#000000" d="M 311.222656 146.386719 L 304.023438 149.230469 C 302.035156 150.015625 300.382812 148.484375 300.335938 145.820312 L 300.117188 133.386719 C 300.070312 130.722656 301.644531 127.914062 303.632812 127.128906 L 310.828125 124.285156 C 312.816406 123.5 314.46875 125.03125 314.515625 127.695312 L 314.738281 140.128906 C 314.785156 142.792969 313.207031 145.601562 311.222656 146.386719 Z M 303.65625 128.511719 C 302.238281 129.070312 301.109375 131.078125 301.148438 132.980469 L 301.363281 145.414062 C 301.398438 147.316406 302.582031 148.410156 303.996094 147.851562 L 311.199219 145.003906 C 312.617188 144.445312 313.742188 142.441406 313.707031 140.535156 L 313.488281 128.105469 C 313.453125 126.199219 312.273438 125.109375 310.855469 125.667969 Z M 303.65625 128.511719 " fill-opacity="1" fill-rule="nonzero"/><path fill="#000000" d="M 314.308594 115.957031 C 314.324219 116.71875 313.875 117.519531 313.308594 117.742188 L 301.992188 122.214844 C 301.421875 122.4375 300.953125 122 300.941406 121.238281 L 300.867188 117.09375 C 300.855469 116.332031 301.300781 115.53125 301.871094 115.308594 L 313.1875 110.835938 C 313.753906 110.613281 314.222656 111.050781 314.238281 111.8125 Z M 314.308594 115.957031 " fill-opacity="1" fill-rule="nonzero"/><path fill="#ffd33b" d="M 308.367188 116.164062 C 308.386719 117.363281 307.679688 118.621094 306.789062 118.972656 C 305.894531 119.324219 305.152344 118.640625 305.132812 117.441406 C 305.113281 116.242188 305.820312 114.984375 306.710938 114.628906 C 307.605469 114.277344 308.34375 114.964844 308.367188 116.164062 Z M 308.367188 116.164062 " fill-opacity="1" fill-rule="nonzero"/><path fill="#ffd33b" d="M 200.605469 187.609375 C 200.65625 190.574219 198.910156 193.679688 196.707031 194.546875 C 194.503906 195.421875 192.675781 193.726562 192.621094 190.769531 C 192.566406 187.804688 194.3125 184.699219 196.519531 183.828125 C 198.71875 182.957031 200.550781 184.652344 200.605469 187.609375 Z M 200.605469 187.609375 " fill-opacity="1" fill-rule="nonzero"/><path fill="#000000" d="M 196.71875 195.238281 C 194.234375 196.222656 192.164062 194.304688 192.105469 190.96875 C 192.046875 187.632812 194.019531 184.121094 196.503906 183.136719 C 198.988281 182.15625 201.058594 184.070312 201.117188 187.40625 C 201.175781 190.746094 199.203125 194.257812 196.71875 195.238281 Z M 196.527344 184.519531 C 194.613281 185.277344 193.089844 187.988281 193.136719 190.5625 C 193.179688 193.136719 194.777344 194.613281 196.695312 193.855469 C 198.613281 193.101562 200.132812 190.386719 200.089844 187.816406 C 200.042969 185.238281 198.445312 183.761719 196.527344 184.519531 Z M 196.527344 184.519531 " fill-opacity="1" fill-rule="nonzero"/><path fill="#ffd33b" d="M 147.113281 208.75 C 147.167969 211.707031 145.421875 214.816406 143.21875 215.6875 C 141.011719 216.558594 139.183594 214.863281 139.132812 211.902344 C 139.078125 208.941406 140.824219 205.835938 143.03125 204.964844 C 145.230469 204.09375 147.0625 205.789062 147.113281 208.75 Z M 147.113281 208.75 " fill-opacity="1" fill-rule="nonzero"/><path fill="#000000" d="M 143.230469 216.375 C 140.746094 217.359375 138.675781 215.441406 138.617188 212.105469 C 138.558594 208.769531 140.53125 205.253906 143.015625 204.273438 C 145.5 203.292969 147.570312 205.207031 147.628906 208.542969 C 147.6875 211.882812 145.714844 215.394531 143.230469 216.375 Z M 143.039062 205.65625 C 141.125 206.414062 139.601562 209.125 139.648438 211.699219 C 139.691406 214.273438 141.289062 215.753906 143.207031 214.996094 C 145.125 214.238281 146.648438 211.527344 146.601562 208.953125 C 146.554688 206.378906 144.957031 204.898438 143.039062 205.65625 Z M 143.039062 205.65625 " fill-opacity="1" fill-rule="nonzero"/><path fill="#000000" d="M 145.175781 209.515625 C 145.203125 211.039062 144.304688 212.636719 143.171875 213.082031 C 142.039062 213.53125 141.09375 212.660156 141.066406 211.136719 C 141.042969 209.613281 141.941406 208.015625 143.074219 207.566406 C 144.207031 207.121094 145.148438 207.992188 145.175781 209.515625 Z M 145.175781 209.515625 " fill-opacity="1" fill-rule="nonzero"/><path fill="#000000" d="M 196.628906 197.234375 C 196.058594 197.457031 195.589844 197.023438 195.574219 196.261719 L 195.355469 183.828125 C 195.34375 183.0625 195.792969 182.261719 196.359375 182.039062 C 196.925781 181.816406 197.398438 182.25 197.414062 183.011719 L 197.632812 195.445312 C 197.644531 196.207031 197.195312 197.007812 196.628906 197.234375 Z M 196.628906 197.234375 " fill-opacity="1" fill-rule="nonzero"/><path fill="#ffd33b" d="M 216.957031 181.148438 C 217.011719 184.109375 215.265625 187.21875 213.0625 188.085938 C 210.855469 188.960938 209.027344 187.265625 208.976562 184.304688 C 208.921875 181.34375 210.667969 178.238281 212.875 177.367188 C 215.074219 176.496094 216.902344 178.1875 216.957031 181.148438 Z M 216.957031 181.148438 " fill-opacity="1" fill-rule="nonzero"/><path fill="#000000" d="M 213.070312 188.777344 C 210.589844 189.761719 208.519531 187.84375 208.460938 184.507812 C 208.398438 181.171875 210.375 177.65625 212.859375 176.675781 C 215.34375 175.695312 217.410156 177.609375 217.472656 180.945312 C 217.53125 184.28125 215.558594 187.796875 213.070312 188.777344 Z M 212.882812 178.054688 C 210.964844 178.8125 209.441406 181.523438 209.488281 184.101562 C 209.535156 186.675781 211.128906 188.152344 213.046875 187.394531 C 214.96875 186.640625 216.488281 183.929688 216.441406 181.351562 C 216.398438 178.777344 214.800781 177.300781 212.882812 178.054688 Z M 212.882812 178.054688 " fill-opacity="1" fill-rule="nonzero"/><path fill="#000000" d="M 213.085938 190.730469 C 212.519531 190.953125 212.046875 190.519531 212.035156 189.757812 L 211.8125 177.324219 C 211.800781 176.558594 212.25 175.757812 212.816406 175.535156 C 213.386719 175.3125 213.859375 175.746094 213.871094 176.511719 L 214.089844 188.941406 C 214.105469 189.703125 213.65625 190.503906 213.085938 190.730469 Z M 213.085938 190.730469 " fill-opacity="1" fill-rule="nonzero"/><path fill="#ffd33b" d="M 232.078125 171.476562 C 233.671875 172.953125 233.734375 176.34375 232.210938 179.054688 C 230.6875 181.765625 228.160156 182.761719 226.566406 181.285156 C 224.972656 179.808594 224.910156 176.414062 226.433594 173.707031 C 227.953125 170.996094 230.480469 170 232.078125 171.476562 Z M 232.078125 171.476562 " fill-opacity="1" fill-rule="nonzero"/><path fill="#000000" d="M 229.425781 182.433594 C 228.222656 182.90625 227.082031 182.726562 226.210938 181.917969 C 224.410156 180.253906 224.34375 176.414062 226.058594 173.359375 C 226.886719 171.882812 228.007812 170.804688 229.210938 170.332031 C 230.417969 169.855469 231.558594 170.039062 232.429688 170.84375 C 233.300781 171.648438 233.796875 172.984375 233.824219 174.601562 C 233.851562 176.214844 233.414062 177.921875 232.582031 179.398438 C 231.753906 180.882812 230.632812 181.957031 229.425781 182.433594 Z M 229.238281 171.710938 C 228.3125 172.078125 227.445312 172.90625 226.804688 174.050781 C 225.480469 176.40625 225.53125 179.371094 226.921875 180.652344 C 228.265625 181.898438 230.554688 180.992188 231.839844 178.710938 C 232.480469 177.570312 232.820312 176.253906 232.800781 175.007812 C 232.777344 173.757812 232.394531 172.730469 231.722656 172.109375 C 231.046875 171.484375 230.167969 171.34375 229.238281 171.710938 Z M 229.238281 171.710938 " fill-opacity="1" fill-rule="nonzero"/><path fill="#000000" d="M 232.773438 181.308594 C 232.507812 181.414062 232.242188 181.382812 232.035156 181.191406 L 225.335938 174.988281 C 224.925781 174.605469 224.910156 173.730469 225.300781 173.035156 C 225.695312 172.332031 226.347656 172.078125 226.757812 172.457031 L 233.457031 178.664062 C 233.867188 179.042969 233.886719 179.917969 233.492188 180.617188 C 233.296875 180.964844 233.035156 181.203125 232.773438 181.308594 Z M 232.773438 181.308594 " fill-opacity="1" fill-rule="nonzero"/><path fill="#000000" d="M 182.175781 200.160156 L 178.0625 201.785156 L 177.867188 190.734375 L 181.984375 189.109375 Z M 182.175781 200.160156 " fill-opacity="1" fill-rule="nonzero"/><path fill="#000000" d="M 155.238281 199.679688 L 155.285156 202.441406 L 151.171875 204.066406 L 151.125 201.304688 Z M 155.238281 199.679688 " fill-opacity="1" fill-rule="nonzero"/><path fill="#ffd33b" d="M 294.25 153.09375 L 254.132812 168.945312 C 253.28125 169.28125 252.574219 168.625 252.554688 167.480469 C 252.535156 166.335938 253.207031 165.136719 254.058594 164.800781 L 294.179688 148.949219 C 295.027344 148.613281 295.738281 149.265625 295.757812 150.414062 C 295.777344 151.554688 295.101562 152.757812 294.25 153.09375 Z M 294.25 153.09375 " fill-opacity="1" fill-rule="nonzero"/><path fill="#000000" d="M 164.496094 196.019531 L 164.546875 198.78125 L 160.429688 200.40625 L 160.382812 197.644531 Z M 164.496094 196.019531 " fill-opacity="1" fill-rule="nonzero"/><path fill="#000000" d="M 248.011719 174.148438 L 243.894531 175.773438 L 243.699219 164.722656 L 247.816406 163.09375 Z M 248.011719 174.148438 " fill-opacity="1" fill-rule="nonzero"/><path fill="#00bfc3" d="M 254.34375 89.15625 C 253.753906 87.746094 252.128906 87.089844 250.71875 87.679688 L 119.265625 142.964844 C 118.992188 142.777344 118.675781 142.640625 118.316406 142.640625 C 117.371094 142.640625 116.605469 143.40625 116.605469 144.347656 C 116.605469 145.296875 117.371094 146.058594 118.316406 146.058594 C 119.070312 146.058594 119.691406 145.570312 119.921875 144.898438 L 252.808594 92.800781 C 252.824219 92.792969 252.851562 92.78125 252.871094 92.773438 C 254.277344 92.179688 254.9375 90.558594 254.34375 89.15625 Z M 254.34375 89.15625 " fill-opacity="1" fill-rule="nonzero"/><path fill="#000000" d="M 251.792969 87.464844 C 252.871094 87.464844 253.902344 88.097656 254.34375 89.152344 C 254.9375 90.558594 254.277344 92.179688 252.871094 92.773438 C 252.851562 92.78125 252.824219 92.789062 252.808594 92.796875 L 119.917969 144.894531 C 119.691406 145.566406 119.070312 146.058594 118.316406 146.058594 C 117.371094 146.058594 116.605469 145.292969 116.605469 144.347656 C 116.605469 143.402344 117.371094 142.640625 118.316406 142.640625 C 118.675781 142.640625 118.988281 142.773438 119.265625 142.960938 L 250.71875 87.679688 C 251.070312 87.535156 251.4375 87.464844 251.792969 87.464844 M 251.792969 86.082031 C 251.238281 86.082031 250.695312 86.191406 250.183594 86.410156 L 119.316406 141.441406 C 118.992188 141.320312 118.65625 141.257812 118.316406 141.257812 C 116.609375 141.257812 115.222656 142.644531 115.222656 144.347656 C 115.222656 146.054688 116.609375 147.441406 118.316406 147.441406 C 119.390625 147.441406 120.367188 146.875 120.921875 145.984375 L 253.3125 94.082031 L 253.328125 94.078125 L 253.40625 94.042969 C 254.429688 93.617188 255.21875 92.8125 255.640625 91.789062 C 256.054688 90.765625 256.046875 89.636719 255.617188 88.617188 C 254.96875 87.078125 253.46875 86.082031 251.792969 86.082031 Z M 251.792969 86.082031 " fill-opacity="1" fill-rule="nonzero"/><path fill="#000000" d="M 239.277344 98.761719 C 237.910156 98.761719 236.621094 97.953125 236.074219 96.613281 C 235.351562 94.847656 236.199219 92.832031 237.96875 92.109375 L 250.433594 87.03125 C 252.203125 86.308594 254.222656 87.160156 254.945312 88.921875 C 255.667969 90.6875 254.816406 92.703125 253.050781 93.425781 L 240.582031 98.503906 C 240.152344 98.679688 239.710938 98.761719 239.277344 98.761719 Z M 239.277344 98.761719 " fill-opacity="1" fill-rule="nonzero"/><path fill="#000000" d="M 106.300781 235.5 L 89.054688 226.320312 L 89.707031 225.101562 L 106.949219 234.28125 Z M 106.300781 235.5 " fill-opacity="1" fill-rule="nonzero"/><path fill="#ffd33b" d="M 263.53125 103.90625 L 262.347656 53.566406 L 111.597656 112.992188 L 112.90625 166.371094 C 112.90625 166.371094 111.601562 167.832031 108.222656 167.832031 C 104.84375 167.832031 103.492188 166.601562 103.492188 166.601562 L 102.105469 109.960938 C 102.058594 107.992188 103.246094 106.191406 105.082031 105.46875 L 265.164062 42.355469 C 266.597656 41.796875 268.210938 41.960938 269.496094 42.808594 C 270.777344 43.660156 271.5625 45.078125 271.597656 46.617188 L 272.941406 103.6875 C 272.941406 103.6875 270.8125 104.929688 268.03125 104.929688 C 265.253906 104.929688 263.53125 103.90625 263.53125 103.90625 Z M 263.53125 103.90625 " fill-opacity="1" fill-rule="nonzero"/><g clip-path="url(#8f55629930)"><path fill="#000000" d="M 108.222656 168.519531 C 104.617188 168.519531 103.089844 167.167969 103.027344 167.109375 L 102.808594 166.910156 L 101.414062 109.976562 C 101.359375 107.722656 102.734375 105.648438 104.828125 104.824219 L 264.910156 41.714844 C 266.542969 41.074219 268.421875 41.273438 269.878906 42.234375 C 271.347656 43.207031 272.25 44.835938 272.289062 46.597656 L 273.644531 104.074219 L 273.292969 104.28125 C 273.199219 104.335938 270.964844 105.621094 268.03125 105.621094 C 265.097656 105.621094 263.253906 104.546875 263.175781 104.5 L 262.847656 104.304688 L 261.675781 54.574219 L 112.300781 113.457031 L 113.601562 166.628906 L 113.421875 166.832031 C 113.359375 166.898438 111.867188 168.519531 108.222656 168.519531 Z M 104.175781 166.238281 C 104.648438 166.527344 105.917969 167.136719 108.222656 167.136719 C 110.558594 167.136719 111.769531 166.40625 112.203125 166.066406 L 110.894531 112.527344 L 111.34375 112.351562 L 263.015625 52.558594 L 264.210938 103.472656 C 264.804688 103.738281 266.164062 104.238281 268.03125 104.238281 C 269.949219 104.238281 271.554688 103.59375 272.238281 103.265625 L 270.90625 46.632812 C 270.875 45.320312 270.203125 44.109375 269.113281 43.382812 C 268.03125 42.671875 266.628906 42.523438 265.417969 43 L 105.335938 106.109375 C 103.777344 106.722656 102.753906 108.261719 102.796875 109.945312 Z M 104.175781 166.238281 " fill-opacity="1" fill-rule="nonzero"/></g><path fill="#ffd33b" d="M 244.210938 125.96875 C 236.46875 129.003906 225.511719 128.839844 219.734375 125.605469 C 217.359375 124.277344 216.230469 122.632812 216.265625 120.949219 C 216.285156 119.875 216.28125 115.726562 216.28125 115.726562 L 251.238281 114.082031 C 251.238281 114.082031 251.0625 117.304688 251.21875 118.832031 C 251.332031 119.886719 250.976562 120.96875 250.175781 122.007812 C 249.050781 123.472656 247.042969 124.859375 244.210938 125.96875 Z M 244.210938 125.96875 " fill-opacity="1" fill-rule="nonzero"/><path fill="#000000" d="M 231.789062 128.832031 C 226.820312 128.832031 222.417969 127.898438 219.398438 126.207031 C 216.1875 124.414062 215.546875 122.351562 215.574219 120.9375 C 215.59375 119.863281 215.585938 115.726562 215.585938 115.726562 C 215.585938 115.359375 215.875 115.054688 216.246094 115.039062 L 251.203125 113.394531 C 251.402344 113.390625 251.589844 113.457031 251.726562 113.597656 C 251.863281 113.734375 251.9375 113.925781 251.929688 114.121094 C 251.925781 114.152344 251.757812 117.308594 251.910156 118.761719 C 252.035156 119.984375 251.625 121.253906 250.726562 122.429688 C 249.484375 124.046875 247.316406 125.492188 244.460938 126.613281 C 240.808594 128.042969 236.308594 128.832031 231.789062 128.832031 Z M 216.972656 116.382812 C 216.972656 117.601562 216.972656 120.152344 216.957031 120.964844 C 216.929688 122.449219 218.007812 123.847656 220.074219 125.003906 C 222.851562 126.558594 227.121094 127.453125 231.792969 127.453125 C 236.140625 127.453125 240.460938 126.699219 243.957031 125.324219 C 246.578125 124.300781 248.539062 123.003906 249.628906 121.585938 C 250.320312 120.6875 250.625 119.78125 250.53125 118.902344 C 250.417969 117.792969 250.46875 115.871094 250.511719 114.808594 Z M 216.972656 116.382812 " fill-opacity="1" fill-rule="nonzero"/><path fill="#ffd33b" d="M 244.210938 120.746094 C 236.46875 123.78125 225.511719 123.617188 219.734375 120.382812 C 213.960938 117.152344 215.554688 112.070312 223.296875 109.039062 C 231.039062 106.003906 241.992188 106.167969 247.769531 109.398438 C 253.542969 112.632812 251.949219 117.714844 244.210938 120.746094 Z M 244.210938 120.746094 " fill-opacity="1" fill-rule="nonzero"/><path fill="#000000" d="M 231.789062 123.609375 C 226.820312 123.609375 222.417969 122.679688 219.398438 120.988281 C 216.792969 119.527344 215.4375 117.582031 215.582031 115.5 C 215.769531 112.769531 218.492188 110.179688 223.042969 108.394531 C 226.699219 106.960938 231.195312 106.175781 235.710938 106.175781 C 240.683594 106.175781 245.085938 107.105469 248.105469 108.796875 C 250.707031 110.253906 252.0625 112.203125 251.917969 114.285156 C 251.734375 117.015625 249.011719 119.605469 244.460938 121.390625 C 240.808594 122.820312 236.308594 123.609375 231.789062 123.609375 Z M 235.710938 107.554688 C 231.367188 107.554688 227.046875 108.308594 223.550781 109.679688 C 219.574219 111.238281 217.113281 113.449219 216.964844 115.597656 C 216.855469 117.136719 217.933594 118.585938 220.074219 119.785156 C 222.851562 121.339844 227.121094 122.230469 231.789062 122.230469 C 236.136719 122.230469 240.460938 121.476562 243.957031 120.105469 C 247.933594 118.546875 250.394531 116.335938 250.542969 114.191406 C 250.648438 112.648438 249.570312 111.199219 247.429688 110.003906 C 244.652344 108.445312 240.382812 107.554688 235.710938 107.554688 Z M 235.710938 107.554688 " fill-opacity="1" fill-rule="nonzero"/><path fill="#ffffff" d="M 126.191406 235.722656 C 126.160156 235.054688 125.828125 234.414062 125.164062 234.046875 C 123.863281 233.339844 122.140625 234.039062 120.828125 234.375 C 119.582031 234.691406 118.367188 235.105469 117.195312 235.632812 C 116.089844 236.132812 114.953125 236.699219 114.09375 237.578125 C 113.136719 238.554688 112.671875 239.847656 112.410156 241.167969 C 112.019531 243.191406 111.921875 245.273438 111.976562 247.332031 C 112.019531 248.972656 111.714844 251.882812 113.828125 252.40625 C 115.882812 252.910156 116.402344 250.878906 116.738281 249.378906 C 117.183594 247.367188 117.503906 245.324219 117.882812 243.300781 C 118.023438 242.558594 118.195312 241.808594 118.800781 241.304688 C 119.429688 240.78125 120.285156 240.507812 121 240.121094 C 122.421875 239.34375 123.871094 238.585938 125.21875 237.683594 C 125.882812 237.238281 126.222656 236.464844 126.191406 235.722656 Z M 126.191406 235.722656 " fill-opacity="1" fill-rule="nonzero"/><path fill="#000000" d="M 114.433594 253.171875 C 114.1875 253.171875 113.929688 253.140625 113.664062 253.074219 C 111.285156 252.492188 111.289062 249.789062 111.289062 247.996094 C 111.289062 247.765625 111.289062 247.546875 111.285156 247.347656 C 111.222656 244.984375 111.367188 242.917969 111.730469 241.035156 C 112.066406 239.324219 112.675781 238.035156 113.597656 237.09375 C 114.5625 236.109375 115.816406 235.5 116.910156 235.003906 C 118.078125 234.476562 119.335938 234.042969 120.65625 233.703125 C 120.863281 233.652344 121.078125 233.589844 121.304688 233.527344 C 122.636719 233.144531 124.351562 232.816406 125.496094 233.441406 C 126.332031 233.898438 126.835938 234.71875 126.882812 235.6875 C 126.921875 236.71875 126.433594 237.699219 125.601562 238.257812 C 124.425781 239.042969 123.171875 239.722656 121.960938 240.382812 L 121.332031 240.726562 C 121.074219 240.863281 120.800781 240.992188 120.523438 241.117188 C 120.042969 241.339844 119.585938 241.546875 119.242188 241.835938 C 118.820312 242.183594 118.6875 242.757812 118.5625 243.425781 C 118.445312 244.058594 118.328125 244.695312 118.21875 245.332031 C 117.96875 246.734375 117.71875 248.136719 117.410156 249.53125 C 117.128906 250.804688 116.601562 253.171875 114.433594 253.171875 Z M 123.84375 234.433594 C 123.164062 234.433594 122.410156 234.644531 121.683594 234.855469 C 121.445312 234.921875 121.214844 234.988281 120.996094 235.042969 C 119.757812 235.359375 118.574219 235.769531 117.480469 236.261719 C 116.5 236.707031 115.386719 237.246094 114.589844 238.058594 C 113.851562 238.8125 113.375 239.84375 113.089844 241.296875 C 112.746094 243.082031 112.609375 245.046875 112.667969 247.3125 C 112.675781 247.523438 112.675781 247.753906 112.671875 248 C 112.671875 249.863281 112.769531 251.429688 113.992188 251.730469 C 115.199219 252.019531 115.644531 251.09375 116.0625 249.230469 C 116.363281 247.859375 116.609375 246.476562 116.855469 245.089844 C 116.96875 244.449219 117.082031 243.808594 117.203125 243.171875 C 117.363281 242.308594 117.585938 241.410156 118.355469 240.773438 C 118.839844 240.367188 119.402344 240.109375 119.945312 239.863281 C 120.191406 239.75 120.4375 239.636719 120.667969 239.511719 L 121.300781 239.167969 C 122.484375 238.523438 123.710938 237.859375 124.832031 237.109375 C 125.265625 236.816406 125.523438 236.296875 125.5 235.746094 C 125.488281 235.472656 125.382812 234.953125 124.832031 234.652344 C 124.558594 234.503906 124.234375 234.433594 123.84375 234.433594 Z M 123.84375 234.433594 " fill-opacity="1" fill-rule="nonzero"/><path fill="#ffffff" d="M 301.160156 250.367188 C 301.191406 251.035156 301.519531 251.675781 302.1875 252.039062 C 303.484375 252.75 305.214844 252.046875 306.523438 251.714844 C 307.765625 251.394531 308.984375 250.984375 310.15625 250.453125 C 311.261719 249.953125 312.394531 249.386719 313.253906 248.511719 C 314.210938 247.53125 314.679688 246.242188 314.9375 244.921875 C 315.332031 242.898438 315.429688 240.816406 315.375 238.757812 C 315.332031 237.113281 315.636719 234.203125 313.523438 233.683594 C 311.464844 233.179688 310.945312 235.210938 310.613281 236.707031 C 310.164062 238.722656 309.84375 240.765625 309.46875 242.789062 C 309.328125 243.527344 309.15625 244.28125 308.550781 244.785156 C 307.921875 245.308594 307.0625 245.578125 306.351562 245.96875 C 304.925781 246.746094 303.476562 247.503906 302.132812 248.40625 C 301.46875 248.847656 301.128906 249.625 301.160156 250.367188 Z M 301.160156 250.367188 " fill-opacity="1" fill-rule="nonzero"/><path fill="#000000" d="M 303.507812 253.035156 C 302.886719 253.035156 302.328125 252.90625 301.855469 252.648438 C 301.015625 252.191406 300.511719 251.371094 300.46875 250.398438 C 300.425781 249.371094 300.914062 248.386719 301.75 247.832031 C 302.925781 247.042969 304.183594 246.359375 305.402344 245.699219 L 306.019531 245.363281 C 306.277344 245.226562 306.550781 245.097656 306.828125 244.972656 C 307.308594 244.75 307.765625 244.542969 308.109375 244.253906 C 308.523438 243.910156 308.664062 243.332031 308.789062 242.664062 C 308.902344 242.050781 309.011719 241.433594 309.121094 240.816406 C 309.371094 239.417969 309.625 237.972656 309.941406 236.5625 C 310.222656 235.289062 310.746094 232.917969 312.917969 232.917969 C 313.160156 232.917969 313.421875 232.949219 313.6875 233.015625 C 316.066406 233.601562 316.0625 236.414062 316.058594 238.097656 C 316.058594 238.328125 316.058594 238.546875 316.066406 238.746094 C 316.128906 241.105469 315.980469 243.167969 315.617188 245.054688 C 315.289062 246.761719 314.675781 248.050781 313.75 248.996094 C 312.789062 249.980469 311.539062 250.589844 310.441406 251.085938 C 309.273438 251.613281 308.015625 252.046875 306.695312 252.382812 C 306.488281 252.4375 306.273438 252.496094 306.046875 252.5625 C 305.269531 252.785156 304.382812 253.035156 303.507812 253.035156 Z M 312.917969 234.296875 C 312.03125 234.296875 311.648438 235.234375 311.292969 236.859375 C 310.984375 238.242188 310.730469 239.671875 310.484375 241.054688 C 310.375 241.679688 310.265625 242.296875 310.148438 242.917969 C 310.019531 243.597656 309.828125 244.625 308.996094 245.316406 C 308.507812 245.722656 307.945312 245.976562 307.402344 246.226562 C 307.15625 246.335938 306.914062 246.449219 306.683594 246.578125 L 306.0625 246.914062 C 304.871094 247.558594 303.644531 248.226562 302.519531 248.980469 C 302.082031 249.269531 301.828125 249.789062 301.851562 250.339844 C 301.863281 250.621094 301.96875 251.132812 302.519531 251.433594 C 303.261719 251.839844 304.523438 251.5625 305.667969 251.234375 C 305.90625 251.167969 306.136719 251.097656 306.355469 251.046875 C 307.597656 250.726562 308.777344 250.316406 309.867188 249.828125 C 310.851562 249.382812 311.96875 248.839844 312.761719 248.03125 C 313.488281 247.28125 313.980469 246.222656 314.261719 244.789062 C 314.605469 243.007812 314.742188 241.039062 314.679688 238.777344 C 314.675781 238.566406 314.675781 238.339844 314.675781 238.097656 C 314.679688 236.230469 314.582031 234.65625 313.355469 234.355469 C 313.199219 234.316406 313.050781 234.296875 312.917969 234.296875 Z M 312.917969 234.296875 " fill-opacity="1" fill-rule="nonzero"/><path fill="#00bfc3" d="M 212.578125 130.289062 C 212.894531 130.367188 213.160156 130.699219 213.164062 131.023438 L 213.28125 136.886719 C 213.289062 137.210938 213.046875 137.578125 212.742188 137.699219 L 203.953125 141.207031 C 203.652344 141.328125 203.144531 141.363281 202.828125 141.285156 L 187.613281 137.523438 C 187.296875 137.445312 187.070312 137.117188 187.070312 136.792969 L 187.070312 131.066406 C 187.070312 130.742188 187.28125 130.371094 187.582031 130.242188 L 196.160156 126.5625 C 196.460938 126.4375 196.957031 126.394531 197.273438 126.476562 Z M 212.578125 130.289062 " fill-opacity="1" fill-rule="nonzero"/><path fill="#000000" d="M 202.992188 141.882812 C 202.585938 141.882812 202.207031 141.84375 201.894531 141.765625 L 188.265625 138.382812 C 187.21875 138.125 186.480469 137.078125 186.480469 136 L 186.480469 131.859375 C 186.480469 130.828125 187.136719 129.703125 188.085938 129.296875 L 195.191406 126.242188 C 195.996094 125.898438 197.363281 125.78125 198.222656 125.996094 L 211.988281 129.425781 C 213.03125 129.6875 213.859375 130.726562 213.878906 131.800781 L 213.960938 136.082031 C 213.980469 137.125 213.234375 138.246094 212.269531 138.632812 L 204.949219 141.554688 C 204.433594 141.761719 203.699219 141.882812 202.992188 141.882812 Z M 197.144531 127.265625 C 196.617188 127.265625 196.042969 127.363281 195.691406 127.511719 L 188.53125 130.566406 C 188.085938 130.757812 187.664062 131.375 187.664062 131.859375 L 187.664062 136.003906 C 187.664062 136.441406 188.070312 136.9375 188.496094 137.046875 L 202.21875 140.429688 C 202.785156 140.566406 203.878906 140.492188 204.425781 140.277344 L 211.75 137.351562 C 212.1875 137.175781 212.582031 136.585938 212.574219 136.113281 L 212.488281 131.828125 C 212.480469 131.382812 212.078125 130.878906 211.644531 130.769531 L 197.867188 127.339844 C 197.671875 127.289062 197.421875 127.265625 197.144531 127.265625 Z M 197.144531 127.265625 " fill-opacity="1" fill-rule="nonzero"/><path fill="#000000" d="M 203.253906 135.246094 L 187.148438 131.207031 L 187.488281 129.867188 L 203.148438 133.796875 L 212.15625 130.074219 L 212.683594 131.351562 Z M 203.253906 135.246094 " fill-opacity="1" fill-rule="nonzero"/><path fill="#000000" d="M 202.707031 141.445312 L 202.503906 134.542969 L 203.886719 134.5 L 204.089844 141.40625 Z M 202.707031 141.445312 " fill-opacity="1" fill-rule="nonzero"/><path fill="#00bfc3" d="M 191.828125 138.574219 C 192.144531 138.652344 192.40625 138.984375 192.414062 139.308594 L 192.527344 145.175781 C 192.535156 145.5 192.292969 145.863281 191.992188 145.984375 L 183.199219 149.492188 C 182.898438 149.613281 182.390625 149.648438 182.078125 149.570312 L 166.878906 145.8125 C 166.5625 145.730469 166.355469 145.402344 166.355469 145.078125 L 166.355469 139.355469 C 166.355469 139.027344 166.546875 138.65625 166.847656 138.53125 L 175.417969 134.851562 C 175.71875 134.722656 176.207031 134.683594 176.523438 134.761719 Z M 191.828125 138.574219 " fill-opacity="1" fill-rule="nonzero"/><path fill="#000000" d="M 182.238281 150.171875 C 181.832031 150.171875 181.453125 150.128906 181.140625 150.054688 L 167.53125 146.671875 C 166.484375 146.410156 165.761719 145.367188 165.761719 144.289062 L 165.761719 140.144531 C 165.761719 139.117188 166.40625 137.988281 167.351562 137.582031 L 174.445312 134.527344 C 175.253906 134.183594 176.613281 134.070312 177.472656 134.28125 L 191.238281 137.714844 C 192.28125 137.972656 193.105469 139.015625 193.125 140.085938 L 193.210938 144.371094 C 193.230469 145.410156 192.484375 146.53125 191.515625 146.917969 L 184.195312 149.84375 C 183.679688 150.046875 182.949219 150.171875 182.238281 150.171875 Z M 176.394531 135.550781 C 175.863281 135.550781 175.289062 135.648438 174.9375 135.800781 L 167.796875 138.855469 C 167.351562 139.046875 166.945312 139.660156 166.945312 140.144531 L 166.945312 144.289062 C 166.945312 144.726562 167.335938 145.226562 167.761719 145.332031 L 181.476562 148.714844 C 182.042969 148.851562 183.132812 148.777344 183.679688 148.5625 L 191 145.640625 C 191.4375 145.464844 191.832031 144.871094 191.820312 144.398438 L 191.738281 140.113281 C 191.726562 139.667969 191.324219 139.164062 190.890625 139.054688 L 177.113281 135.625 C 176.917969 135.574219 176.671875 135.550781 176.394531 135.550781 Z M 176.394531 135.550781 " fill-opacity="1" fill-rule="nonzero"/><path fill="#000000" d="M 182.5 143.535156 L 166.394531 139.492188 L 166.734375 138.15625 L 182.394531 142.082031 L 191.402344 138.359375 L 191.929688 139.636719 Z M 182.5 143.535156 " fill-opacity="1" fill-rule="nonzero"/><path fill="#000000" d="M 181.957031 149.734375 L 181.75 142.828125 L 183.136719 142.785156 L 183.339844 149.695312 Z M 181.957031 149.734375 " fill-opacity="1" fill-rule="nonzero"/><path fill="#00bfc3" d="M 171.074219 146.863281 C 171.390625 146.941406 171.652344 147.269531 171.660156 147.597656 L 171.773438 153.460938 C 171.78125 153.785156 171.539062 154.152344 171.238281 154.269531 L 162.449219 157.78125 C 162.144531 157.902344 161.640625 157.9375 161.324219 157.859375 L 146.144531 154.097656 C 145.828125 154.019531 145.640625 153.691406 145.640625 153.367188 L 145.640625 147.640625 C 145.640625 147.316406 145.8125 146.945312 146.113281 146.816406 L 154.675781 143.136719 C 154.972656 143.011719 155.460938 142.96875 155.777344 143.050781 Z M 171.074219 146.863281 " fill-opacity="1" fill-rule="nonzero"/><path fill="#000000" d="M 161.484375 158.457031 C 161.078125 158.457031 160.699219 158.417969 160.390625 158.339844 L 146.796875 154.957031 C 145.746094 154.699219 145.046875 153.652344 145.046875 152.574219 L 145.046875 148.429688 C 145.046875 147.402344 145.671875 146.277344 146.617188 145.871094 L 153.699219 142.816406 C 154.507812 142.472656 155.863281 142.355469 156.722656 142.570312 L 170.488281 146 C 171.527344 146.261719 172.351562 147.300781 172.375 148.375 L 172.453125 152.65625 C 172.476562 153.699219 171.730469 154.816406 170.761719 155.207031 L 163.441406 158.128906 C 162.925781 158.335938 162.195312 158.457031 161.484375 158.457031 Z M 155.640625 143.839844 C 155.109375 143.839844 154.539062 143.9375 154.1875 144.085938 L 147.0625 147.140625 C 146.617188 147.332031 146.230469 147.945312 146.230469 148.429688 L 146.230469 152.574219 C 146.230469 153.015625 146.601562 153.511719 147.03125 153.617188 L 160.734375 157 C 161.300781 157.140625 162.382812 157.066406 162.929688 156.847656 L 170.25 153.925781 C 170.6875 153.75 171.078125 153.160156 171.070312 152.683594 L 170.984375 148.402344 C 170.972656 147.957031 170.574219 147.449219 170.140625 147.339844 L 156.359375 143.914062 C 156.164062 143.863281 155.917969 143.839844 155.640625 143.839844 Z M 155.640625 143.839844 " fill-opacity="1" fill-rule="nonzero"/><path fill="#000000" d="M 161.746094 151.820312 L 145.644531 147.78125 L 145.980469 146.441406 L 161.640625 150.367188 L 170.648438 146.648438 L 171.179688 147.925781 Z M 161.746094 151.820312 " fill-opacity="1" fill-rule="nonzero"/><path fill="#000000" d="M 161.199219 158.015625 L 160.996094 151.109375 L 162.378906 151.070312 L 162.585938 157.976562 Z M 161.199219 158.015625 " fill-opacity="1" fill-rule="nonzero"/></svg>