<svg xmlns="http://www.w3.org/2000/svg" xmlns:xlink="http://www.w3.org/1999/xlink" width="500" zoomAndPan="magnify" viewBox="0 0 375 374.999991" height="500" preserveAspectRatio="xMidYMid meet" version="1.0"><defs><clipPath id="35a12e1516"><path d="M 82.230469 59.519531 L 292.980469 59.519531 L 292.980469 297.269531 L 82.230469 297.269531 Z M 82.230469 59.519531 " clip-rule="nonzero"/></clipPath></defs><g clip-path="url(#35a12e1516)"><path fill="#ffffff" d="M 165.425781 297.269531 C 164.070312 297.269531 162.789062 296.886719 161.703125 296.203125 L 145.976562 291.75 C 144.054688 291.207031 142.496094 289.804688 141.757812 287.953125 L 127.078125 251.226562 C 125.992188 252.019531 124.664062 252.472656 123.269531 252.472656 C 122.242188 252.472656 121.21875 252.222656 120.300781 251.75 C 118.425781 250.777344 117.148438 248.945312 116.882812 246.847656 C 116.238281 241.722656 112.023438 237.515625 106.136719 236.136719 C 103.140625 235.433594 101.0625 232.707031 101.183594 229.636719 C 101.300781 226.5625 103.585938 224.007812 106.632812 223.539062 C 109 223.175781 111.382812 221.757812 112.558594 220.007812 C 112.984375 219.371094 113.363281 218.628906 113.707031 217.761719 L 83.417969 141.984375 C 82.257812 139.167969 83.222656 135.859375 85.808594 134.15625 C 85.863281 134.121094 105.917969 121.753906 105.917969 121.753906 C 104.160156 120.308594 101.980469 119.234375 99.570312 118.667969 C 96.574219 117.964844 94.496094 115.238281 94.617188 112.167969 C 94.734375 109.097656 97.019531 106.539062 100.0625 106.074219 C 102.433594 105.707031 104.816406 104.289062 105.992188 102.539062 C 107.484375 100.3125 108.171875 97.191406 108.679688 94.121094 C 108.976562 91.175781 111.265625 88.761719 114.25 88.375 C 114.277344 88.371094 114.304688 88.367188 114.328125 88.367188 C 114.582031 88.335938 114.835938 88.320312 115.09375 88.320312 C 115.144531 88.320312 115.199219 88.320312 115.25 88.324219 C 118.304688 88.394531 120.863281 90.582031 121.417969 93.535156 C 122.210938 96.539062 123.191406 99.570312 124.886719 101.644531 C 126.21875 103.269531 128.722656 104.457031 131.121094 104.597656 C 131.796875 104.636719 132.449219 104.78125 133.058594 105.015625 L 205.273438 60.476562 C 206.300781 59.84375 207.472656 59.519531 208.65625 59.519531 C 209.289062 59.519531 209.921875 59.609375 210.539062 59.800781 C 212.3125 60.34375 213.761719 61.621094 214.519531 63.308594 L 218.667969 72.527344 C 224.339844 70.660156 230.253906 69.71875 236.3125 69.71875 C 267.535156 69.71875 292.933594 95.074219 292.933594 126.242188 C 292.933594 144.761719 283.929688 161.855469 269.03125 172.378906 C 269.714844 174.554688 270.578125 176.605469 271.828125 178.132812 C 273.160156 179.761719 275.664062 180.949219 278.058594 181.085938 C 281.132812 181.265625 283.648438 183.59375 284.058594 186.640625 C 284.46875 189.6875 282.660156 192.597656 279.742188 193.582031 C 277.777344 194.242188 275.980469 195.265625 274.484375 196.554688 L 289.597656 246.195312 C 290.59375 249.464844 288.847656 252.9375 285.625 254.097656 L 169.53125 295.925781 C 169.0625 296.269531 168.546875 296.558594 167.996094 296.777344 C 167.183594 297.101562 166.3125 297.269531 165.425781 297.269531 Z M 165.425781 297.269531 " fill-opacity="1" fill-rule="nonzero"/></g><path fill="#fea8fe" d="M 286.648438 126.828125 C 286.648438 128.472656 286.566406 130.109375 286.40625 131.742188 C 286.246094 133.375 286.003906 134.996094 285.683594 136.605469 C 285.363281 138.214844 284.964844 139.804688 284.488281 141.375 C 284.007812 142.945312 283.457031 144.488281 282.828125 146.003906 C 282.199219 147.519531 281.496094 149.003906 280.722656 150.449219 C 279.945312 151.898438 279.101562 153.304688 278.1875 154.667969 C 277.277344 156.03125 276.296875 157.347656 275.253906 158.617188 C 274.210938 159.886719 273.109375 161.101562 271.949219 162.261719 C 270.785156 163.421875 269.570312 164.523438 268.296875 165.5625 C 267.027344 166.605469 265.707031 167.578125 264.34375 168.492188 C 262.976562 169.402344 261.566406 170.246094 260.117188 171.019531 C 258.667969 171.792969 257.183594 172.492188 255.664062 173.121094 C 254.144531 173.75 252.601562 174.300781 251.027344 174.777344 C 249.453125 175.253906 247.863281 175.652344 246.25 175.972656 C 244.636719 176.292969 243.015625 176.535156 241.378906 176.695312 C 239.742188 176.855469 238.101562 176.9375 236.457031 176.9375 C 234.816406 176.9375 233.175781 176.855469 231.539062 176.695312 C 229.902344 176.535156 228.28125 176.292969 226.667969 175.972656 C 225.054688 175.652344 223.460938 175.253906 221.890625 174.777344 C 220.316406 174.300781 218.769531 173.75 217.253906 173.121094 C 215.734375 172.492188 214.25 171.792969 212.800781 171.019531 C 211.351562 170.246094 209.941406 169.402344 208.574219 168.492188 C 207.207031 167.578125 205.890625 166.605469 204.617188 165.5625 C 203.347656 164.523438 202.132812 163.421875 200.96875 162.261719 C 199.808594 161.101562 198.703125 159.886719 197.660156 158.617188 C 196.621094 157.347656 195.640625 156.03125 194.726562 154.667969 C 193.816406 153.304688 192.972656 151.898438 192.195312 150.449219 C 191.421875 149.003906 190.71875 147.519531 190.089844 146.003906 C 189.460938 144.488281 188.90625 142.945312 188.429688 141.375 C 187.953125 139.804688 187.554688 138.214844 187.234375 136.605469 C 186.914062 134.996094 186.671875 133.375 186.511719 131.742188 C 186.351562 130.109375 186.269531 128.472656 186.269531 126.828125 C 186.269531 125.1875 186.351562 123.550781 186.511719 121.917969 C 186.671875 120.285156 186.914062 118.664062 187.234375 117.054688 C 187.554688 115.445312 187.953125 113.855469 188.429688 112.285156 C 188.90625 110.714844 189.460938 109.171875 190.089844 107.65625 C 190.71875 106.140625 191.421875 104.65625 192.195312 103.210938 C 192.972656 101.761719 193.816406 100.355469 194.726562 98.992188 C 195.640625 97.628906 196.621094 96.3125 197.660156 95.042969 C 198.703125 93.773438 199.808594 92.558594 200.96875 91.398438 C 202.132812 90.238281 203.347656 89.136719 204.617188 88.097656 C 205.890625 87.054688 207.207031 86.078125 208.574219 85.167969 C 209.941406 84.257812 211.351562 83.414062 212.800781 82.640625 C 214.25 81.867188 215.734375 81.164062 217.253906 80.539062 C 218.769531 79.910156 220.316406 79.359375 221.890625 78.882812 C 223.460938 78.40625 225.054688 78.007812 226.667969 77.6875 C 228.28125 77.367188 229.902344 77.125 231.539062 76.964844 C 233.175781 76.804688 234.816406 76.722656 236.457031 76.722656 C 238.101562 76.722656 239.742188 76.804688 241.378906 76.964844 C 243.015625 77.125 244.636719 77.367188 246.25 77.6875 C 247.863281 78.007812 249.453125 78.40625 251.027344 78.882812 C 252.601562 79.359375 254.144531 79.910156 255.664062 80.539062 C 257.183594 81.164062 258.667969 81.867188 260.117188 82.640625 C 261.566406 83.414062 262.976562 84.257812 264.34375 85.167969 C 265.707031 86.078125 267.027344 87.054688 268.296875 88.097656 C 269.570312 89.136719 270.785156 90.238281 271.949219 91.398438 C 273.109375 92.558594 274.210938 93.773438 275.253906 95.042969 C 276.296875 96.3125 277.277344 97.628906 278.1875 98.992188 C 279.101562 100.355469 279.945312 101.761719 280.722656 103.210938 C 281.496094 104.65625 282.199219 106.140625 282.828125 107.65625 C 283.457031 109.171875 284.007812 110.714844 284.488281 112.285156 C 284.964844 113.855469 285.363281 115.445312 285.683594 117.054688 C 286.003906 118.664062 286.246094 120.285156 286.40625 121.917969 C 286.566406 123.550781 286.648438 125.1875 286.648438 126.828125 Z M 286.648438 126.828125 " fill-opacity="1" fill-rule="nonzero"/><path fill="#000000" d="M 89.496094 140.101562 L 208.796875 66.523438 L 228.136719 109.503906 L 112.113281 186.359375 L 112.113281 182.71875 Z M 89.496094 140.101562 " fill-opacity="1" fill-rule="nonzero"/><path fill="#ffeae2" d="M 233.976562 135.734375 L 119.042969 192.914062 L 104.457031 165.191406 L 95.125 147.449219 L 94.75 146.742188 L 93.835938 145.011719 L 93.417969 144.199219 L 92.414062 142.292969 L 104.585938 135.09375 L 198.941406 79.273438 L 201.71875 81.132812 L 202.703125 81.796875 L 205.695312 83.796875 L 206.691406 84.460938 L 209.917969 86.632812 L 210.925781 87.308594 L 212.832031 88.589844 L 212.84375 88.589844 L 213.851562 89.265625 L 217.183594 91.5 L 218.203125 92.175781 L 224.480469 96.390625 Z M 233.976562 135.734375 " fill-opacity="1" fill-rule="nonzero"/><path fill="#000000" d="M 202.703125 81.796875 L 94.136719 144.9375 C 94.050781 144.988281 93.964844 145.011719 93.871094 145.011719 L 93.835938 145.011719 C 93.664062 145 93.496094 144.902344 93.410156 144.742188 C 93.300781 144.570312 93.3125 144.359375 93.417969 144.199219 C 93.453125 144.121094 93.515625 144.058594 93.601562 144.015625 L 201.71875 81.132812 Z M 202.703125 81.796875 " fill-opacity="1" fill-rule="nonzero"/><path fill="#000000" d="M 206.691406 84.460938 L 95.507812 147.398438 C 95.425781 147.449219 95.328125 147.472656 95.242188 147.472656 C 95.199219 147.472656 95.167969 147.472656 95.125 147.449219 C 94.984375 147.429688 94.855469 147.332031 94.769531 147.191406 C 94.695312 147.054688 94.683594 146.882812 94.75 146.742188 C 94.78125 146.625 94.867188 146.53125 94.972656 146.464844 L 205.695312 83.796875 Z M 206.691406 84.460938 " fill-opacity="1" fill-rule="nonzero"/><path fill="#000000" d="M 210.925781 87.308594 L 98.230469 148.765625 C 98.15625 148.808594 98.058594 148.832031 97.976562 148.832031 C 97.792969 148.832031 97.601562 148.734375 97.503906 148.550781 C 97.363281 148.296875 97.460938 147.976562 97.71875 147.824219 L 209.917969 86.632812 Z M 210.925781 87.308594 " fill-opacity="1" fill-rule="nonzero"/><path fill="#000000" d="M 213.851562 89.265625 L 100.964844 149.859375 C 100.890625 149.902344 100.804688 149.921875 100.71875 149.921875 C 100.523438 149.921875 100.34375 149.824219 100.234375 149.644531 C 100.097656 149.386719 100.203125 149.054688 100.460938 148.917969 L 212.832031 88.589844 L 212.84375 88.589844 Z M 213.851562 89.265625 " fill-opacity="1" fill-rule="nonzero"/><path fill="#000000" d="M 218.203125 92.175781 L 102.324219 151.238281 C 102.25 151.269531 102.164062 151.292969 102.078125 151.292969 C 101.886719 151.292969 101.695312 151.183594 101.609375 151.003906 C 101.46875 150.734375 101.574219 150.414062 101.832031 150.273438 L 217.183594 91.5 Z M 218.203125 92.175781 " fill-opacity="1" fill-rule="nonzero"/><path fill="#ffb46a" d="M 115.273438 152.5 C 114.457031 158.308594 110.03125 163.433594 104.457031 165.191406 L 92.414062 142.292969 L 104.585938 135.09375 C 106.742188 135.875 108.691406 137.019531 110.140625 138.398438 C 113.902344 141.960938 116 147.34375 115.273438 152.5 Z M 115.273438 152.5 " fill-opacity="1" fill-rule="nonzero"/><path fill="#7082ff" d="M 283.589844 248.648438 L 165.570312 291.167969 L 147.875 286.160156 L 139.910156 266.226562 L 140.984375 260.769531 L 134.808594 253.472656 L 105.796875 180.875 L 105.902344 171.824219 L 98.46875 162.535156 L 89.496094 140.097656 L 108.46875 148.113281 L 235.070312 89.285156 Z M 283.589844 248.648438 " fill-opacity="1" fill-rule="nonzero"/><path fill="#fea8fe" d="M 123.40625 185.476562 L 105.796875 180.875 L 98.46875 162.535156 L 115.753906 166.324219 Z M 123.40625 185.476562 " fill-opacity="1" fill-rule="nonzero"/><path fill="#fea8fe" d="M 156.4375 268.066406 L 139.910156 266.226562 L 134.808594 253.472656 L 151.109375 254.734375 Z M 156.4375 268.066406 " fill-opacity="1" fill-rule="nonzero"/><path fill="#000000" d="M 165.570312 291.4375 C 165.355469 291.4375 165.15625 291.308594 165.070312 291.097656 L 107.96875 148.3125 C 107.859375 148.039062 107.992188 147.726562 108.265625 147.617188 C 108.542969 147.507812 108.855469 147.640625 108.964844 147.914062 L 166.066406 290.703125 C 166.175781 290.976562 166.042969 291.289062 165.769531 291.398438 C 165.703125 291.421875 165.636719 291.4375 165.570312 291.4375 Z M 165.570312 291.4375 " fill-opacity="1" fill-rule="nonzero"/><path fill="#000000" d="M 210.445312 252.941406 C 202.6875 252.941406 196.613281 236.617188 196.613281 215.78125 C 196.613281 194.941406 202.6875 178.617188 210.445312 178.617188 C 218.203125 178.617188 224.277344 194.941406 224.277344 215.78125 C 224.277344 236.617188 218.203125 252.941406 210.445312 252.941406 Z M 210.445312 179.667969 C 203.398438 179.667969 197.664062 195.867188 197.664062 215.78125 C 197.664062 235.691406 203.398438 251.890625 210.445312 251.890625 C 217.492188 251.890625 223.226562 235.691406 223.226562 215.78125 C 223.226562 195.867188 217.492188 179.667969 210.445312 179.667969 Z M 210.445312 179.667969 " fill-opacity="1" fill-rule="nonzero"/><path fill="#000000" d="M 189.257812 243.867188 C 187.078125 243.867188 185.335938 243.265625 184.125 242.054688 C 181.441406 239.378906 181.742188 234.113281 184.964844 227.230469 C 188.117188 220.511719 193.691406 212.972656 200.664062 206.011719 C 215.421875 191.277344 231.28125 184.027344 236.765625 189.5 C 242.25 194.976562 234.988281 210.8125 220.226562 225.546875 C 213.253906 232.507812 205.707031 238.074219 198.972656 241.214844 C 195.195312 242.980469 191.902344 243.867188 189.257812 243.867188 Z M 231.566406 188.695312 C 224.542969 188.695312 212.53125 195.648438 201.40625 206.757812 C 194.519531 213.636719 189.019531 221.066406 185.921875 227.679688 C 182.941406 234.035156 182.558594 239.007812 184.871094 241.3125 C 187.183594 243.621094 192.160156 243.238281 198.527344 240.265625 C 205.152344 237.171875 212.59375 231.679688 219.484375 224.800781 C 233.585938 210.722656 241.003906 195.222656 236.019531 190.246094 C 234.96875 189.195312 233.445312 188.695312 231.566406 188.695312 Z M 231.566406 188.695312 " fill-opacity="1" fill-rule="nonzero"/><path fill="#000000" d="M 233.734375 239.253906 C 226.144531 239.253906 214.613281 235 202.875 227.339844 C 185.40625 215.9375 175.042969 201.929688 179.289062 195.449219 C 181.363281 192.277344 186.585938 191.492188 193.992188 193.230469 C 201.230469 194.929688 209.757812 198.832031 218.015625 204.21875 C 226.269531 209.605469 233.273438 215.839844 237.734375 221.773438 C 242.304688 227.847656 243.675781 232.941406 241.601562 236.109375 C 240.210938 238.238281 237.441406 239.253906 233.734375 239.253906 Z M 203.453125 226.460938 C 220.144531 237.351562 236.863281 241.421875 240.722656 235.535156 C 242.511719 232.804688 241.113281 228.019531 236.894531 222.402344 C 232.503906 216.566406 225.59375 210.421875 217.4375 205.097656 C 209.285156 199.777344 200.871094 195.925781 193.753906 194.253906 C 186.90625 192.644531 181.957031 193.289062 180.167969 196.023438 C 176.3125 201.910156 186.757812 215.566406 203.453125 226.460938 Z M 203.453125 226.460938 " fill-opacity="1" fill-rule="nonzero"/><path fill="#000000" d="M 215.6875 216.046875 C 215.6875 216.375 215.65625 216.695312 215.59375 217.015625 C 215.527344 217.335938 215.433594 217.644531 215.308594 217.949219 C 215.183594 218.25 215.03125 218.535156 214.847656 218.804688 C 214.667969 219.078125 214.460938 219.328125 214.230469 219.558594 C 214 219.789062 213.75 219.996094 213.476562 220.175781 C 213.207031 220.355469 212.917969 220.511719 212.617188 220.636719 C 212.316406 220.757812 212.003906 220.855469 211.683594 220.917969 C 211.363281 220.980469 211.039062 221.011719 210.714844 221.011719 C 210.386719 221.011719 210.0625 220.980469 209.742188 220.917969 C 209.421875 220.855469 209.113281 220.757812 208.8125 220.636719 C 208.507812 220.511719 208.222656 220.355469 207.949219 220.175781 C 207.679688 219.996094 207.429688 219.789062 207.199219 219.558594 C 206.964844 219.328125 206.761719 219.078125 206.578125 218.804688 C 206.398438 218.535156 206.246094 218.25 206.121094 217.949219 C 205.996094 217.644531 205.898438 217.335938 205.835938 217.015625 C 205.773438 216.695312 205.742188 216.375 205.742188 216.046875 C 205.742188 215.722656 205.773438 215.398438 205.835938 215.078125 C 205.898438 214.757812 205.996094 214.449219 206.121094 214.148438 C 206.246094 213.847656 206.398438 213.558594 206.578125 213.289062 C 206.761719 213.019531 206.964844 212.765625 207.199219 212.535156 C 207.429688 212.304688 207.679688 212.101562 207.949219 211.917969 C 208.222656 211.738281 208.507812 211.585938 208.8125 211.460938 C 209.113281 211.335938 209.421875 211.242188 209.742188 211.175781 C 210.0625 211.113281 210.386719 211.082031 210.714844 211.082031 C 211.039062 211.082031 211.363281 211.113281 211.683594 211.175781 C 212.003906 211.242188 212.316406 211.335938 212.617188 211.460938 C 212.917969 211.585938 213.207031 211.738281 213.476562 211.917969 C 213.75 212.101562 214 212.304688 214.230469 212.535156 C 214.460938 212.765625 214.667969 213.019531 214.847656 213.289062 C 215.03125 213.558594 215.183594 213.847656 215.308594 214.148438 C 215.433594 214.449219 215.527344 214.757812 215.59375 215.078125 C 215.65625 215.398438 215.6875 215.722656 215.6875 216.046875 Z M 215.6875 216.046875 " fill-opacity="1" fill-rule="nonzero"/><path fill="#000000" d="M 240.242188 190.683594 C 240.242188 192.5625 238.71875 194.082031 236.835938 194.082031 C 234.957031 194.082031 233.429688 192.5625 233.429688 190.683594 C 233.429688 188.804688 234.957031 187.285156 236.835938 187.285156 C 238.71875 187.285156 240.242188 188.804688 240.242188 190.683594 Z M 240.242188 190.683594 " fill-opacity="1" fill-rule="nonzero"/><path fill="#000000" d="M 187.726562 241.859375 C 187.726562 243.734375 186.203125 245.257812 184.324219 245.257812 C 182.441406 245.257812 180.917969 243.734375 180.917969 241.859375 C 180.917969 239.980469 182.441406 238.457031 184.324219 238.457031 C 186.203125 238.457031 187.726562 239.980469 187.726562 241.859375 Z M 187.726562 241.859375 " fill-opacity="1" fill-rule="nonzero"/><path fill="#ffeae2" d="M 128.078125 161.136719 L 140.390625 187.363281 L 238.625 143.378906 L 228.226562 113.875 Z M 128.078125 161.136719 " fill-opacity="1" fill-rule="nonzero"/><path fill="#000000" d="M 146.328125 175.585938 C 145.777344 175.320312 145.433594 175.046875 145.304688 174.761719 C 145.113281 174.359375 145.179688 173.738281 145.496094 172.90625 C 145.683594 172.425781 145.945312 172.105469 146.28125 171.949219 C 146.699219 171.753906 147.351562 171.820312 148.242188 172.144531 L 148.390625 172.199219 C 148.476562 172.242188 148.597656 172.292969 148.753906 172.347656 C 148.914062 172.40625 149.1875 172.453125 149.585938 172.492188 C 149.980469 172.53125 150.324219 172.480469 150.621094 172.34375 C 151.875 171.761719 152.265625 170.957031 151.789062 169.933594 C 151.644531 169.625 151.351562 169.445312 150.910156 169.394531 C 150.46875 169.347656 149.96875 169.394531 149.414062 169.539062 C 148.859375 169.679688 148.234375 169.785156 147.542969 169.855469 C 146.851562 169.921875 146.183594 169.933594 145.542969 169.886719 C 144.898438 169.839844 144.261719 169.59375 143.632812 169.140625 C 143.003906 168.6875 142.488281 168.03125 142.085938 167.167969 C 141.535156 165.984375 141.492188 164.746094 141.964844 163.453125 C 142.4375 162.160156 143.4375 161.160156 144.960938 160.453125 C 145.769531 160.078125 146.554688 159.839844 147.320312 159.738281 C 148.085938 159.636719 148.648438 159.636719 149.003906 159.730469 L 149.546875 159.847656 L 149.6875 159.878906 C 150.289062 160.074219 150.648438 160.300781 150.765625 160.558594 C 150.898438 160.839844 150.910156 161.292969 150.808594 161.914062 C 150.664062 162.800781 150.347656 163.355469 149.863281 163.582031 C 149.578125 163.710938 149.167969 163.742188 148.621094 163.664062 C 148.570312 163.660156 148.460938 163.625 148.296875 163.570312 C 148.128906 163.519531 147.988281 163.480469 147.863281 163.464844 C 147.742188 163.449219 147.554688 163.460938 147.304688 163.503906 C 147.054688 163.546875 146.78125 163.636719 146.484375 163.777344 C 146.160156 163.925781 145.902344 164.171875 145.710938 164.515625 C 145.515625 164.859375 145.5 165.199219 145.65625 165.535156 C 145.84375 165.941406 146.164062 166.175781 146.613281 166.246094 C 147.066406 166.3125 147.5625 166.269531 148.113281 166.113281 C 148.664062 165.957031 149.28125 165.820312 149.96875 165.707031 C 150.652344 165.59375 151.308594 165.539062 151.933594 165.542969 C 152.558594 165.546875 153.183594 165.769531 153.804688 166.207031 C 154.429688 166.648438 154.949219 167.3125 155.363281 168.199219 C 155.761719 169.0625 155.941406 169.90625 155.902344 170.738281 C 155.863281 171.566406 155.648438 172.292969 155.257812 172.914062 C 154.867188 173.539062 154.417969 174.078125 153.90625 174.527344 C 153.394531 174.976562 152.839844 175.339844 152.246094 175.617188 C 151.613281 175.910156 150.976562 176.109375 150.339844 176.21875 C 149.699219 176.328125 149.152344 176.355469 148.691406 176.296875 C 148.230469 176.242188 147.8125 176.160156 147.445312 176.054688 C 147.074219 175.945312 146.796875 175.839844 146.617188 175.726562 Z M 146.328125 175.585938 " fill-opacity="1" fill-rule="nonzero"/><path fill="#000000" d="M 166.484375 163.820312 L 166.566406 163.683594 C 166.898438 163.203125 167.160156 162.917969 167.351562 162.828125 C 167.769531 162.636719 168.394531 162.800781 169.230469 163.332031 C 169.746094 163.664062 170.074219 163.980469 170.214844 164.277344 C 170.339844 164.546875 170.355469 164.816406 170.257812 165.089844 C 170.167969 165.363281 169.988281 165.691406 169.722656 166.074219 C 169.640625 166.210938 169.519531 166.398438 169.359375 166.636719 C 169.199219 166.875 168.824219 167.261719 168.238281 167.796875 C 167.648438 168.332031 167.011719 168.757812 166.324219 169.078125 C 165.730469 169.355469 165.066406 169.558594 164.335938 169.695312 C 163.601562 169.828125 162.796875 169.859375 161.917969 169.785156 C 161.039062 169.710938 160.1875 169.515625 159.371094 169.199219 C 158.550781 168.882812 157.753906 168.363281 156.980469 167.632812 C 156.203125 166.902344 155.570312 166.007812 155.074219 164.945312 C 154.589844 163.90625 154.324219 162.878906 154.277344 161.863281 C 154.230469 160.847656 154.351562 159.929688 154.636719 159.117188 C 154.921875 158.304688 155.324219 157.542969 155.847656 156.835938 C 156.371094 156.125 156.925781 155.53125 157.515625 155.054688 C 158.105469 154.574219 158.710938 154.191406 159.328125 153.902344 C 159.964844 153.609375 160.652344 153.40625 161.398438 153.300781 C 162.140625 153.191406 162.730469 153.160156 163.160156 153.203125 L 163.777344 153.261719 C 164.089844 153.296875 164.332031 153.335938 164.507812 153.378906 C 164.683594 153.417969 164.871094 153.5 165.066406 153.621094 C 165.261719 153.742188 165.40625 153.90625 165.5 154.109375 C 165.660156 154.445312 165.6875 154.871094 165.585938 155.394531 C 165.398438 156.367188 165.09375 156.949219 164.675781 157.144531 C 164.433594 157.257812 164.023438 157.265625 163.4375 157.175781 C 162.660156 156.984375 161.796875 157.105469 160.851562 157.542969 C 160.433594 157.738281 160.039062 158.015625 159.664062 158.375 C 159.292969 158.738281 158.972656 159.164062 158.695312 159.648438 C 158.421875 160.136719 158.277344 160.710938 158.257812 161.375 C 158.238281 162.039062 158.386719 162.707031 158.699219 163.378906 C 159.019531 164.066406 159.441406 164.617188 159.960938 165.03125 C 160.484375 165.445312 161.023438 165.707031 161.582031 165.8125 C 162.140625 165.921875 162.675781 165.949219 163.191406 165.890625 C 163.707031 165.832031 164.164062 165.707031 164.570312 165.519531 C 164.988281 165.324219 165.355469 165.089844 165.675781 164.808594 C 165.996094 164.527344 166.214844 164.296875 166.328125 164.113281 Z M 166.484375 163.820312 " fill-opacity="1" fill-rule="nonzero"/><path fill="#000000" d="M 166.53125 152.890625 C 166.386719 152.582031 166.289062 152.347656 166.238281 152.183594 C 166.1875 152.019531 166.167969 151.808594 166.183594 151.558594 C 166.195312 151.304688 166.3125 151.078125 166.53125 150.878906 C 166.75 150.679688 167.074219 150.480469 167.503906 150.277344 C 167.855469 150.117188 168.160156 150.015625 168.421875 149.976562 C 168.683594 149.9375 168.894531 149.9375 169.0625 149.972656 C 169.226562 150.011719 169.382812 150.109375 169.527344 150.261719 C 169.671875 150.414062 169.777344 150.554688 169.84375 150.679688 C 169.910156 150.804688 170.003906 150.992188 170.121094 151.25 L 175.351562 162.476562 C 175.503906 162.800781 175.605469 163.042969 175.652344 163.199219 C 175.699219 163.355469 175.71875 163.558594 175.703125 163.8125 C 175.691406 164.066406 175.574219 164.292969 175.355469 164.492188 C 175.136719 164.691406 174.8125 164.890625 174.382812 165.089844 C 174.03125 165.253906 173.726562 165.355469 173.464844 165.394531 C 173.203125 165.433594 172.992188 165.433594 172.824219 165.398438 C 172.660156 165.359375 172.503906 165.261719 172.359375 165.109375 C 172.214844 164.957031 172.109375 164.816406 172.042969 164.691406 C 171.976562 164.566406 171.882812 164.375 171.761719 164.121094 Z M 166.53125 152.890625 " fill-opacity="1" fill-rule="nonzero"/><path fill="#000000" d="M 179.714844 158.265625 L 185.945312 155.371094 C 186.257812 155.226562 186.492188 155.132812 186.65625 155.078125 C 186.820312 155.027344 187.03125 155.007812 187.28125 155.023438 C 187.535156 155.039062 187.761719 155.152344 187.960938 155.371094 C 188.164062 155.589844 188.363281 155.914062 188.5625 156.34375 C 188.726562 156.695312 188.828125 157 188.867188 157.261719 C 188.90625 157.519531 188.90625 157.730469 188.867188 157.898438 C 188.832031 158.0625 188.734375 158.21875 188.582031 158.363281 C 188.425781 158.507812 188.289062 158.613281 188.164062 158.679688 C 188.039062 158.746094 187.847656 158.839844 187.589844 158.957031 L 179.578125 162.675781 C 179.230469 162.839844 178.925781 162.941406 178.664062 162.980469 C 178.402344 163.019531 178.191406 163.019531 178.023438 162.980469 C 177.859375 162.945312 177.703125 162.847656 177.558594 162.695312 C 177.414062 162.542969 177.308594 162.402344 177.242188 162.277344 C 177.175781 162.152344 177.082031 161.964844 176.964844 161.707031 L 171.730469 150.480469 C 171.414062 149.792969 171.320312 149.265625 171.460938 148.898438 C 171.601562 148.53125 172.03125 148.179688 172.746094 147.847656 L 180.714844 144.148438 C 181.027344 144.003906 181.261719 143.902344 181.425781 143.851562 C 181.589844 143.800781 181.800781 143.78125 182.050781 143.796875 C 182.304688 143.808594 182.53125 143.925781 182.730469 144.144531 C 182.929688 144.363281 183.132812 144.6875 183.332031 145.117188 C 183.496094 145.46875 183.597656 145.773438 183.636719 146.03125 C 183.675781 146.292969 183.675781 146.503906 183.636719 146.671875 C 183.597656 146.835938 183.503906 146.988281 183.347656 147.136719 C 183.195312 147.28125 183.054688 147.386719 182.929688 147.453125 C 182.804688 147.519531 182.617188 147.609375 182.359375 147.730469 L 176.148438 150.613281 L 177.097656 152.652344 L 181.105469 150.792969 C 181.414062 150.648438 181.652344 150.550781 181.816406 150.5 C 181.980469 150.449219 182.191406 150.429688 182.441406 150.441406 C 182.695312 150.457031 182.921875 150.574219 183.121094 150.789062 C 183.320312 151.007812 183.519531 151.332031 183.722656 151.761719 C 183.886719 152.113281 183.984375 152.417969 184.027344 152.679688 C 184.066406 152.9375 184.066406 153.152344 184.027344 153.316406 C 183.988281 153.480469 183.890625 153.636719 183.730469 153.785156 C 183.570312 153.933594 183.425781 154.042969 183.300781 154.109375 C 183.175781 154.175781 182.984375 154.265625 182.730469 154.386719 L 178.765625 156.226562 Z M 179.714844 158.265625 " fill-opacity="1" fill-rule="nonzero"/><path fill="#000000" d="M 195.003906 137.535156 C 195.339844 137.378906 195.644531 137.277344 195.910156 137.234375 C 196.175781 137.195312 196.390625 137.191406 196.550781 137.234375 C 196.707031 137.277344 196.859375 137.371094 197.003906 137.527344 C 197.152344 137.679688 197.257812 137.820312 197.324219 137.945312 C 197.390625 138.070312 197.484375 138.257812 197.601562 138.515625 L 202.824219 149.722656 C 202.972656 150.046875 203.074219 150.285156 203.121094 150.445312 C 203.171875 150.601562 203.191406 150.804688 203.175781 151.058594 C 203.164062 151.308594 203.046875 151.535156 202.828125 151.734375 C 202.609375 151.933594 202.28125 152.136719 201.851562 152.335938 C 201.324219 152.578125 200.941406 152.707031 200.703125 152.722656 C 200.460938 152.734375 200.234375 152.6875 200.019531 152.574219 C 195.101562 149.941406 191.878906 148.230469 190.339844 147.4375 L 193.4375 154.082031 C 193.585938 154.402344 193.6875 154.644531 193.734375 154.800781 C 193.785156 154.960938 193.804688 155.164062 193.789062 155.417969 C 193.777344 155.667969 193.660156 155.894531 193.441406 156.09375 C 193.222656 156.292969 192.898438 156.492188 192.464844 156.695312 C 192.046875 156.886719 191.695312 157.003906 191.40625 157.039062 C 191.121094 157.074219 190.875 157.015625 190.675781 156.863281 C 190.472656 156.710938 190.324219 156.558594 190.226562 156.40625 C 190.132812 156.253906 190.011719 156.023438 189.867188 155.714844 L 184.617188 144.445312 C 184.476562 144.136719 184.382812 143.902344 184.339844 143.742188 C 184.296875 143.578125 184.28125 143.382812 184.296875 143.144531 C 184.308594 142.910156 184.425781 142.691406 184.644531 142.492188 C 184.863281 142.292969 185.1875 142.09375 185.621094 141.894531 C 185.996094 141.71875 186.320312 141.613281 186.589844 141.574219 C 186.863281 141.539062 187.066406 141.546875 187.199219 141.585938 C 187.335938 141.632812 187.519531 141.714844 187.757812 141.832031 L 187.914062 141.90625 C 192.558594 144.449219 195.648438 146.117188 197.183594 146.914062 L 194.003906 140.085938 C 193.859375 139.777344 193.765625 139.542969 193.722656 139.382812 C 193.683594 139.222656 193.667969 139.023438 193.683594 138.785156 C 193.695312 138.550781 193.8125 138.335938 194.03125 138.132812 C 194.25 137.933594 194.574219 137.734375 195.003906 137.535156 Z M 195.003906 137.535156 " fill-opacity="1" fill-rule="nonzero"/><path fill="#000000" d="M 212.886719 142.273438 L 212.96875 142.136719 C 213.304688 141.65625 213.5625 141.371094 213.75 141.28125 C 214.171875 141.089844 214.796875 141.253906 215.632812 141.785156 C 216.152344 142.117188 216.476562 142.433594 216.613281 142.730469 C 216.742188 143 216.757812 143.269531 216.664062 143.542969 C 216.570312 143.816406 216.390625 144.144531 216.125 144.527344 C 216.042969 144.664062 215.921875 144.851562 215.761719 145.089844 C 215.601562 145.328125 215.226562 145.714844 214.640625 146.25 C 214.050781 146.785156 213.414062 147.210938 212.726562 147.53125 C 212.136719 147.808594 211.472656 148.011719 210.738281 148.148438 C 210.003906 148.28125 209.199219 148.3125 208.320312 148.238281 C 207.441406 148.164062 206.589844 147.96875 205.773438 147.652344 C 204.953125 147.339844 204.15625 146.816406 203.382812 146.085938 C 202.605469 145.355469 201.972656 144.460938 201.476562 143.398438 C 200.992188 142.359375 200.730469 141.332031 200.679688 140.316406 C 200.632812 139.300781 200.75 138.382812 201.039062 137.570312 C 201.324219 136.757812 201.726562 136 202.25 135.289062 C 202.773438 134.578125 203.328125 133.984375 203.917969 133.507812 C 204.507812 133.027344 205.109375 132.644531 205.730469 132.355469 C 206.367188 132.0625 207.054688 131.863281 207.800781 131.753906 C 208.546875 131.644531 209.132812 131.613281 209.5625 131.65625 L 210.183594 131.714844 C 210.496094 131.75 210.738281 131.789062 210.914062 131.832031 C 211.085938 131.871094 211.273438 131.953125 211.46875 132.074219 C 211.664062 132.199219 211.808594 132.359375 211.90625 132.5625 C 212.0625 132.898438 212.089844 133.328125 211.988281 133.847656 C 211.800781 134.820312 211.496094 135.402344 211.082031 135.597656 C 210.839844 135.710938 210.425781 135.722656 209.839844 135.632812 C 209.0625 135.4375 208.199219 135.558594 207.257812 135.996094 C 206.835938 136.191406 206.441406 136.46875 206.070312 136.832031 C 205.695312 137.191406 205.375 137.617188 205.101562 138.101562 C 204.828125 138.589844 204.679688 139.167969 204.660156 139.828125 C 204.644531 140.496094 204.789062 141.164062 205.105469 141.835938 C 205.425781 142.523438 205.84375 143.070312 206.367188 143.484375 C 206.886719 143.898438 207.425781 144.160156 207.984375 144.269531 C 208.542969 144.378906 209.082031 144.402344 209.59375 144.34375 C 210.109375 144.285156 210.570312 144.164062 210.972656 143.972656 C 211.390625 143.78125 211.757812 143.542969 212.078125 143.261719 C 212.402344 142.984375 212.617188 142.753906 212.730469 142.570312 Z M 212.886719 142.273438 " fill-opacity="1" fill-rule="nonzero"/><path fill="#000000" d="M 220.917969 139.132812 L 227.148438 136.238281 C 227.460938 136.09375 227.699219 135.996094 227.863281 135.945312 C 228.027344 135.894531 228.234375 135.875 228.488281 135.886719 C 228.738281 135.902344 228.964844 136.019531 229.164062 136.238281 C 229.367188 136.453125 229.566406 136.78125 229.769531 137.210938 C 229.929688 137.558594 230.03125 137.863281 230.070312 138.125 C 230.109375 138.386719 230.109375 138.597656 230.074219 138.761719 C 230.035156 138.929688 229.941406 139.085938 229.785156 139.230469 C 229.632812 139.375 229.492188 139.480469 229.367188 139.542969 C 229.242188 139.613281 229.050781 139.703125 228.796875 139.824219 L 220.785156 143.542969 C 220.433594 143.707031 220.128906 143.808594 219.867188 143.847656 C 219.605469 143.886719 219.394531 143.886719 219.230469 143.847656 C 219.0625 143.8125 218.910156 143.714844 218.761719 143.5625 C 218.617188 143.410156 218.511719 143.269531 218.445312 143.144531 C 218.378906 143.019531 218.285156 142.828125 218.167969 142.574219 L 212.9375 131.34375 C 212.617188 130.660156 212.527344 130.132812 212.664062 129.761719 C 212.804688 129.394531 213.234375 129.042969 213.949219 128.710938 L 221.917969 125.011719 C 222.230469 124.867188 222.46875 124.769531 222.628906 124.71875 C 222.796875 124.664062 223.003906 124.648438 223.253906 124.660156 C 223.507812 124.671875 223.734375 124.789062 223.933594 125.007812 C 224.136719 125.226562 224.335938 125.550781 224.535156 125.980469 C 224.699219 126.332031 224.800781 126.636719 224.839844 126.898438 C 224.878906 127.160156 224.878906 127.371094 224.839844 127.535156 C 224.804688 127.699219 224.707031 127.855469 224.554688 128 C 224.398438 128.144531 224.257812 128.25 224.136719 128.316406 C 224.007812 128.382812 223.820312 128.476562 223.5625 128.59375 L 217.351562 131.476562 L 218.304688 133.515625 L 222.308594 131.65625 C 222.617188 131.515625 222.855469 131.417969 223.019531 131.363281 C 223.183594 131.3125 223.394531 131.292969 223.644531 131.308594 C 223.898438 131.324219 224.125 131.4375 224.324219 131.65625 C 224.523438 131.875 224.726562 132.199219 224.925781 132.628906 C 225.089844 132.980469 225.191406 133.285156 225.226562 133.546875 C 225.269531 133.804688 225.269531 134.015625 225.230469 134.183594 C 225.195312 134.347656 225.09375 134.503906 224.933594 134.652344 C 224.773438 134.800781 224.628906 134.910156 224.503906 134.976562 C 224.378906 135.042969 224.1875 135.132812 223.933594 135.25 L 219.96875 137.09375 Z M 220.917969 139.132812 " fill-opacity="1" fill-rule="nonzero"/><path fill="#ffb46a" d="M 120.046875 106.289062 C 117.523438 103.199219 116.257812 99.285156 115.253906 95.417969 C 115.25 95.378906 115.246094 95.34375 115.242188 95.308594 C 115.238281 95.320312 115.238281 95.332031 115.234375 95.34375 C 115.230469 95.332031 115.226562 95.316406 115.222656 95.300781 C 115.222656 95.347656 115.21875 95.390625 115.21875 95.433594 C 114.582031 99.375 113.695312 103.390625 111.476562 106.699219 C 109.222656 110.058594 105.171875 112.390625 101.183594 113.003906 C 109.222656 114.890625 115.8125 120.992188 116.839844 129.167969 C 116.855469 129.175781 116.855469 129.164062 116.863281 129.152344 C 117.113281 120.917969 123.066406 114.226562 130.886719 111.59375 C 126.859375 111.359375 122.609375 109.417969 120.046875 106.289062 Z M 120.046875 106.289062 " fill-opacity="1" fill-rule="nonzero"/><path fill="#ffb46a" d="M 266.988281 182.777344 C 264.464844 179.691406 263.203125 175.773438 262.195312 171.90625 C 262.191406 171.871094 262.1875 171.835938 262.183594 171.796875 C 262.179688 171.8125 262.179688 171.824219 262.175781 171.835938 C 262.171875 171.820312 262.167969 171.804688 262.164062 171.789062 C 262.164062 171.835938 262.160156 171.882812 262.160156 171.925781 C 261.523438 175.867188 260.636719 179.882812 258.417969 183.191406 C 256.164062 186.550781 252.117188 188.882812 248.125 189.496094 C 256.164062 191.382812 262.753906 197.484375 263.78125 205.660156 C 263.796875 205.667969 263.796875 205.65625 263.804688 205.644531 C 264.054688 197.40625 270.007812 190.71875 277.832031 188.085938 C 273.800781 187.851562 269.550781 185.910156 266.988281 182.777344 Z M 266.988281 182.777344 " fill-opacity="1" fill-rule="nonzero"/><path fill="#ffb46a" d="M 126.613281 223.753906 C 124.089844 220.667969 122.828125 216.753906 121.820312 212.886719 C 121.816406 212.847656 121.8125 212.8125 121.808594 212.777344 C 121.804688 212.789062 121.804688 212.800781 121.800781 212.8125 C 121.796875 212.800781 121.792969 212.785156 121.789062 212.769531 C 121.789062 212.816406 121.789062 212.859375 121.785156 212.902344 C 121.148438 216.84375 120.261719 220.859375 118.042969 224.167969 C 115.789062 227.527344 111.742188 229.859375 107.75 230.472656 C 115.789062 232.359375 122.378906 238.460938 123.40625 246.636719 C 123.421875 246.644531 123.421875 246.632812 123.429688 246.621094 C 123.679688 238.386719 129.632812 231.695312 137.457031 229.0625 C 133.425781 228.828125 129.175781 226.886719 126.613281 223.753906 Z M 126.613281 223.753906 " fill-opacity="1" fill-rule="nonzero"/></svg>